<?xml version="1.0" encoding="UTF-8"?>
<!DOCTYPE score-partwise PUBLIC "-//Recordare//DTD MusicXML 3.0.1 Partwise//EN" "http://www.musicxml.org/dtds/partwise.dtd">
<score-partwise version="3.0.1">
  <movement-number>null</movement-number>
  <movement-title>[Audiveris detected movement]</movement-title>
  <identification>
    <encoding>
      <software>Audiveris 5.0.0</software>
      <supports type="yes" element="print" attribute="new-system" value="yes"></supports>
      <supports type="yes" element="print" attribute="new-page" value="yes"></supports>
      <software>ProxyMusic 3.0.1.8e1a2c5</software>
      <encoding-date>2017-07-18</encoding-date>
    </encoding>
    <source>/Users/mb/Desktop/Janis.so/06_qmul/BB/06_grade_pdfs/AB-Sight-Reading-4.pdf</source>
    <miscellaneous>
      <miscellaneous-field name="source-file">/Users/mb/Desktop/Janis.so/06_qmul/BB/06_grade_pdfs/AB-Sight-Reading-4.pdf</miscellaneous-field>
      <miscellaneous-field name="source-sheet-10">1 2 3</miscellaneous-field>
    </miscellaneous>
  </identification>
  <defaults>
    <scaling>
      <millimeters>7.1120</millimeters>
      <tenths>40</tenths>
    </scaling>
    <page-layout>
      <page-height>1640</page-height>
      <page-width>1180</page-width>
      <page-margins type="both">
        <left-margin>80</left-margin>
        <right-margin>80</right-margin>
        <top-margin>80</top-margin>
        <bottom-margin>80</bottom-margin>
      </page-margins>
    </page-layout>
    <lyric-font font-family="Serif" font-size="10"></lyric-font>
  </defaults>
  <credit page="1">
    <credit-words default-x="241" default-y="1301" font-family="serif" font-size="13" font-weight="bold">1’</credit-words>
  </credit>
  <credit page="1">
    <credit-words default-x="319" default-y="1216" font-family="sans-serif" font-style="italic" font-size="11" font-weight="bold">.</credit-words>
  </credit>
  <credit page="1">
    <credit-words default-x="104" default-y="949" font-family="serif" font-size="10">( )</credit-words>
  </credit>
  <credit page="1">
    <credit-words default-x="168" default-y="795" font-family="serif" font-size="12" font-weight="bold">Andante</credit-words>
  </credit>
  <part-list>
    <score-part id="P1">
      <part-name>22</part-name>
      <score-instrument id="P1-I1">
        <instrument-name>Acoustic Grand Piano</instrument-name>
      </score-instrument>
      <midi-instrument id="P1-I1">
        <midi-channel>1</midi-channel>
        <midi-program>1</midi-program>
        <volume>78</volume>
      </midi-instrument>
    </score-part>
  </part-list>
  <!--= = = = = = = = = = = = = = = = = = = = = = = = = = = = =-->
  <part id="P1">
    <!--=======================================================-->
    <measure number="1" width="320">
      <print>
        <system-layout>
          <system-margins>
            <left-margin>14</left-margin>
            <right-margin>6</right-margin>
          </system-margins>
          <top-system-distance>32</top-system-distance>
        </system-layout>
        <staff-layout number="2">
          <staff-distance>62</staff-distance>
        </staff-layout>
        <measure-numbering>system</measure-numbering>
      </print>
      <attributes>
        <divisions>4</divisions>
        <key>
          <fifths>-2</fifths>
        </key>
        <time>
          <beats>6</beats>
          <beat-type>8</beat-type>
        </time>
        <staves>2</staves>
        <clef number="1">
          <sign>G</sign>
          <line>2</line>
        </clef>
        <clef number="2">
          <sign>F</sign>
          <line>4</line>
        </clef>
        <staff-details print-object="yes"></staff-details>
      </attributes>
      <direction>
        <direction-type>
          <words></words>
        </direction-type>
        <sound tempo="120"></sound>
      </direction>
      <direction placement="below">
        <direction-type>
          <dynamics default-y="-66" relative-x="-4">
            <p/>
          </dynamics>
        </direction-type>
        <staff>1</staff>
        <sound dynamics="56"></sound>
      </direction>
      <direction placement="above">
        <direction-type>
          <words default-y="16" relative-x="-31" font-family="serif" font-size="12" font-weight="bold">Siciliana with a gentle</words>
        </direction-type>
        <staff>1</staff>
      </direction>
      <note default-x="102">
        <pitch>
          <step>F</step>
          <octave>4</octave>
        </pitch>
        <duration>3</duration>
        <voice>1</voice>
        <type>eighth</type>
        <dot/>
        <stem default-y="3">up</stem>
        <staff>1</staff>
        <beam number="1">begin</beam>
        <notations>
          <slur type="start" number="1" bezier-x="22" bezier-y="-10" default-x="7" default-y="-44" placement="below"></slur>
        </notations>
      </note>
      <note default-x="147">
        <pitch>
          <step>G</step>
          <octave>4</octave>
        </pitch>
        <duration>1</duration>
        <voice>1</voice>
        <type>16th</type>
        <stem default-y="3">up</stem>
        <staff>1</staff>
        <beam number="1">continue</beam>
        <beam number="2">backward hook</beam>
      </note>
      <note default-x="174">
        <pitch>
          <step>F</step>
          <octave>4</octave>
        </pitch>
        <duration>2</duration>
        <voice>1</voice>
        <type>eighth</type>
        <stem default-y="3">up</stem>
        <staff>1</staff>
        <beam number="1">end</beam>
        <notations>
          <slur type="stop" number="1" bezier-x="-22" bezier-y="-10" default-x="5" default-y="-45"></slur>
        </notations>
      </note>
      <note default-x="214">
        <pitch>
          <step>F</step>
          <octave>4</octave>
        </pitch>
        <duration>4</duration>
        <tie type="start"></tie>
        <voice>1</voice>
        <type>quarter</type>
        <stem default-y="1">up</stem>
        <staff>1</staff>
        <notations>
          <tied type="start" orientation="under"></tied>
        </notations>
      </note>
      <note default-x="279">
        <pitch>
          <step>F</step>
          <octave>4</octave>
        </pitch>
        <duration>2</duration>
        <tie type="stop"></tie>
        <voice>1</voice>
        <type>eighth</type>
        <stem default-y="1">up</stem>
        <staff>1</staff>
        <notations>
          <tied type="stop"></tied>
        </notations>
      </note>
      <backup>
        <duration>12</duration>
      </backup>
      <note default-x="102">
        <pitch>
          <step>B</step>
          <alter>-1</alter>
          <octave>3</octave>
        </pitch>
        <duration>4</duration>
        <voice>2</voice>
        <type>quarter</type>
        <stem default-y="-30">down</stem>
        <staff>2</staff>
      </note>
      <note default-x="102">
        <chord/>
        <pitch>
          <step>D</step>
          <octave>4</octave>
        </pitch>
        <duration>4</duration>
        <voice>2</voice>
        <type>quarter</type>
        <stem default-y="-30">down</stem>
        <staff>2</staff>
      </note>
      <note default-x="175">
        <rest>
          <display-step>D</display-step>
          <display-octave>3</display-octave>
        </rest>
        <duration>2</duration>
        <voice>2</voice>
        <type>eighth</type>
        <staff>2</staff>
      </note>
      <note default-x="214">
        <pitch>
          <step>A</step>
          <octave>3</octave>
        </pitch>
        <duration>4</duration>
        <voice>2</voice>
        <type>quarter</type>
        <stem default-y="-35">down</stem>
        <staff>2</staff>
      </note>
      <note default-x="214">
        <chord/>
        <pitch>
          <step>C</step>
          <octave>4</octave>
        </pitch>
        <duration>4</duration>
        <voice>2</voice>
        <type>quarter</type>
        <stem default-y="-35">down</stem>
        <staff>2</staff>
      </note>
      <note default-x="279">
        <rest>
          <display-step>D</display-step>
          <display-octave>3</display-octave>
        </rest>
        <duration>2</duration>
        <voice>2</voice>
        <type>eighth</type>
        <staff>2</staff>
      </note>
    </measure>
    <!--=======================================================-->
    <measure number="2" width="223">
      <note default-x="14">
        <pitch>
          <step>F</step>
          <octave>4</octave>
        </pitch>
        <duration>4</duration>
        <voice>1</voice>
        <type>quarter</type>
        <stem default-y="1">up</stem>
        <staff>1</staff>
        <notations>
          <slur type="start" number="1" bezier-x="20" bezier-y="-10" default-x="8" default-y="-45" placement="below"></slur>
        </notations>
      </note>
      <note default-x="79">
        <pitch>
          <step>E</step>
          <alter>-1</alter>
          <octave>4</octave>
        </pitch>
        <duration>2</duration>
        <voice>1</voice>
        <type>eighth</type>
        <stem default-y="-5">up</stem>
        <staff>1</staff>
        <notations>
          <slur type="stop" number="1" bezier-x="-21" bezier-y="-8" default-x="6" default-y="-49"></slur>
        </notations>
      </note>
      <note default-x="119">
        <pitch>
          <step>E</step>
          <alter>-1</alter>
          <octave>4</octave>
        </pitch>
        <duration>4</duration>
        <voice>1</voice>
        <type>quarter</type>
        <stem default-y="-4">up</stem>
        <staff>1</staff>
        <notations>
          <slur type="start" number="1" bezier-x="21" bezier-y="-11" default-x="7" default-y="-50" placement="below"></slur>
        </notations>
      </note>
      <note default-x="183">
        <pitch>
          <step>D</step>
          <octave>4</octave>
        </pitch>
        <duration>2</duration>
        <voice>1</voice>
        <type>eighth</type>
        <stem default-y="-9">up</stem>
        <staff>1</staff>
        <notations>
          <slur type="stop" number="1" bezier-x="-22" bezier-y="-8" default-x="7" default-y="-54"></slur>
        </notations>
      </note>
      <backup>
        <duration>12</duration>
      </backup>
      <note default-x="14">
        <pitch>
          <step>G</step>
          <octave>3</octave>
        </pitch>
        <duration>4</duration>
        <voice>2</voice>
        <type>quarter</type>
        <stem default-y="-40">down</stem>
        <staff>2</staff>
      </note>
      <note default-x="14">
        <chord/>
        <pitch>
          <step>B</step>
          <alter>-1</alter>
          <octave>3</octave>
        </pitch>
        <duration>4</duration>
        <voice>2</voice>
        <type>quarter</type>
        <stem default-y="-40">down</stem>
        <staff>2</staff>
      </note>
      <note default-x="79">
        <rest>
          <display-step>D</display-step>
          <display-octave>3</display-octave>
        </rest>
        <duration>2</duration>
        <voice>2</voice>
        <type>eighth</type>
        <staff>2</staff>
      </note>
      <note default-x="119">
        <pitch>
          <step>F</step>
          <octave>3</octave>
        </pitch>
        <duration>4</duration>
        <voice>2</voice>
        <type>quarter</type>
        <stem default-y="-43">down</stem>
        <staff>2</staff>
      </note>
      <note default-x="119">
        <chord/>
        <pitch>
          <step>A</step>
          <octave>3</octave>
        </pitch>
        <duration>4</duration>
        <voice>2</voice>
        <type>quarter</type>
        <stem default-y="-43">down</stem>
        <staff>2</staff>
      </note>
      <note default-x="183">
        <rest>
          <display-step>D</display-step>
          <display-octave>3</display-octave>
        </rest>
        <duration>2</duration>
        <voice>2</voice>
        <type>eighth</type>
        <staff>2</staff>
      </note>
    </measure>
    <!--=======================================================-->
    <measure number="3" width="246">
      <note default-x="15">
        <pitch>
          <step>C</step>
          <octave>4</octave>
        </pitch>
        <duration>3</duration>
        <voice>1</voice>
        <type>eighth</type>
        <dot/>
        <stem default-y="-9">up</stem>
        <staff>1</staff>
        <beam number="1">begin</beam>
        <notations>
          <slur type="start" number="1" bezier-x="23" bezier-y="-10" default-x="6" default-y="-60" placement="below"></slur>
        </notations>
      </note>
      <note default-x="60">
        <pitch>
          <step>D</step>
          <octave>4</octave>
        </pitch>
        <duration>1</duration>
        <voice>1</voice>
        <type>16th</type>
        <stem default-y="-9">up</stem>
        <staff>1</staff>
        <beam number="1">continue</beam>
        <beam number="2">backward hook</beam>
      </note>
      <note default-x="87">
        <pitch>
          <step>C</step>
          <octave>4</octave>
        </pitch>
        <duration>2</duration>
        <voice>1</voice>
        <type>eighth</type>
        <stem default-y="-9">up</stem>
        <staff>1</staff>
        <beam number="1">end</beam>
        <notations>
          <slur type="stop" number="1" bezier-x="-23" bezier-y="-11" default-x="6" default-y="-59"></slur>
        </notations>
      </note>
      <note default-x="126">
        <pitch>
          <step>G</step>
          <octave>4</octave>
        </pitch>
        <duration>2</duration>
        <voice>1</voice>
        <type>eighth</type>
        <stem default-y="3">up</stem>
        <staff>1</staff>
        <beam number="1">begin</beam>
        <notations>
          <slur type="start" number="1" bezier-x="24" bezier-y="-19" default-x="10" default-y="-41" placement="below"></slur>
        </notations>
      </note>
      <note default-x="167">
        <pitch>
          <step>E</step>
          <alter>-1</alter>
          <octave>4</octave>
        </pitch>
        <duration>2</duration>
        <voice>1</voice>
        <type>eighth</type>
        <stem default-y="-2">up</stem>
        <staff>1</staff>
        <beam number="1">continue</beam>
      </note>
      <note default-x="206">
        <pitch>
          <step>C</step>
          <octave>4</octave>
        </pitch>
        <duration>2</duration>
        <voice>1</voice>
        <type>eighth</type>
        <stem default-y="-7">up</stem>
        <staff>1</staff>
        <beam number="1">end</beam>
        <notations>
          <slur type="stop" number="1" bezier-x="-28" bezier-y="-6" default-x="6" default-y="-59"></slur>
        </notations>
      </note>
      <backup>
        <duration>12</duration>
      </backup>
      <note default-x="14">
        <pitch>
          <step>E</step>
          <alter>-1</alter>
          <octave>3</octave>
        </pitch>
        <duration>12</duration>
        <voice>2</voice>
        <type>half</type>
        <dot/>
        <stem default-y="-47">down</stem>
        <staff>2</staff>
      </note>
      <note default-x="14">
        <chord/>
        <pitch>
          <step>G</step>
          <octave>3</octave>
        </pitch>
        <duration>12</duration>
        <voice>2</voice>
        <type>half</type>
        <dot/>
        <stem default-y="-47">down</stem>
        <staff>2</staff>
      </note>
    </measure>
    <!--=======================================================-->
    <measure number="4" width="211">
      <note default-x="14">
        <pitch>
          <step>D</step>
          <octave>4</octave>
        </pitch>
        <duration>3</duration>
        <voice>1</voice>
        <type>eighth</type>
        <dot/>
        <stem default-y="-7">up</stem>
        <staff>1</staff>
        <beam number="1">begin</beam>
        <notations>
          <slur type="start" number="1" bezier-x="33" bezier-y="-13" default-x="7" default-y="-54" placement="below"></slur>
        </notations>
      </note>
      <note default-x="59">
        <pitch>
          <step>E</step>
          <alter>-1</alter>
          <octave>4</octave>
        </pitch>
        <duration>1</duration>
        <voice>1</voice>
        <type>16th</type>
        <stem default-y="-7">up</stem>
        <staff>1</staff>
        <beam number="1">continue</beam>
        <beam number="2">backward hook</beam>
      </note>
      <note default-x="85">
        <pitch>
          <step>D</step>
          <octave>4</octave>
        </pitch>
        <duration>2</duration>
        <voice>1</voice>
        <type>eighth</type>
        <stem default-y="-7">up</stem>
        <staff>1</staff>
        <beam number="1">end</beam>
      </note>
      <note default-x="125">
        <pitch>
          <step>C</step>
          <octave>4</octave>
        </pitch>
        <duration>6</duration>
        <voice>1</voice>
        <type>quarter</type>
        <dot/>
        <stem default-y="-15">up</stem>
        <staff>1</staff>
        <notations>
          <slur type="stop" number="1" bezier-x="-33" bezier-y="-11" default-x="5" default-y="-59"></slur>
        </notations>
      </note>
      <backup>
        <duration>12</duration>
      </backup>
      <note default-x="15">
        <pitch>
          <step>F</step>
          <octave>3</octave>
        </pitch>
        <duration>4</duration>
        <voice>2</voice>
        <type>quarter</type>
        <stem default-y="-43">down</stem>
        <staff>2</staff>
        <notations>
          <slur type="start" number="1" bezier-x="30" bezier-y="19" default-x="6" default-y="-1" placement="above"></slur>
        </notations>
      </note>
      <note default-x="85">
        <pitch>
          <step>B</step>
          <alter>-1</alter>
          <octave>3</octave>
        </pitch>
        <duration>2</duration>
        <voice>2</voice>
        <type>eighth</type>
        <stem default-y="-30">down</stem>
        <staff>2</staff>
      </note>
      <note default-x="124">
        <pitch>
          <step>A</step>
          <octave>3</octave>
        </pitch>
        <duration>6</duration>
        <voice>2</voice>
        <type>quarter</type>
        <dot/>
        <stem default-y="-35">down</stem>
        <staff>2</staff>
        <notations>
          <slur type="stop" number="1" bezier-x="-33" bezier-y="12" default-x="7" default-y="10"></slur>
        </notations>
      </note>
    </measure>
    <!--=======================================================-->
    <measure number="5" width="327">
      <print new-system="yes">
        <system-layout>
          <system-margins>
            <left-margin>-48</left-margin>
            <right-margin>3</right-margin>
          </system-margins>
          <system-distance>92</system-distance>
        </system-layout>
        <staff-layout number="2">
          <staff-distance>73</staff-distance>
        </staff-layout>
      </print>
      <attributes>
        <staff-details print-object="yes"></staff-details>
      </attributes>
      <note default-x="88">
        <rest>
          <display-step>B</display-step>
          <display-octave>4</display-octave>
        </rest>
        <duration>6</duration>
        <voice>1</voice>
        <type>quarter</type>
        <dot/>
        <staff>1</staff>
      </note>
      <note default-x="215">
        <pitch>
          <step>D</step>
          <octave>4</octave>
        </pitch>
        <duration>6</duration>
        <voice>1</voice>
        <type>quarter</type>
        <dot/>
        <stem default-y="1">up</stem>
        <staff>1</staff>
        <notations>
          <slur type="start" number="1" bezier-x="75" bezier-y="-16" default-x="7" default-y="-52" placement="below"></slur>
        </notations>
      </note>
      <note default-x="215">
        <chord/>
        <pitch>
          <step>F</step>
          <octave>4</octave>
        </pitch>
        <duration>6</duration>
        <voice>1</voice>
        <type>quarter</type>
        <dot/>
        <stem default-y="1">up</stem>
        <staff>1</staff>
      </note>
      <backup>
        <duration>12</duration>
      </backup>
      <direction placement="above">
        <direction-type>
          <dynamics default-y="33" relative-x="-9">
            <mp/>
          </dynamics>
        </direction-type>
        <staff>2</staff>
        <sound dynamics="67"></sound>
      </direction>
      <note default-x="89">
        <pitch>
          <step>B</step>
          <alter>-1</alter>
          <octave>3</octave>
        </pitch>
        <duration>3</duration>
        <voice>2</voice>
        <type>eighth</type>
        <dot/>
        <stem default-y="-31">down</stem>
        <staff>2</staff>
        <beam number="1">begin</beam>
        <notations>
          <slur type="start" number="2" bezier-x="26" bezier-y="11" default-x="6" default-y="15" placement="above"></slur>
        </notations>
      </note>
      <note default-x="140">
        <pitch>
          <step>C</step>
          <octave>4</octave>
        </pitch>
        <duration>1</duration>
        <voice>2</voice>
        <type>16th</type>
        <stem default-y="-31">down</stem>
        <staff>2</staff>
        <beam number="1">continue</beam>
        <beam number="2">backward hook</beam>
      </note>
      <note default-x="170">
        <pitch>
          <step>B</step>
          <alter>-1</alter>
          <octave>3</octave>
        </pitch>
        <duration>2</duration>
        <voice>2</voice>
        <type>eighth</type>
        <stem default-y="-30">down</stem>
        <staff>2</staff>
        <beam number="1">end</beam>
        <notations>
          <slur type="stop" number="2" bezier-x="-26" bezier-y="11" default-x="6" default-y="15"></slur>
        </notations>
      </note>
      <note default-x="215">
        <pitch>
          <step>B</step>
          <alter>-1</alter>
          <octave>3</octave>
        </pitch>
        <duration>4</duration>
        <tie type="start"></tie>
        <voice>2</voice>
        <type>quarter</type>
        <stem default-y="-30">down</stem>
        <staff>2</staff>
        <notations>
          <tied type="start" orientation="over"></tied>
        </notations>
      </note>
      <note default-x="282">
        <pitch>
          <step>B</step>
          <alter>-1</alter>
          <octave>3</octave>
        </pitch>
        <duration>2</duration>
        <tie type="stop"></tie>
        <voice>2</voice>
        <type>eighth</type>
        <stem default-y="-30">down</stem>
        <staff>2</staff>
        <notations>
          <tied type="stop"></tied>
        </notations>
      </note>
    </measure>
    <!--=======================================================-->
    <measure number="6" width="253">
      <direction placement="below">
        <direction-type>
          <words default-y="-82" relative-x="1" font-family="serif" font-style="italic" font-size="11">cresc.</words>
        </direction-type>
        <staff>1</staff>
      </direction>
      <note default-x="15">
        <pitch>
          <step>E</step>
          <alter>-1</alter>
          <octave>4</octave>
        </pitch>
        <duration>6</duration>
        <voice>1</voice>
        <type>quarter</type>
        <dot/>
        <stem default-y="4">up</stem>
        <staff>1</staff>
      </note>
      <note default-x="15">
        <chord/>
        <pitch>
          <step>G</step>
          <octave>4</octave>
        </pitch>
        <duration>6</duration>
        <voice>1</voice>
        <type>quarter</type>
        <dot/>
        <stem default-y="4">up</stem>
        <staff>1</staff>
      </note>
      <note default-x="141">
        <pitch>
          <step>F</step>
          <octave>4</octave>
        </pitch>
        <duration>6</duration>
        <voice>1</voice>
        <type>quarter</type>
        <dot/>
        <stem default-y="8">up</stem>
        <staff>1</staff>
      </note>
      <note default-x="141">
        <chord/>
        <pitch>
          <step>A</step>
          <alter>-1</alter>
          <octave>4</octave>
        </pitch>
        <duration>6</duration>
        <voice>1</voice>
        <type>quarter</type>
        <dot/>
        <accidental>flat</accidental>
        <stem default-y="8">up</stem>
        <staff>1</staff>
      </note>
      <backup>
        <duration>12</duration>
      </backup>
      <note default-x="14">
        <pitch>
          <step>B</step>
          <alter>-1</alter>
          <octave>3</octave>
        </pitch>
        <duration>3</duration>
        <voice>2</voice>
        <type>eighth</type>
        <dot/>
        <stem default-y="-30">down</stem>
        <staff>2</staff>
        <beam number="1">begin</beam>
        <notations>
          <slur type="start" number="2" bezier-x="26" bezier-y="11" default-x="6" default-y="15" placement="above"></slur>
        </notations>
      </note>
      <note default-x="66">
        <pitch>
          <step>C</step>
          <octave>4</octave>
        </pitch>
        <duration>1</duration>
        <voice>2</voice>
        <type>16th</type>
        <stem default-y="-31">down</stem>
        <staff>2</staff>
        <beam number="1">continue</beam>
        <beam number="2">backward hook</beam>
      </note>
      <note default-x="96">
        <pitch>
          <step>B</step>
          <alter>-1</alter>
          <octave>3</octave>
        </pitch>
        <duration>2</duration>
        <voice>2</voice>
        <type>eighth</type>
        <stem default-y="-30">down</stem>
        <staff>2</staff>
        <beam number="1">end</beam>
        <notations>
          <slur type="stop" number="2" bezier-x="-26" bezier-y="11" default-x="6" default-y="15"></slur>
        </notations>
      </note>
      <note default-x="141">
        <pitch>
          <step>B</step>
          <alter>-1</alter>
          <octave>3</octave>
        </pitch>
        <duration>4</duration>
        <tie type="start"></tie>
        <voice>2</voice>
        <type>quarter</type>
        <stem default-y="-31">down</stem>
        <staff>2</staff>
        <notations>
          <tied type="start" orientation="over"></tied>
        </notations>
      </note>
      <note default-x="208">
        <pitch>
          <step>B</step>
          <alter>-1</alter>
          <octave>3</octave>
        </pitch>
        <duration>2</duration>
        <tie type="stop"></tie>
        <voice>2</voice>
        <type>eighth</type>
        <stem default-y="-30">down</stem>
        <staff>2</staff>
        <notations>
          <tied type="stop"></tied>
        </notations>
      </note>
    </measure>
    <!--=======================================================-->
    <measure number="7" width="189">
      <direction placement="below">
        <direction-type>
          <dynamics default-y="-77" relative-x="2">
            <f/>
          </dynamics>
        </direction-type>
        <staff>1</staff>
        <sound dynamics="100"></sound>
      </direction>
      <note default-x="15">
        <pitch>
          <step>E</step>
          <alter>-1</alter>
          <octave>4</octave>
        </pitch>
        <duration>6</duration>
        <voice>1</voice>
        <type>quarter</type>
        <dot/>
        <stem default-y="4">up</stem>
        <staff>1</staff>
        <notations>
          <slur type="stop" number="1" bezier-x="-81" bezier-y="-18" default-x="6" default-y="-49"></slur>
        </notations>
      </note>
      <note default-x="15">
        <chord/>
        <pitch>
          <step>G</step>
          <octave>4</octave>
        </pitch>
        <duration>6</duration>
        <voice>1</voice>
        <type>quarter</type>
        <dot/>
        <stem default-y="4">up</stem>
        <staff>1</staff>
      </note>
      <note default-x="103">
        <rest>
          <display-step>B</display-step>
          <display-octave>4</display-octave>
        </rest>
        <duration>6</duration>
        <voice>1</voice>
        <type>quarter</type>
        <dot/>
        <staff>1</staff>
      </note>
      <backup>
        <duration>12</duration>
      </backup>
      <note default-x="15">
        <pitch>
          <step>E</step>
          <alter>-1</alter>
          <octave>3</octave>
        </pitch>
        <duration>6</duration>
        <voice>2</voice>
        <type>quarter</type>
        <dot/>
        <stem default-y="-48">down</stem>
        <staff>2</staff>
      </note>
      <note default-x="103">
        <rest>
          <display-step>D</display-step>
          <display-octave>3</display-octave>
        </rest>
        <duration>6</duration>
        <voice>2</voice>
        <type>quarter</type>
        <dot/>
        <staff>2</staff>
      </note>
    </measure>
    <!--=======================================================-->
    <measure number="8" width="296">
      <note default-x="20">
        <pitch>
          <step>E</step>
          <octave>3</octave>
        </pitch>
        <duration>2</duration>
        <voice>1</voice>
        <type>eighth</type>
        <accidental>natural</accidental>
        <stem default-y="31">up</stem>
        <staff>2</staff>
        <beam number="1">begin</beam>
      </note>
      <note default-x="64">
        <pitch>
          <step>B</step>
          <alter>-1</alter>
          <octave>3</octave>
        </pitch>
        <duration>2</duration>
        <voice>1</voice>
        <type>eighth</type>
        <stem default-y="35">up</stem>
        <staff>2</staff>
        <beam number="1">continue</beam>
      </note>
      <note default-x="115">
        <pitch>
          <step>D</step>
          <alter>-1</alter>
          <octave>4</octave>
        </pitch>
        <duration>2</duration>
        <voice>1</voice>
        <type>eighth</type>
        <accidental>flat</accidental>
        <stem default-y="-79">down</stem>
        <staff>1</staff>
        <beam number="1">end</beam>
      </note>
      <note default-x="160">
        <pitch>
          <step>G</step>
          <octave>4</octave>
        </pitch>
        <duration>2</duration>
        <voice>1</voice>
        <type>eighth</type>
        <stem default-y="5">up</stem>
        <staff>1</staff>
      </note>
      <note default-x="206">
        <rest>
          <display-step>B</display-step>
          <display-octave>4</display-octave>
        </rest>
        <duration>2</duration>
        <voice>1</voice>
        <type>eighth</type>
        <staff>1</staff>
      </note>
      <note default-x="250">
        <rest>
          <display-step>B</display-step>
          <display-octave>4</display-octave>
        </rest>
        <duration>2</duration>
        <voice>1</voice>
        <type>eighth</type>
        <staff>1</staff>
      </note>
      <backup>
        <duration>12</duration>
      </backup>
      <forward>
        <duration>6</duration>
        <voice>2</voice>
        <staff>2</staff>
      </forward>
      <note default-x="160">
        <rest>
          <display-step>D</display-step>
          <display-octave>3</display-octave>
        </rest>
        <duration>6</duration>
        <voice>2</voice>
        <type>quarter</type>
        <dot/>
        <staff>2</staff>
      </note>
    </measure>
    <!--=======================================================-->
    <measure number="9" width="341">
      <print new-system="yes">
        <system-layout>
          <system-margins>
            <left-margin>-46</left-margin>
            <right-margin>2</right-margin>
          </system-margins>
          <system-distance>90</system-distance>
        </system-layout>
        <staff-layout number="2">
          <staff-distance>72</staff-distance>
        </staff-layout>
      </print>
      <attributes>
        <staff-details print-object="yes"></staff-details>
      </attributes>
      <direction placement="below">
        <direction-type>
          <dynamics default-y="-69" relative-x="2">
            <f/>
          </dynamics>
        </direction-type>
        <staff>1</staff>
        <sound dynamics="100"></sound>
      </direction>
      <note default-x="92">
        <pitch>
          <step>F</step>
          <octave>4</octave>
        </pitch>
        <duration>3</duration>
        <voice>1</voice>
        <type>eighth</type>
        <dot/>
        <stem default-y="3">up</stem>
        <staff>1</staff>
        <beam number="1">begin</beam>
        <notations>
          <slur type="start" number="1" bezier-x="27" bezier-y="-11" default-x="7" default-y="-43" placement="below"></slur>
        </notations>
      </note>
      <note default-x="146">
        <pitch>
          <step>G</step>
          <octave>4</octave>
        </pitch>
        <duration>1</duration>
        <voice>1</voice>
        <type>16th</type>
        <stem default-y="3">up</stem>
        <staff>1</staff>
        <beam number="1">continue</beam>
        <beam number="2">backward hook</beam>
      </note>
      <note default-x="178">
        <pitch>
          <step>F</step>
          <octave>4</octave>
        </pitch>
        <duration>2</duration>
        <voice>1</voice>
        <type>eighth</type>
        <stem default-y="3">up</stem>
        <staff>1</staff>
        <beam number="1">end</beam>
        <notations>
          <slur type="stop" number="1" bezier-x="-27" bezier-y="-12" default-x="7" default-y="-43"></slur>
        </notations>
      </note>
      <note default-x="224">
        <pitch>
          <step>F</step>
          <octave>4</octave>
        </pitch>
        <duration>4</duration>
        <tie type="start"></tie>
        <voice>1</voice>
        <type>quarter</type>
        <stem default-y="1">up</stem>
        <staff>1</staff>
        <notations>
          <tied type="start" orientation="under"></tied>
        </notations>
      </note>
      <note default-x="293">
        <pitch>
          <step>F</step>
          <octave>4</octave>
        </pitch>
        <duration>2</duration>
        <tie type="stop"></tie>
        <voice>1</voice>
        <type>eighth</type>
        <stem default-y="1">up</stem>
        <staff>1</staff>
        <notations>
          <tied type="stop"></tied>
        </notations>
      </note>
      <backup>
        <duration>12</duration>
      </backup>
      <note default-x="92">
        <pitch>
          <step>D</step>
          <octave>4</octave>
        </pitch>
        <duration>4</duration>
        <voice>2</voice>
        <type>quarter</type>
        <accidental>natural</accidental>
        <stem default-y="-21">down</stem>
        <staff>2</staff>
        <notations>
          <slur type="start" number="1" bezier-x="95" bezier-y="21" default-x="6" default-y="24" placement="above"></slur>
        </notations>
      </note>
      <note default-x="177">
        <pitch>
          <step>B</step>
          <alter>-1</alter>
          <octave>3</octave>
        </pitch>
        <duration>2</duration>
        <voice>2</voice>
        <type>eighth</type>
        <stem default-y="-30">down</stem>
        <staff>2</staff>
      </note>
      <note default-x="224">
        <pitch>
          <step>A</step>
          <octave>3</octave>
        </pitch>
        <duration>6</duration>
        <voice>2</voice>
        <type>quarter</type>
        <dot/>
        <stem default-y="-35">down</stem>
        <staff>2</staff>
      </note>
    </measure>
    <!--=======================================================-->
    <measure number="10" width="252">
      <note default-x="20">
        <pitch>
          <step>D</step>
          <octave>5</octave>
        </pitch>
        <duration>4</duration>
        <voice>1</voice>
        <type>quarter</type>
        <stem default-y="-43">down</stem>
        <staff>1</staff>
        <notations>
          <slur type="start" number="2" bezier-x="20" bezier-y="9" default-x="7" default-y="-1" placement="above"></slur>
        </notations>
      </note>
      <note default-x="88">
        <pitch>
          <step>C</step>
          <octave>5</octave>
        </pitch>
        <duration>2</duration>
        <voice>1</voice>
        <type>eighth</type>
        <stem default-y="-50">down</stem>
        <staff>1</staff>
        <notations>
          <slur type="stop" number="2" bezier-x="-20" bezier-y="10" default-x="6" default-y="-4"></slur>
        </notations>
      </note>
      <direction placement="below">
        <direction-type>
          <words default-y="-81" relative-x="0" font-family="serif" font-style="italic" font-size="11">dim.</words>
        </direction-type>
        <staff>1</staff>
      </direction>
      <note default-x="135">
        <pitch>
          <step>C</step>
          <octave>5</octave>
        </pitch>
        <duration>4</duration>
        <voice>1</voice>
        <type>quarter</type>
        <stem default-y="-47">down</stem>
        <staff>1</staff>
        <notations>
          <slur type="start" number="2" bezier-x="22" bezier-y="11" default-x="7" default-y="-4" placement="above"></slur>
        </notations>
      </note>
      <note default-x="205">
        <pitch>
          <step>B</step>
          <octave>4</octave>
        </pitch>
        <duration>2</duration>
        <voice>1</voice>
        <type>eighth</type>
        <accidental>natural</accidental>
        <stem default-y="-55">down</stem>
        <staff>1</staff>
        <notations>
          <slur type="stop" number="2" bezier-x="-21" bezier-y="12" default-x="6" default-y="-6"></slur>
        </notations>
      </note>
      <backup>
        <duration>12</duration>
      </backup>
      <direction placement="below">
        <direction-type>
          <words default-y="-151" relative-x="31" font-family="serif" font-style="italic" font-size="11">espressivo</words>
        </direction-type>
        <staff>2</staff>
      </direction>
      <note default-x="19">
        <pitch>
          <step>A</step>
          <alter>-1</alter>
          <octave>3</octave>
        </pitch>
        <duration>6</duration>
        <voice>2</voice>
        <type>quarter</type>
        <dot/>
        <accidental>flat</accidental>
        <stem default-y="-34">down</stem>
        <staff>2</staff>
      </note>
      <note default-x="135">
        <pitch>
          <step>G</step>
          <octave>3</octave>
        </pitch>
        <duration>6</duration>
        <voice>2</voice>
        <type>quarter</type>
        <dot/>
        <stem default-y="-40">down</stem>
        <staff>2</staff>
        <notations>
          <slur type="stop" number="1" bezier-x="-95" bezier-y="26" default-x="6" default-y="5"></slur>
        </notations>
      </note>
    </measure>
    <!--=======================================================-->
    <measure number="11" width="264">
      <note default-x="14">
        <pitch>
          <step>C</step>
          <octave>5</octave>
        </pitch>
        <duration>4</duration>
        <voice>1</voice>
        <type>quarter</type>
        <stem default-y="-47">down</stem>
        <staff>1</staff>
        <notations>
          <slur type="start" number="1" bezier-x="22" bezier-y="10" default-x="7" default-y="-3" placement="above"></slur>
        </notations>
      </note>
      <note default-x="83">
        <pitch>
          <step>G</step>
          <octave>4</octave>
        </pitch>
        <duration>2</duration>
        <voice>1</voice>
        <type>eighth</type>
        <stem default-y="5">up</stem>
        <staff>1</staff>
        <notations>
          <slur type="stop" number="1" bezier-x="-22" bezier-y="11" default-x="6" default-y="-5"></slur>
        </notations>
      </note>
      <note default-x="131">
        <pitch>
          <step>A</step>
          <octave>4</octave>
        </pitch>
        <duration>3</duration>
        <voice>1</voice>
        <type>eighth</type>
        <dot/>
        <stem default-y="10">up</stem>
        <staff>1</staff>
        <beam number="1">begin</beam>
        <notations>
          <slur type="start" number="1" bezier-x="25" bezier-y="-13" default-x="7" default-y="-34" placement="below"></slur>
        </notations>
      </note>
      <note default-x="185">
        <pitch>
          <step>G</step>
          <octave>4</octave>
        </pitch>
        <duration>1</duration>
        <voice>1</voice>
        <type>16th</type>
        <stem default-y="10">up</stem>
        <staff>1</staff>
        <beam number="1">continue</beam>
        <beam number="2">backward hook</beam>
      </note>
      <note default-x="217">
        <pitch>
          <step>A</step>
          <octave>4</octave>
        </pitch>
        <duration>2</duration>
        <voice>1</voice>
        <type>eighth</type>
        <stem default-y="10">up</stem>
        <staff>1</staff>
        <beam number="1">end</beam>
        <notations>
          <slur type="stop" number="1" bezier-x="-26" bezier-y="-13" default-x="7" default-y="-34"></slur>
        </notations>
      </note>
      <backup>
        <duration>12</duration>
      </backup>
      <note default-x="14">
        <pitch>
          <step>E</step>
          <alter>-1</alter>
          <octave>4</octave>
        </pitch>
        <duration>6</duration>
        <voice>2</voice>
        <type>quarter</type>
        <dot/>
        <stem default-y="-21">down</stem>
        <staff>2</staff>
        <notations>
          <slur type="start" number="1" bezier-x="58" bezier-y="18" default-x="7" default-y="28" placement="above"></slur>
        </notations>
      </note>
      <note default-x="130">
        <pitch>
          <step>F</step>
          <octave>4</octave>
        </pitch>
        <duration>4</duration>
        <voice>2</voice>
        <type>quarter</type>
        <stem default-y="-20">down</stem>
        <staff>2</staff>
      </note>
      <note default-x="216">
        <pitch>
          <step>E</step>
          <alter>-1</alter>
          <octave>4</octave>
        </pitch>
        <duration>2</duration>
        <voice>2</voice>
        <type>eighth</type>
        <stem default-y="-20">down</stem>
        <staff>2</staff>
      </note>
    </measure>
    <!--=======================================================-->
    <measure number="12" width="206">
      <direction placement="below">
        <direction-type>
          <dynamics default-y="-68" relative-x="-4">
            <p/>
          </dynamics>
        </direction-type>
        <staff>1</staff>
        <sound dynamics="56"></sound>
      </direction>
      <note default-x="15">
        <pitch>
          <step>B</step>
          <alter>-1</alter>
          <octave>4</octave>
        </pitch>
        <duration>12</duration>
        <voice>1</voice>
        <type>half</type>
        <dot/>
        <stem default-y="-52">down</stem>
        <staff>1</staff>
      </note>
      <backup>
        <duration>12</duration>
      </backup>
      <note default-x="14">
        <pitch>
          <step>D</step>
          <octave>4</octave>
        </pitch>
        <duration>6</duration>
        <voice>2</voice>
        <type>quarter</type>
        <dot/>
        <stem default-y="-21">down</stem>
        <staff>2</staff>
        <notations>
          <slur type="stop" number="1" bezier-x="-61" bezier-y="22" default-x="6" default-y="23"></slur>
        </notations>
      </note>
      <note default-x="108">
        <pitch>
          <step>B</step>
          <alter>-1</alter>
          <octave>2</octave>
        </pitch>
        <duration>6</duration>
        <voice>2</voice>
        <type>quarter</type>
        <dot/>
        <stem default-y="4">up</stem>
        <staff>2</staff>
      </note>
      <barline location="right">
        <bar-style>light-heavy</bar-style>
      </barline>
    </measure>
  </part>
</score-partwise>