<?xml version="1.0" encoding="UTF-8"?>
<!DOCTYPE score-partwise PUBLIC "-//Recordare//DTD MusicXML 3.0.1 Partwise//EN" "http://www.musicxml.org/dtds/partwise.dtd">
<score-partwise version="3.0.1">
  <identification>
    <rights>AB 3395</rights>
    <encoding>
      <software>Audiveris 5.0.0</software>
      <supports type="yes" element="print" attribute="new-system" value="yes"></supports>
      <supports type="yes" element="print" attribute="new-page" value="yes"></supports>
      <software>ProxyMusic 3.0.1.8e1a2c5</software>
      <encoding-date>2017-07-18</encoding-date>
    </encoding>
    <source>/Users/mb/Desktop/Janis.so/06_qmul/BB/06_grade_pdfs/AB-Sight-Reading-2.pdf</source>
    <miscellaneous>
      <miscellaneous-field name="source-file">/Users/mb/Desktop/Janis.so/06_qmul/BB/06_grade_pdfs/AB-Sight-Reading-2.pdf</miscellaneous-field>
      <miscellaneous-field name="source-sheet-7">1 2 3 4 5</miscellaneous-field>
    </miscellaneous>
  </identification>
  <defaults>
    <scaling>
      <millimeters>7.1120</millimeters>
      <tenths>40</tenths>
    </scaling>
    <page-layout>
      <page-height>1670</page-height>
      <page-width>1214</page-width>
      <page-margins type="both">
        <left-margin>80</left-margin>
        <right-margin>80</right-margin>
        <top-margin>80</top-margin>
        <bottom-margin>80</bottom-margin>
      </page-margins>
    </page-layout>
    <lyric-font font-family="Serif" font-size="10"></lyric-font>
  </defaults>
  <credit page="1">
    <credit-words default-x="270" default-y="1576" font-family="serif" font-size="8">3</credit-words>
  </credit>
  <credit page="1">
    <credit-words default-x="583" default-y="18" font-family="serif" font-size="10">AB 3395</credit-words>
  </credit>
  <part-list>
    <score-part id="P1">
      <part-name>31</part-name>
      <score-instrument id="P1-I1">
        <instrument-name>Acoustic Grand Piano</instrument-name>
      </score-instrument>
      <midi-instrument id="P1-I1">
        <midi-channel>1</midi-channel>
        <midi-program>1</midi-program>
        <volume>78</volume>
      </midi-instrument>
    </score-part>
  </part-list>
  <!--= = = = = = = = = = = = = = = = = = = = = = = = = = = = =-->
  <part id="P1">
    <!--=======================================================-->
    <measure number="1" width="242">
      <print>
        <system-layout>
          <system-margins>
            <left-margin>85</left-margin>
            <right-margin>-29</right-margin>
          </system-margins>
          <top-system-distance>20</top-system-distance>
        </system-layout>
        <staff-layout number="2">
          <staff-distance>76</staff-distance>
        </staff-layout>
        <measure-numbering>system</measure-numbering>
      </print>
      <attributes>
        <divisions>2</divisions>
        <key>
          <fifths>1</fifths>
        </key>
        <time>
          <beats>2</beats>
          <beat-type>4</beat-type>
        </time>
        <staves>2</staves>
        <clef number="1">
          <sign>G</sign>
          <line>2</line>
        </clef>
        <clef number="2">
          <sign>F</sign>
          <line>4</line>
        </clef>
        <staff-details print-object="yes"></staff-details>
      </attributes>
      <direction>
        <direction-type>
          <words></words>
        </direction-type>
        <sound tempo="120"></sound>
      </direction>
      <direction placement="below">
        <direction-type>
          <dynamics default-y="-83" relative-x="5">
            <f/>
          </dynamics>
        </direction-type>
        <staff>1</staff>
        <sound dynamics="100"></sound>
      </direction>
      <direction placement="above">
        <direction-type>
          <words default-y="29" relative-x="-40" font-family="serif" font-size="13">Lively</words>
        </direction-type>
        <staff>1</staff>
      </direction>
      <note default-x="103">
        <pitch>
          <step>B</step>
          <octave>4</octave>
        </pitch>
        <duration>1</duration>
        <voice>1</voice>
        <type>eighth</type>
        <stem default-y="-54">down</stem>
        <staff>1</staff>
        <beam number="1">begin</beam>
      </note>
      <note default-x="140">
        <pitch>
          <step>C</step>
          <octave>5</octave>
        </pitch>
        <duration>1</duration>
        <voice>1</voice>
        <type>eighth</type>
        <stem default-y="-49">down</stem>
        <staff>1</staff>
        <beam number="1">end</beam>
      </note>
      <note default-x="178">
        <pitch>
          <step>D</step>
          <octave>5</octave>
        </pitch>
        <duration>2</duration>
        <voice>1</voice>
        <type>quarter</type>
        <stem default-y="-44">down</stem>
        <staff>1</staff>
      </note>
      <backup>
        <duration>4</duration>
      </backup>
      <note default-x="103">
        <pitch>
          <step>G</step>
          <octave>3</octave>
        </pitch>
        <duration>4</duration>
        <voice>2</voice>
        <type>half</type>
        <stem default-y="-40">down</stem>
        <staff>2</staff>
      </note>
    </measure>
    <!--=======================================================-->
    <measure number="2" width="155">
      <note default-x="15">
        <pitch>
          <step>A</step>
          <octave>4</octave>
        </pitch>
        <duration>4</duration>
        <voice>1</voice>
        <type>half</type>
        <stem default-y="10">up</stem>
        <staff>1</staff>
      </note>
      <backup>
        <duration>4</duration>
      </backup>
      <note default-x="15">
        <pitch>
          <step>F</step>
          <alter>1</alter>
          <octave>3</octave>
        </pitch>
        <duration>1</duration>
        <voice>2</voice>
        <type>eighth</type>
        <stem default-y="-44">down</stem>
        <staff>2</staff>
        <beam number="1">begin</beam>
      </note>
      <note default-x="52">
        <pitch>
          <step>E</step>
          <octave>3</octave>
        </pitch>
        <duration>1</duration>
        <voice>2</voice>
        <type>eighth</type>
        <stem default-y="-49">down</stem>
        <staff>2</staff>
        <beam number="1">end</beam>
      </note>
      <note default-x="90">
        <pitch>
          <step>D</step>
          <octave>3</octave>
        </pitch>
        <duration>2</duration>
        <voice>2</voice>
        <type>quarter</type>
        <stem default-y="-54">down</stem>
        <staff>2</staff>
      </note>
    </measure>
    <!--=======================================================-->
    <measure number="3" width="163">
      <note default-x="15">
        <pitch>
          <step>G</step>
          <octave>4</octave>
        </pitch>
        <duration>1</duration>
        <voice>1</voice>
        <type>eighth</type>
        <stem default-y="15">up</stem>
        <staff>1</staff>
        <beam number="1">begin</beam>
      </note>
      <note default-x="52">
        <pitch>
          <step>B</step>
          <octave>4</octave>
        </pitch>
        <duration>1</duration>
        <voice>1</voice>
        <type>eighth</type>
        <stem default-y="14">up</stem>
        <staff>1</staff>
        <beam number="1">continue</beam>
      </note>
      <note default-x="90">
        <pitch>
          <step>A</step>
          <octave>4</octave>
        </pitch>
        <duration>1</duration>
        <voice>1</voice>
        <type>eighth</type>
        <stem default-y="15">up</stem>
        <staff>1</staff>
        <beam number="1">continue</beam>
      </note>
      <note default-x="127">
        <pitch>
          <step>G</step>
          <octave>4</octave>
        </pitch>
        <duration>1</duration>
        <voice>1</voice>
        <type>eighth</type>
        <stem default-y="14">up</stem>
        <staff>1</staff>
        <beam number="1">end</beam>
      </note>
      <backup>
        <duration>4</duration>
      </backup>
      <note default-x="15">
        <pitch>
          <step>E</step>
          <octave>3</octave>
        </pitch>
        <duration>4</duration>
        <voice>2</voice>
        <type>half</type>
        <stem default-y="-49">down</stem>
        <staff>2</staff>
      </note>
    </measure>
    <!--=======================================================-->
    <measure number="4" width="155">
      <direction placement="below">
        <direction-type>
          <wedge type="crescendo" spread="0" default-x="11" default-y="-78"></wedge>
        </direction-type>
        <staff>1</staff>
      </direction>
      <note default-x="15">
        <pitch>
          <step>D</step>
          <octave>5</octave>
        </pitch>
        <duration>3</duration>
        <voice>1</voice>
        <type>quarter</type>
        <dot/>
        <stem default-y="-44">down</stem>
        <staff>1</staff>
      </note>
      <direction>
        <direction-type>
          <wedge type="stop" spread="12" default-x="9"></wedge>
        </direction-type>
        <staff>1</staff>
      </direction>
      <note default-x="119">
        <pitch>
          <step>C</step>
          <octave>5</octave>
        </pitch>
        <duration>1</duration>
        <voice>1</voice>
        <type>eighth</type>
        <stem default-y="-50">down</stem>
        <staff>1</staff>
      </note>
      <backup>
        <duration>4</duration>
      </backup>
      <note default-x="16">
        <pitch>
          <step>D</step>
          <octave>3</octave>
        </pitch>
        <duration>1</duration>
        <voice>2</voice>
        <type>eighth</type>
        <stem default-y="-52">down</stem>
        <staff>2</staff>
        <beam number="1">begin</beam>
      </note>
      <note default-x="53">
        <pitch>
          <step>E</step>
          <octave>3</octave>
        </pitch>
        <duration>1</duration>
        <voice>2</voice>
        <type>eighth</type>
        <stem default-y="-47">down</stem>
        <staff>2</staff>
        <beam number="1">end</beam>
      </note>
      <note default-x="90">
        <pitch>
          <step>F</step>
          <alter>1</alter>
          <octave>3</octave>
        </pitch>
        <duration>2</duration>
        <voice>2</voice>
        <type>quarter</type>
        <stem default-y="-44">down</stem>
        <staff>2</staff>
      </note>
    </measure>
    <!--=======================================================-->
    <measure number="5" width="155">
      <direction placement="below">
        <direction-type>
          <dynamics default-y="-76" relative-x="-6">
            <f/>
          </dynamics>
        </direction-type>
        <staff>1</staff>
        <sound dynamics="100"></sound>
      </direction>
      <note default-x="15">
        <pitch>
          <step>B</step>
          <octave>4</octave>
        </pitch>
        <duration>1</duration>
        <voice>1</voice>
        <type>eighth</type>
        <stem default-y="15">up</stem>
        <staff>1</staff>
        <beam number="1">begin</beam>
      </note>
      <note default-x="52">
        <pitch>
          <step>G</step>
          <octave>4</octave>
        </pitch>
        <duration>1</duration>
        <voice>1</voice>
        <type>eighth</type>
        <stem default-y="8">up</stem>
        <staff>1</staff>
        <beam number="1">end</beam>
      </note>
      <note default-x="90">
        <pitch>
          <step>A</step>
          <octave>4</octave>
        </pitch>
        <duration>2</duration>
        <voice>1</voice>
        <type>quarter</type>
        <stem default-y="10">up</stem>
        <staff>1</staff>
      </note>
      <backup>
        <duration>4</duration>
      </backup>
      <note default-x="16">
        <pitch>
          <step>G</step>
          <octave>3</octave>
        </pitch>
        <duration>2</duration>
        <voice>2</voice>
        <type>quarter</type>
        <stem default-y="-40">down</stem>
        <staff>2</staff>
      </note>
      <note default-x="90">
        <pitch>
          <step>D</step>
          <octave>3</octave>
        </pitch>
        <duration>2</duration>
        <voice>2</voice>
        <type>quarter</type>
        <stem default-y="-54">down</stem>
        <staff>2</staff>
      </note>
    </measure>
    <!--=======================================================-->
    <measure number="6" width="126">
      <note default-x="15">
        <pitch>
          <step>G</step>
          <octave>4</octave>
        </pitch>
        <duration>4</duration>
        <voice>1</voice>
        <type>half</type>
        <stem default-y="5">up</stem>
        <staff>1</staff>
      </note>
      <backup>
        <duration>4</duration>
      </backup>
      <note default-x="16">
        <pitch>
          <step>G</step>
          <octave>3</octave>
        </pitch>
        <duration>4</duration>
        <voice>2</voice>
        <type>half</type>
        <stem default-y="-40">down</stem>
        <staff>2</staff>
      </note>
      <barline location="right">
        <bar-style>light-heavy</bar-style>
      </barline>
    </measure>
    <!--=======================================================-->
    <measure number="7" width="310">
      <print new-system="yes">
        <system-layout>
          <system-margins>
            <left-margin>82</left-margin>
            <right-margin>-26</right-margin>
          </system-margins>
          <system-distance>174</system-distance>
        </system-layout>
        <staff-layout number="2">
          <staff-distance>77</staff-distance>
        </staff-layout>
      </print>
      <attributes>
        <time>
          <beats>4</beats>
          <beat-type>4</beat-type>
        </time>
        <staff-details print-object="yes"></staff-details>
      </attributes>
      <note default-x="101">
        <rest>
          <display-step>B</display-step>
          <display-octave>4</display-octave>
        </rest>
        <duration>2</duration>
        <voice>1</voice>
        <type>quarter</type>
        <staff>1</staff>
      </note>
      <note default-x="156">
        <pitch>
          <step>B</step>
          <octave>4</octave>
        </pitch>
        <duration>1</duration>
        <voice>1</voice>
        <type>eighth</type>
        <stem default-y="15">up</stem>
        <staff>1</staff>
        <beam number="1">begin</beam>
        <notations>
          <slur type="start" number="1" bezier-x="14" bezier-y="-17" default-x="8" default-y="-32" placement="below"></slur>
        </notations>
      </note>
      <note default-x="186">
        <pitch>
          <step>A</step>
          <octave>4</octave>
        </pitch>
        <duration>1</duration>
        <voice>1</voice>
        <type>eighth</type>
        <stem default-y="10">up</stem>
        <staff>1</staff>
        <beam number="1">end</beam>
      </note>
      <note default-x="218">
        <pitch>
          <step>G</step>
          <octave>4</octave>
        </pitch>
        <duration>4</duration>
        <voice>1</voice>
        <type>half</type>
        <stem default-y="5">up</stem>
        <staff>1</staff>
        <notations>
          <slur type="stop" number="1" bezier-x="-19" bezier-y="-12" default-x="4" default-y="-42"></slur>
        </notations>
      </note>
      <backup>
        <duration>8</duration>
      </backup>
      <direction placement="above">
        <direction-type>
          <dynamics default-y="34" relative-x="-9">
            <p/>
          </dynamics>
        </direction-type>
        <staff>2</staff>
        <sound dynamics="56"></sound>
      </direction>
      <note default-x="102">
        <pitch>
          <step>G</step>
          <octave>2</octave>
        </pitch>
        <duration>6</duration>
        <voice>2</voice>
        <type>half</type>
        <dot/>
        <stem default-y="-5">up</stem>
        <staff>2</staff>
      </note>
      <note default-x="258">
        <pitch>
          <step>B</step>
          <octave>2</octave>
        </pitch>
        <duration>2</duration>
        <voice>2</voice>
        <type>quarter</type>
        <stem default-y="5">up</stem>
        <staff>2</staff>
      </note>
    </measure>
    <!--=======================================================-->
    <measure number="8" width="224">
      <direction placement="below">
        <direction-type>
          <wedge type="crescendo" spread="0" default-x="11" default-y="-77"></wedge>
        </direction-type>
        <staff>1</staff>
      </direction>
      <note default-x="15">
        <rest>
          <display-step>B</display-step>
          <display-octave>4</display-octave>
        </rest>
        <duration>2</duration>
        <voice>1</voice>
        <type>quarter</type>
        <staff>1</staff>
      </note>
      <note default-x="69">
        <pitch>
          <step>C</step>
          <octave>5</octave>
        </pitch>
        <duration>1</duration>
        <voice>1</voice>
        <type>eighth</type>
        <stem default-y="-49">down</stem>
        <staff>1</staff>
        <beam number="1">begin</beam>
        <notations>
          <slur type="start" number="1" bezier-x="16" bezier-y="12" default-x="9" default-y="-2" placement="above"></slur>
        </notations>
      </note>
      <note default-x="100">
        <pitch>
          <step>B</step>
          <octave>4</octave>
        </pitch>
        <duration>1</duration>
        <voice>1</voice>
        <type>eighth</type>
        <stem default-y="-54">down</stem>
        <staff>1</staff>
        <beam number="1">end</beam>
      </note>
      <direction>
        <direction-type>
          <wedge type="stop" spread="11" default-x="76"></wedge>
        </direction-type>
        <staff>1</staff>
      </direction>
      <note default-x="130">
        <pitch>
          <step>A</step>
          <octave>4</octave>
        </pitch>
        <duration>4</duration>
        <voice>1</voice>
        <type>half</type>
        <stem default-y="10">up</stem>
        <staff>1</staff>
        <notations>
          <slur type="stop" number="1" bezier-x="-17" bezier-y="11" default-x="1" default-y="0"></slur>
        </notations>
      </note>
      <backup>
        <duration>8</duration>
      </backup>
      <note default-x="15">
        <pitch>
          <step>A</step>
          <octave>2</octave>
        </pitch>
        <duration>6</duration>
        <voice>2</voice>
        <type>half</type>
        <dot/>
        <stem default-y="0">up</stem>
        <staff>2</staff>
      </note>
      <note default-x="171">
        <pitch>
          <step>C</step>
          <octave>3</octave>
        </pitch>
        <duration>2</duration>
        <voice>2</voice>
        <type>quarter</type>
        <stem default-y="10">up</stem>
        <staff>2</staff>
      </note>
    </measure>
    <!--=======================================================-->
    <measure number="9" width="237">
      <note default-x="14">
        <rest>
          <display-step>B</display-step>
          <display-octave>4</display-octave>
        </rest>
        <duration>2</duration>
        <voice>1</voice>
        <type>quarter</type>
        <staff>1</staff>
      </note>
      <direction placement="below">
        <direction-type>
          <wedge type="diminuendo" spread="11" default-x="15" default-y="-78"></wedge>
        </direction-type>
        <staff>1</staff>
      </direction>
      <note default-x="69">
        <pitch>
          <step>D</step>
          <octave>5</octave>
        </pitch>
        <duration>2</duration>
        <voice>1</voice>
        <type>quarter</type>
        <stem default-y="-45">down</stem>
        <staff>1</staff>
        <notations>
          <slur type="start" number="1" bezier-x="46" bezier-y="36" default-x="9" default-y="6" placement="above"></slur>
        </notations>
      </note>
      <note default-x="124">
        <pitch>
          <step>C</step>
          <octave>5</octave>
        </pitch>
        <duration>2</duration>
        <voice>1</voice>
        <type>quarter</type>
        <stem default-y="-49">down</stem>
        <staff>1</staff>
      </note>
      <note default-x="177">
        <pitch>
          <step>A</step>
          <octave>4</octave>
        </pitch>
        <duration>1</duration>
        <voice>1</voice>
        <type>eighth</type>
        <stem default-y="10">up</stem>
        <staff>1</staff>
        <beam number="1">begin</beam>
      </note>
      <direction>
        <direction-type>
          <wedge type="stop" spread="0" default-x="10"></wedge>
        </direction-type>
        <staff>1</staff>
      </direction>
      <note default-x="208">
        <pitch>
          <step>B</step>
          <octave>4</octave>
        </pitch>
        <duration>1</duration>
        <voice>1</voice>
        <type>eighth</type>
        <stem default-y="14">up</stem>
        <staff>1</staff>
        <beam number="1">end</beam>
      </note>
      <backup>
        <duration>8</duration>
      </backup>
      <direction placement="above">
        <direction-type>
          <dynamics default-y="38" relative-x="9">
            <f/>
          </dynamics>
        </direction-type>
        <staff>2</staff>
        <sound dynamics="100"></sound>
      </direction>
      <note default-x="15">
        <pitch>
          <step>B</step>
          <octave>2</octave>
        </pitch>
        <duration>4</duration>
        <voice>2</voice>
        <type>half</type>
        <stem default-y="5">up</stem>
        <staff>2</staff>
      </note>
      <note default-x="123">
        <pitch>
          <step>D</step>
          <octave>3</octave>
        </pitch>
        <duration>4</duration>
        <voice>2</voice>
        <type>half</type>
        <stem default-y="-55">down</stem>
        <staff>2</staff>
      </note>
    </measure>
    <!--=======================================================-->
    <measure number="10" width="224">
      <direction placement="below">
        <direction-type>
          <dynamics default-y="-79" relative-x="-4">
            <p/>
          </dynamics>
        </direction-type>
        <staff>1</staff>
        <sound dynamics="56"></sound>
      </direction>
      <note default-x="15">
        <pitch>
          <step>G</step>
          <octave>4</octave>
        </pitch>
        <duration>8</duration>
        <voice>1</voice>
        <type>whole</type>
        <staff>1</staff>
        <notations>
          <slur type="stop" number="1" bezier-x="-39" bezier-y="46" default-x="7" default-y="-6"></slur>
        </notations>
      </note>
      <backup>
        <duration>8</duration>
      </backup>
      <note default-x="15">
        <pitch>
          <step>B</step>
          <octave>2</octave>
        </pitch>
        <duration>2</duration>
        <voice>2</voice>
        <type>quarter</type>
        <stem default-y="5">up</stem>
        <staff>2</staff>
      </note>
      <note default-x="69">
        <pitch>
          <step>C</step>
          <octave>3</octave>
        </pitch>
        <duration>1</duration>
        <voice>2</voice>
        <type>eighth</type>
        <stem default-y="13">up</stem>
        <staff>2</staff>
        <beam number="1">begin</beam>
        <notations>
          <slur type="start" number="1" bezier-x="13" bezier-y="-20" default-x="8" default-y="-34" placement="below"></slur>
        </notations>
      </note>
      <note default-x="100">
        <pitch>
          <step>A</step>
          <octave>2</octave>
        </pitch>
        <duration>1</duration>
        <voice>2</voice>
        <type>eighth</type>
        <stem default-y="7">up</stem>
        <staff>2</staff>
        <beam number="1">end</beam>
      </note>
      <note default-x="131">
        <pitch>
          <step>G</step>
          <octave>2</octave>
        </pitch>
        <duration>4</duration>
        <voice>2</voice>
        <type>half</type>
        <stem default-y="-5">up</stem>
        <staff>2</staff>
        <notations>
          <slur type="stop" number="1" bezier-x="-21" bezier-y="-10" default-x="4" default-y="-49"></slur>
        </notations>
      </note>
      <barline location="right">
        <bar-style>light-heavy</bar-style>
      </barline>
    </measure>
    <!--=======================================================-->
    <measure number="11" width="256">
      <print new-system="yes">
        <system-layout>
          <system-margins>
            <left-margin>80</left-margin>
            <right-margin>-23</right-margin>
          </system-margins>
          <system-distance>174</system-distance>
        </system-layout>
        <staff-layout number="2">
          <staff-distance>76</staff-distance>
        </staff-layout>
      </print>
      <attributes>
        <key>
          <fifths>-1</fifths>
        </key>
        <time>
          <beats>2</beats>
          <beat-type>4</beat-type>
        </time>
        <staff-details print-object="yes"></staff-details>
      </attributes>
      <direction placement="below">
        <direction-type>
          <dynamics default-y="-74" relative-x="-10">
            <f/>
          </dynamics>
        </direction-type>
        <staff>1</staff>
        <sound dynamics="100"></sound>
      </direction>
      <note default-x="100">
        <pitch>
          <step>F</step>
          <octave>4</octave>
        </pitch>
        <duration>4</duration>
        <voice>1</voice>
        <type>half</type>
        <stem default-y="1">up</stem>
        <staff>1</staff>
      </note>
      <backup>
        <duration>4</duration>
      </backup>
      <direction placement="below">
        <direction-type>
          <pedal type="start" line="no" halign="left" default-x="70" default-y="-170"></pedal>
        </direction-type>
        <staff>2</staff>
        <sound damper-pedal="yes"></sound>
      </direction>
      <note default-x="99">
        <pitch>
          <step>A</step>
          <octave>3</octave>
        </pitch>
        <duration>2</duration>
        <voice>2</voice>
        <type>quarter</type>
        <stem default-y="-35">down</stem>
        <staff>2</staff>
        <notations>
          <slur type="start" number="1" bezier-x="41" bezier-y="26" default-x="9" default-y="9" placement="above"></slur>
        </notations>
      </note>
      <note default-x="173">
        <pitch>
          <step>F</step>
          <octave>3</octave>
        </pitch>
        <duration>1</duration>
        <voice>2</voice>
        <type>eighth</type>
        <stem default-y="-42">down</stem>
        <staff>2</staff>
        <beam number="1">begin</beam>
      </note>
      <note default-x="215">
        <pitch>
          <step>A</step>
          <octave>3</octave>
        </pitch>
        <duration>1</duration>
        <voice>2</voice>
        <type>eighth</type>
        <stem default-y="-40">down</stem>
        <staff>2</staff>
        <beam number="1">end</beam>
      </note>
    </measure>
    <!--=======================================================-->
    <measure number="12" width="124">
      <note default-x="14">
        <pitch>
          <step>G</step>
          <octave>4</octave>
        </pitch>
        <duration>4</duration>
        <voice>1</voice>
        <type>half</type>
        <stem default-y="5">up</stem>
        <staff>1</staff>
      </note>
      <backup>
        <duration>4</duration>
      </backup>
      <note default-x="15">
        <pitch>
          <step>C</step>
          <octave>4</octave>
        </pitch>
        <duration>4</duration>
        <voice>2</voice>
        <type>half</type>
        <stem default-y="-24">down</stem>
        <staff>2</staff>
        <notations>
          <slur type="stop" number="1" bezier-x="-44" bezier-y="21" default-x="5" default-y="18"></slur>
        </notations>
      </note>
    </measure>
    <!--=======================================================-->
    <measure number="13" width="171">
      <note default-x="15">
        <pitch>
          <step>A</step>
          <octave>4</octave>
        </pitch>
        <duration>2</duration>
        <voice>1</voice>
        <type>quarter</type>
        <stem default-y="10">up</stem>
        <staff>1</staff>
        <notations>
          <slur type="start" number="1" bezier-x="39" bezier-y="29" default-x="18" default-y="-6" placement="above"></slur>
        </notations>
      </note>
      <note default-x="89">
        <pitch>
          <step>F</step>
          <octave>4</octave>
        </pitch>
        <duration>1</duration>
        <voice>1</voice>
        <type>eighth</type>
        <stem default-y="5">up</stem>
        <staff>1</staff>
        <beam number="1">begin</beam>
      </note>
      <note default-x="131">
        <pitch>
          <step>A</step>
          <octave>4</octave>
        </pitch>
        <duration>1</duration>
        <voice>1</voice>
        <type>eighth</type>
        <stem default-y="10">up</stem>
        <staff>1</staff>
        <beam number="1">end</beam>
      </note>
      <backup>
        <duration>4</duration>
      </backup>
      <note default-x="15">
        <pitch>
          <step>F</step>
          <octave>3</octave>
        </pitch>
        <duration>4</duration>
        <voice>2</voice>
        <type>half</type>
        <stem default-y="-44">down</stem>
        <staff>2</staff>
      </note>
    </measure>
    <!--=======================================================-->
    <measure number="14" width="124">
      <note default-x="15">
        <pitch>
          <step>C</step>
          <octave>5</octave>
        </pitch>
        <duration>4</duration>
        <voice>1</voice>
        <type>half</type>
        <stem default-y="-49">down</stem>
        <staff>1</staff>
        <notations>
          <slur type="stop" number="1" bezier-x="-39" bezier-y="29" default-x="4" default-y="-4"></slur>
        </notations>
      </note>
      <backup>
        <duration>4</duration>
      </backup>
      <note default-x="15">
        <pitch>
          <step>A</step>
          <octave>3</octave>
        </pitch>
        <duration>4</duration>
        <voice>2</voice>
        <type>half</type>
        <stem default-y="-34">down</stem>
        <staff>2</staff>
      </note>
    </measure>
    <!--=======================================================-->
    <measure number="15" width="182">
      <direction placement="below">
        <direction-type>
          <dynamics default-y="-74" relative-x="-4">
            <p/>
          </dynamics>
        </direction-type>
        <staff>1</staff>
        <sound dynamics="56"></sound>
      </direction>
      <note default-x="15">
        <pitch>
          <step>B</step>
          <alter>-1</alter>
          <octave>4</octave>
        </pitch>
        <duration>1</duration>
        <voice>1</voice>
        <type>eighth</type>
        <stem default-y="15">up</stem>
        <staff>1</staff>
        <beam number="1">begin</beam>
        <notations>
          <slur type="start" number="1" bezier-x="44" bezier-y="-27" default-x="8" default-y="-32" placement="below"></slur>
        </notations>
      </note>
      <note default-x="58">
        <pitch>
          <step>A</step>
          <octave>4</octave>
        </pitch>
        <duration>1</duration>
        <voice>1</voice>
        <type>eighth</type>
        <stem default-y="15">up</stem>
        <staff>1</staff>
        <beam number="1">continue</beam>
      </note>
      <note default-x="99">
        <pitch>
          <step>B</step>
          <alter>-1</alter>
          <octave>4</octave>
        </pitch>
        <duration>1</duration>
        <voice>1</voice>
        <type>eighth</type>
        <stem default-y="15">up</stem>
        <staff>1</staff>
        <beam number="1">continue</beam>
      </note>
      <note default-x="141">
        <pitch>
          <step>G</step>
          <octave>4</octave>
        </pitch>
        <duration>1</duration>
        <voice>1</voice>
        <type>eighth</type>
        <stem default-y="15">up</stem>
        <staff>1</staff>
        <beam number="1">end</beam>
      </note>
      <backup>
        <duration>4</duration>
      </backup>
      <note default-x="15">
        <pitch>
          <step>B</step>
          <alter>-1</alter>
          <octave>3</octave>
        </pitch>
        <duration>2</duration>
        <voice>2</voice>
        <type>quarter</type>
        <stem default-y="-30">down</stem>
        <staff>2</staff>
      </note>
      <note default-x="99">
        <pitch>
          <step>C</step>
          <octave>4</octave>
        </pitch>
        <duration>2</duration>
        <voice>2</voice>
        <type>quarter</type>
        <stem default-y="-25">down</stem>
        <staff>2</staff>
      </note>
    </measure>
    <!--=======================================================-->
    <measure number="16" width="138">
      <note default-x="15">
        <pitch>
          <step>F</step>
          <octave>4</octave>
        </pitch>
        <duration>4</duration>
        <voice>1</voice>
        <type>half</type>
        <stem default-y="0">up</stem>
        <staff>1</staff>
        <notations>
          <slur type="stop" number="1" bezier-x="-49" bezier-y="-20" default-x="4" default-y="-43"></slur>
        </notations>
      </note>
      <backup>
        <duration>4</duration>
      </backup>
      <note default-x="14">
        <pitch>
          <step>F</step>
          <octave>3</octave>
        </pitch>
        <duration>2</duration>
        <voice>2</voice>
        <type>quarter</type>
        <stem default-y="-44">down</stem>
        <staff>2</staff>
      </note>
      <barline location="right">
        <bar-style>light-heavy</bar-style>
      </barline>
    </measure>
    <!--=======================================================-->
    <measure number="17" width="340">
      <print new-system="yes">
        <system-layout>
          <system-margins>
            <left-margin>77</left-margin>
            <right-margin>-20</right-margin>
          </system-margins>
          <system-distance>174</system-distance>
        </system-layout>
        <staff-layout number="2">
          <staff-distance>77</staff-distance>
        </staff-layout>
      </print>
      <attributes>
        <key>
          <fifths>-2</fifths>
        </key>
        <time>
          <beats>4</beats>
          <beat-type>4</beat-type>
        </time>
        <staff-details print-object="yes"></staff-details>
      </attributes>
      <direction placement="below">
        <direction-type>
          <dynamics default-y="-78" relative-x="3">
            <f/>
          </dynamics>
        </direction-type>
        <staff>1</staff>
        <sound dynamics="100"></sound>
      </direction>
      <note default-x="111">
        <pitch>
          <step>G</step>
          <octave>5</octave>
        </pitch>
        <duration>2</duration>
        <voice>1</voice>
        <type>quarter</type>
        <stem default-y="-31">down</stem>
        <staff>1</staff>
        <notations>
          <slur type="start" number="1" bezier-x="17" bezier-y="13" default-x="7" default-y="14" placement="above"></slur>
        </notations>
      </note>
      <note default-x="168">
        <pitch>
          <step>F</step>
          <octave>5</octave>
        </pitch>
        <duration>2</duration>
        <voice>1</voice>
        <type>quarter</type>
        <stem default-y="-35">down</stem>
        <staff>1</staff>
        <notations>
          <slur type="stop" number="1" bezier-x="-14" bezier-y="16" default-x="5" default-y="10"></slur>
        </notations>
      </note>
      <note default-x="225">
        <pitch>
          <step>E</step>
          <alter>-1</alter>
          <octave>5</octave>
        </pitch>
        <duration>2</duration>
        <voice>1</voice>
        <type>quarter</type>
        <stem default-y="-40">down</stem>
        <staff>1</staff>
        <notations>
          <slur type="start" number="1" bezier-x="17" bezier-y="12" default-x="8" default-y="5" placement="above"></slur>
        </notations>
      </note>
      <note default-x="283">
        <pitch>
          <step>D</step>
          <octave>5</octave>
        </pitch>
        <duration>2</duration>
        <voice>1</voice>
        <type>quarter</type>
        <stem default-y="-45">down</stem>
        <staff>1</staff>
        <notations>
          <slur type="stop" number="1" bezier-x="-13" bezier-y="16" default-x="5" default-y="-2"></slur>
        </notations>
      </note>
      <backup>
        <duration>8</duration>
      </backup>
      <note default-x="110">
        <pitch>
          <step>G</step>
          <octave>2</octave>
        </pitch>
        <duration>4</duration>
        <voice>2</voice>
        <type>half</type>
        <stem default-y="-5">up</stem>
        <staff>2</staff>
        <notations>
          <slur type="start" number="1" bezier-x="31" bezier-y="-14" default-x="8" default-y="-48" placement="below"></slur>
        </notations>
      </note>
      <note default-x="226">
        <pitch>
          <step>B</step>
          <alter>-1</alter>
          <octave>2</octave>
        </pitch>
        <duration>4</duration>
        <voice>2</voice>
        <type>half</type>
        <stem default-y="5">up</stem>
        <staff>2</staff>
        <notations>
          <slur type="stop" number="1" bezier-x="-29" bezier-y="-19" default-x="4" default-y="-37"></slur>
        </notations>
      </note>
    </measure>
    <!--=======================================================-->
    <measure number="18" width="252">
      <note default-x="15">
        <pitch>
          <step>C</step>
          <octave>5</octave>
        </pitch>
        <duration>1</duration>
        <voice>1</voice>
        <type>eighth</type>
        <stem default-y="-52">down</stem>
        <staff>1</staff>
        <beam number="1">begin</beam>
        <notations>
          <slur type="start" number="1" bezier-x="31" bezier-y="26" default-x="7" default-y="-6" placement="above"></slur>
        </notations>
      </note>
      <note default-x="48">
        <pitch>
          <step>D</step>
          <octave>5</octave>
        </pitch>
        <duration>1</duration>
        <voice>1</voice>
        <type>eighth</type>
        <stem default-y="-47">down</stem>
        <staff>1</staff>
        <beam number="1">end</beam>
      </note>
      <note default-x="80">
        <pitch>
          <step>E</step>
          <alter>-1</alter>
          <octave>5</octave>
        </pitch>
        <duration>2</duration>
        <voice>1</voice>
        <type>quarter</type>
        <stem default-y="-40">down</stem>
        <staff>1</staff>
      </note>
      <note default-x="138">
        <pitch>
          <step>D</step>
          <octave>5</octave>
        </pitch>
        <duration>4</duration>
        <voice>1</voice>
        <type>half</type>
        <stem default-y="-45">down</stem>
        <staff>1</staff>
        <notations>
          <slur type="stop" number="1" bezier-x="-35" bezier-y="20" default-x="4" default-y="4"></slur>
        </notations>
      </note>
      <backup>
        <duration>8</duration>
      </backup>
      <note default-x="15">
        <pitch>
          <step>A</step>
          <octave>2</octave>
        </pitch>
        <duration>4</duration>
        <voice>2</voice>
        <type>half</type>
        <stem default-y="1">up</stem>
        <staff>2</staff>
      </note>
      <note default-x="138">
        <pitch>
          <step>D</step>
          <octave>3</octave>
        </pitch>
        <duration>2</duration>
        <voice>2</voice>
        <type>quarter</type>
        <stem default-y="15">up</stem>
        <staff>2</staff>
        <notations>
          <slur type="start" number="1" bezier-x="15" bezier-y="-16" default-x="7" default-y="-32" placement="below"></slur>
        </notations>
      </note>
      <note default-x="196">
        <pitch>
          <step>C</step>
          <octave>3</octave>
        </pitch>
        <duration>2</duration>
        <voice>2</voice>
        <type>quarter</type>
        <stem default-y="10">up</stem>
        <staff>2</staff>
        <notations>
          <slur type="stop" number="1" bezier-x="-17" bezier-y="-14" default-x="4" default-y="-36"></slur>
        </notations>
      </note>
    </measure>
    <!--=======================================================-->
    <measure number="19" width="260">
      <note default-x="15">
        <rest>
          <display-step>B</display-step>
          <display-octave>4</display-octave>
        </rest>
        <duration>2</duration>
        <voice>1</voice>
        <type>quarter</type>
        <staff>1</staff>
      </note>
      <direction placement="below">
        <direction-type>
          <wedge type="diminuendo" spread="11" default-x="12" default-y="-81"></wedge>
        </direction-type>
        <staff>1</staff>
      </direction>
      <note default-x="72">
        <pitch>
          <step>D</step>
          <octave>5</octave>
        </pitch>
        <duration>2</duration>
        <voice>1</voice>
        <type>quarter</type>
        <stem default-y="-45">down</stem>
        <staff>1</staff>
        <notations>
          <slur type="start" number="1" bezier-x="47" bezier-y="32" default-x="11" default-y="1" placement="above"></slur>
        </notations>
      </note>
      <note default-x="130">
        <pitch>
          <step>C</step>
          <octave>5</octave>
        </pitch>
        <duration>1</duration>
        <voice>1</voice>
        <type>eighth</type>
        <stem default-y="-50">down</stem>
        <staff>1</staff>
        <beam number="1">begin</beam>
      </note>
      <note default-x="162">
        <pitch>
          <step>D</step>
          <octave>5</octave>
        </pitch>
        <duration>1</duration>
        <voice>1</voice>
        <type>eighth</type>
        <stem default-y="-50">down</stem>
        <staff>1</staff>
        <beam number="1">continue</beam>
      </note>
      <note default-x="196">
        <pitch>
          <step>E</step>
          <alter>-1</alter>
          <octave>5</octave>
        </pitch>
        <duration>1</duration>
        <voice>1</voice>
        <type>eighth</type>
        <stem default-y="-50">down</stem>
        <staff>1</staff>
        <beam number="1">continue</beam>
      </note>
      <direction>
        <direction-type>
          <wedge type="stop" spread="0" default-x="10"></wedge>
        </direction-type>
        <staff>1</staff>
      </direction>
      <note default-x="229">
        <pitch>
          <step>C</step>
          <octave>5</octave>
        </pitch>
        <duration>1</duration>
        <voice>1</voice>
        <type>eighth</type>
        <stem default-y="-49">down</stem>
        <staff>1</staff>
        <beam number="1">end</beam>
      </note>
      <backup>
        <duration>8</duration>
      </backup>
      <note default-x="15">
        <pitch>
          <step>B</step>
          <alter>-1</alter>
          <octave>2</octave>
        </pitch>
        <duration>4</duration>
        <voice>2</voice>
        <type>half</type>
        <stem default-y="5">up</stem>
        <staff>2</staff>
        <notations>
          <slur type="start" number="2" bezier-x="59" bezier-y="-35" default-x="8" default-y="-36" placement="below"></slur>
        </notations>
      </note>
      <note default-x="130">
        <pitch>
          <step>A</step>
          <octave>2</octave>
        </pitch>
        <duration>4</duration>
        <voice>2</voice>
        <type>half</type>
        <stem default-y="1">up</stem>
        <staff>2</staff>
      </note>
    </measure>
    <!--=======================================================-->
    <measure number="20" width="145">
      <direction placement="below">
        <direction-type>
          <dynamics default-y="-83" relative-x="-4">
            <p/>
          </dynamics>
        </direction-type>
        <staff>1</staff>
        <sound dynamics="56"></sound>
      </direction>
      <note default-x="15">
        <pitch>
          <step>G</step>
          <octave>5</octave>
        </pitch>
        <duration>8</duration>
        <voice>1</voice>
        <type>whole</type>
        <staff>1</staff>
        <notations>
          <slur type="stop" number="1" bezier-x="-49" bezier-y="26" default-x="7" default-y="14"></slur>
        </notations>
      </note>
      <backup>
        <duration>8</duration>
      </backup>
      <note default-x="14">
        <pitch>
          <step>G</step>
          <octave>2</octave>
        </pitch>
        <duration>8</duration>
        <voice>2</voice>
        <type>whole</type>
        <staff>2</staff>
        <notations>
          <slur type="stop" number="2" bezier-x="-63" bezier-y="-24" default-x="7" default-y="-48"></slur>
        </notations>
      </note>
      <barline location="right">
        <bar-style>light-heavy</bar-style>
      </barline>
    </measure>
    <!--=======================================================-->
    <measure number="21" width="334">
      <print new-system="yes">
        <system-layout>
          <system-margins>
            <left-margin>74</left-margin>
            <right-margin>-17</right-margin>
          </system-margins>
          <system-distance>174</system-distance>
        </system-layout>
        <staff-layout number="2">
          <staff-distance>77</staff-distance>
        </staff-layout>
      </print>
      <attributes>
        <key>
          <fifths>2</fifths>
        </key>
        <time>
          <beats>3</beats>
          <beat-type>4</beat-type>
        </time>
        <staff-details print-object="yes"></staff-details>
      </attributes>
      <direction placement="below">
        <direction-type>
          <dynamics default-y="-77" relative-x="-10">
            <p/>
          </dynamics>
        </direction-type>
        <staff>1</staff>
        <sound dynamics="56"></sound>
      </direction>
      <note default-x="115">
        <pitch>
          <step>D</step>
          <octave>5</octave>
        </pitch>
        <duration>3</duration>
        <voice>1</voice>
        <type>quarter</type>
        <dot/>
        <stem default-y="-44">down</stem>
        <staff>1</staff>
        <notations>
          <slur type="start" number="1" bezier-x="55" bezier-y="32" default-x="8" default-y="-1" placement="above"></slur>
        </notations>
      </note>
      <direction placement="below">
        <direction-type>
          <wedge type="crescendo" spread="0" default-x="1" default-y="-75"></wedge>
        </direction-type>
        <staff>1</staff>
      </direction>
      <note default-x="212">
        <pitch>
          <step>C</step>
          <alter>1</alter>
          <octave>5</octave>
        </pitch>
        <duration>1</duration>
        <voice>1</voice>
        <type>eighth</type>
        <stem default-y="-50">down</stem>
        <staff>1</staff>
      </note>
      <note default-x="257">
        <pitch>
          <step>D</step>
          <octave>5</octave>
        </pitch>
        <duration>2</duration>
        <voice>1</voice>
        <type>quarter</type>
        <stem default-y="-44">down</stem>
        <staff>1</staff>
      </note>
      <backup>
        <duration>6</duration>
      </backup>
      <note default-x="114">
        <pitch>
          <step>F</step>
          <alter>1</alter>
          <octave>3</octave>
        </pitch>
        <duration>3</duration>
        <voice>2</voice>
        <type>quarter</type>
        <dot/>
        <stem default-y="-44">down</stem>
        <staff>2</staff>
      </note>
    </measure>
    <!--=======================================================-->
    <measure number="22" width="234">
      <direction>
        <direction-type>
          <wedge type="stop" spread="12" default-x="154"></wedge>
        </direction-type>
        <staff>1</staff>
      </direction>
      <note default-x="15">
        <pitch>
          <step>E</step>
          <octave>5</octave>
        </pitch>
        <duration>6</duration>
        <voice>1</voice>
        <type>half</type>
        <dot/>
        <stem default-y="-40">down</stem>
        <staff>1</staff>
        <notations>
          <slur type="stop" number="1" bezier-x="-59" bezier-y="25" default-x="4" default-y="4"></slur>
        </notations>
      </note>
      <backup>
        <duration>6</duration>
      </backup>
      <note default-x="15">
        <pitch>
          <step>G</step>
          <octave>3</octave>
        </pitch>
        <duration>3</duration>
        <voice>2</voice>
        <type>quarter</type>
        <dot/>
        <stem default-y="-40">down</stem>
        <staff>2</staff>
        <notations>
          <slur type="start" number="1" bezier-x="54" bezier-y="28" default-x="9" default-y="5" placement="above"></slur>
        </notations>
      </note>
      <note default-x="113">
        <pitch>
          <step>F</step>
          <alter>1</alter>
          <octave>3</octave>
        </pitch>
        <duration>1</duration>
        <voice>2</voice>
        <type>eighth</type>
        <stem default-y="-45">down</stem>
        <staff>2</staff>
      </note>
      <note default-x="157">
        <pitch>
          <step>G</step>
          <octave>3</octave>
        </pitch>
        <duration>2</duration>
        <voice>2</voice>
        <type>quarter</type>
        <stem default-y="-40">down</stem>
        <staff>2</staff>
      </note>
    </measure>
    <!--=======================================================-->
    <measure number="23" width="262">
      <note default-x="15">
        <rest>
          <display-step>B</display-step>
          <display-octave>4</display-octave>
        </rest>
        <duration>2</duration>
        <voice>1</voice>
        <type>quarter</type>
        <staff>1</staff>
      </note>
      <direction placement="below">
        <direction-type>
          <wedge type="diminuendo" spread="11" default-x="11" default-y="-75"></wedge>
        </direction-type>
        <staff>1</staff>
      </direction>
      <note default-x="93">
        <pitch>
          <step>A</step>
          <octave>4</octave>
        </pitch>
        <duration>1</duration>
        <voice>1</voice>
        <type>eighth</type>
        <stem default-y="10">up</stem>
        <staff>1</staff>
        <beam number="1">begin</beam>
        <notations>
          <slur type="start" number="2" bezier-x="45" bezier-y="22" default-x="18" default-y="15" placement="above"></slur>
        </notations>
      </note>
      <note default-x="138">
        <pitch>
          <step>B</step>
          <octave>4</octave>
        </pitch>
        <duration>1</duration>
        <voice>1</voice>
        <type>eighth</type>
        <stem default-y="15">up</stem>
        <staff>1</staff>
        <beam number="1">end</beam>
      </note>
      <direction>
        <direction-type>
          <wedge type="stop" spread="0" default-x="68"></wedge>
        </direction-type>
        <staff>1</staff>
      </direction>
      <note default-x="185">
        <pitch>
          <step>C</step>
          <alter>1</alter>
          <octave>5</octave>
        </pitch>
        <duration>2</duration>
        <voice>1</voice>
        <type>quarter</type>
        <stem default-y="-49">down</stem>
        <staff>1</staff>
      </note>
      <backup>
        <duration>6</duration>
      </backup>
      <note default-x="15">
        <pitch>
          <step>A</step>
          <octave>3</octave>
        </pitch>
        <duration>6</duration>
        <voice>2</voice>
        <type>half</type>
        <dot/>
        <stem default-y="-34">down</stem>
        <staff>2</staff>
        <notations>
          <slur type="stop" number="1" bezier-x="-58" bezier-y="25" default-x="5" default-y="9"></slur>
        </notations>
      </note>
    </measure>
    <!--=======================================================-->
    <measure number="24" width="166">
      <note default-x="15">
        <pitch>
          <step>D</step>
          <octave>5</octave>
        </pitch>
        <duration>6</duration>
        <voice>1</voice>
        <type>half</type>
        <dot/>
        <stem default-y="-44">down</stem>
        <staff>1</staff>
        <notations>
          <slur type="stop" number="2" bezier-x="-42" bezier-y="31" default-x="1" default-y="1"></slur>
        </notations>
      </note>
      <backup>
        <duration>6</duration>
      </backup>
      <note default-x="15">
        <pitch>
          <step>D</step>
          <octave>3</octave>
        </pitch>
        <duration>6</duration>
        <voice>2</voice>
        <type>half</type>
        <dot/>
        <stem default-y="-54">down</stem>
        <staff>2</staff>
      </note>
      <barline location="right">
        <bar-style>light-heavy</bar-style>
      </barline>
    </measure>
  </part>
</score-partwise>