<?xml version="1.0" encoding="UTF-8"?>
<!DOCTYPE score-partwise PUBLIC "-//Recordare//DTD MusicXML 3.0.1 Partwise//EN" "http://www.musicxml.org/dtds/partwise.dtd">
<score-partwise version="3.0.1">
  <identification>
    <rights>AB 3395</rights>
    <encoding>
      <software>Audiveris 5.0.0</software>
      <supports type="yes" element="print" attribute="new-system" value="yes"></supports>
      <supports type="yes" element="print" attribute="new-page" value="yes"></supports>
      <software>ProxyMusic 3.0.1.8e1a2c5</software>
      <encoding-date>2017-07-18</encoding-date>
    </encoding>
    <source>/Users/mb/Desktop/Janis.so/06_qmul/BB/06_grade_pdfs/AB-Sight-Reading-2.pdf</source>
    <miscellaneous>
      <miscellaneous-field name="source-file">/Users/mb/Desktop/Janis.so/06_qmul/BB/06_grade_pdfs/AB-Sight-Reading-2.pdf</miscellaneous-field>
      <miscellaneous-field name="source-sheet-9">1 2 3 4 5</miscellaneous-field>
    </miscellaneous>
  </identification>
  <defaults>
    <scaling>
      <millimeters>7.1120</millimeters>
      <tenths>40</tenths>
    </scaling>
    <page-layout>
      <page-height>1670</page-height>
      <page-width>1214</page-width>
      <page-margins type="both">
        <left-margin>80</left-margin>
        <right-margin>80</right-margin>
        <top-margin>80</top-margin>
        <bottom-margin>80</bottom-margin>
      </page-margins>
    </page-layout>
    <lyric-font font-family="Serif" font-size="10"></lyric-font>
  </defaults>
  <credit page="1">
    <credit-words default-x="240" default-y="284" font-family="serif" font-size="13" font-weight="bold">Moderate</credit-words>
  </credit>
  <credit page="1">
    <credit-words default-x="281" default-y="259" font-family="sans-serif" font-size="11" font-weight="bold">s</credit-words>
  </credit>
  <credit page="1">
    <credit-words default-x="99" default-y="20" font-family="serif" font-size="13">10</credit-words>
  </credit>
  <credit page="1">
    <credit-words default-x="599" default-y="20" font-family="sans-serif" font-size="8">AB 3395</credit-words>
  </credit>
  <part-list>
    <score-part id="P1">
      <part-name>41</part-name>
      <score-instrument id="P1-I1">
        <instrument-name>Acoustic Grand Piano</instrument-name>
      </score-instrument>
      <midi-instrument id="P1-I1">
        <midi-channel>1</midi-channel>
        <midi-program>1</midi-program>
        <volume>78</volume>
      </midi-instrument>
    </score-part>
  </part-list>
  <!--= = = = = = = = = = = = = = = = = = = = = = = = = = = = =-->
  <part id="P1">
    <!--=======================================================-->
    <measure number="1" width="318">
      <print>
        <system-layout>
          <system-margins>
            <left-margin>85</left-margin>
            <right-margin>-28</right-margin>
          </system-margins>
          <top-system-distance>19</top-system-distance>
        </system-layout>
        <staff-layout number="2">
          <staff-distance>77</staff-distance>
        </staff-layout>
        <measure-numbering>system</measure-numbering>
      </print>
      <attributes>
        <divisions>2</divisions>
        <key>
          <fifths>-2</fifths>
        </key>
        <time>
          <beats>3</beats>
          <beat-type>4</beat-type>
        </time>
        <staves>2</staves>
        <clef number="1">
          <sign>G</sign>
          <line>2</line>
        </clef>
        <clef number="2">
          <sign>F</sign>
          <line>4</line>
        </clef>
        <staff-details print-object="yes"></staff-details>
      </attributes>
      <direction>
        <direction-type>
          <words></words>
        </direction-type>
        <sound tempo="120"></sound>
      </direction>
      <direction placement="below">
        <direction-type>
          <dynamics default-y="-77" relative-x="0">
            <f/>
          </dynamics>
        </direction-type>
        <staff>1</staff>
        <sound dynamics="100"></sound>
      </direction>
      <note default-x="113">
        <pitch>
          <step>B</step>
          <alter>-1</alter>
          <octave>4</octave>
        </pitch>
        <duration>2</duration>
        <voice>1</voice>
        <type>quarter</type>
        <stem default-y="-54">down</stem>
        <staff>1</staff>
      </note>
      <direction placement="below">
        <direction-type>
          <wedge type="crescendo" spread="0" default-x="7" default-y="-76"></wedge>
        </direction-type>
        <staff>1</staff>
      </direction>
      <note default-x="177">
        <pitch>
          <step>B</step>
          <alter>-1</alter>
          <octave>4</octave>
        </pitch>
        <duration>1</duration>
        <voice>1</voice>
        <type>eighth</type>
        <stem default-y="12">up</stem>
        <staff>1</staff>
        <beam number="1">begin</beam>
        <notations>
          <slur type="start" number="1" bezier-x="22" bezier-y="-20" default-x="8" default-y="-32" placement="below"></slur>
        </notations>
      </note>
      <note default-x="216">
        <pitch>
          <step>A</step>
          <octave>4</octave>
        </pitch>
        <duration>1</duration>
        <voice>1</voice>
        <type>eighth</type>
        <stem default-y="7">up</stem>
        <staff>1</staff>
        <beam number="1">end</beam>
      </note>
      <direction>
        <direction-type>
          <wedge type="stop" spread="11" default-x="9"></wedge>
        </direction-type>
        <staff>1</staff>
      </direction>
      <note default-x="254">
        <pitch>
          <step>G</step>
          <octave>4</octave>
        </pitch>
        <duration>2</duration>
        <voice>1</voice>
        <type>quarter</type>
        <stem default-y="5">up</stem>
        <staff>1</staff>
        <notations>
          <slur type="stop" number="1" bezier-x="-23" bezier-y="-16" default-x="5" default-y="-36"></slur>
        </notations>
      </note>
      <backup>
        <duration>6</duration>
      </backup>
      <note default-x="112">
        <pitch>
          <step>G</step>
          <octave>3</octave>
        </pitch>
        <duration>6</duration>
        <voice>2</voice>
        <type>half</type>
        <dot/>
        <stem default-y="-39">down</stem>
        <staff>2</staff>
      </note>
    </measure>
    <!--=======================================================-->
    <measure number="2" width="224">
      <note default-x="18">
        <pitch>
          <step>A</step>
          <octave>4</octave>
        </pitch>
        <duration>2</duration>
        <voice>1</voice>
        <type>quarter</type>
        <stem default-y="9">up</stem>
        <staff>1</staff>
        <notations>
          <slur type="start" number="1" bezier-x="12" bezier-y="17" default-x="17" default-y="-7" placement="above"></slur>
        </notations>
      </note>
      <direction placement="below">
        <direction-type>
          <wedge type="diminuendo" spread="12" default-x="14" default-y="-73"></wedge>
        </direction-type>
        <staff>1</staff>
      </direction>
      <direction>
        <direction-type>
          <wedge type="stop" spread="0" default-x="82"></wedge>
        </direction-type>
        <staff>1</staff>
      </direction>
      <note default-x="83">
        <pitch>
          <step>D</step>
          <octave>5</octave>
        </pitch>
        <duration>4</duration>
        <voice>1</voice>
        <type>half</type>
        <stem default-y="-44">down</stem>
        <staff>1</staff>
        <notations>
          <slur type="stop" number="1" bezier-x="-18" bezier-y="11" default-x="5" default-y="4"></slur>
        </notations>
      </note>
      <backup>
        <duration>6</duration>
      </backup>
      <note default-x="18">
        <pitch>
          <step>F</step>
          <alter>1</alter>
          <octave>3</octave>
        </pitch>
        <duration>2</duration>
        <voice>2</voice>
        <type>quarter</type>
        <accidental>sharp</accidental>
        <stem default-y="-44">down</stem>
        <staff>2</staff>
      </note>
      <note default-x="84">
        <pitch>
          <step>F</step>
          <alter>1</alter>
          <octave>3</octave>
        </pitch>
        <duration>1</duration>
        <voice>2</voice>
        <type>eighth</type>
        <stem default-y="-42">down</stem>
        <staff>2</staff>
        <beam number="1">begin</beam>
        <notations>
          <slur type="start" number="1" bezier-x="20" bezier-y="20" default-x="8" default-y="0" placement="above"></slur>
        </notations>
      </note>
      <note default-x="121">
        <pitch>
          <step>G</step>
          <octave>3</octave>
        </pitch>
        <duration>1</duration>
        <voice>2</voice>
        <type>eighth</type>
        <stem default-y="-40">down</stem>
        <staff>2</staff>
        <beam number="1">end</beam>
      </note>
      <note default-x="160">
        <pitch>
          <step>A</step>
          <octave>3</octave>
        </pitch>
        <duration>2</duration>
        <voice>2</voice>
        <type>quarter</type>
        <stem default-y="-34">down</stem>
        <staff>2</staff>
        <notations>
          <slur type="stop" number="1" bezier-x="-24" bezier-y="13" default-x="4" default-y="10"></slur>
        </notations>
      </note>
    </measure>
    <!--=======================================================-->
    <measure number="3" width="220">
      <note default-x="14">
        <rest>
          <display-step>B</display-step>
          <display-octave>4</display-octave>
        </rest>
        <duration>2</duration>
        <voice>1</voice>
        <type>quarter</type>
        <staff>1</staff>
      </note>
      <direction placement="below">
        <direction-type>
          <wedge type="crescendo" spread="0" default-x="11" default-y="-75"></wedge>
        </direction-type>
        <staff>1</staff>
      </direction>
      <note default-x="80">
        <pitch>
          <step>B</step>
          <alter>-1</alter>
          <octave>4</octave>
        </pitch>
        <duration>1</duration>
        <voice>1</voice>
        <type>eighth</type>
        <stem default-y="-51">down</stem>
        <staff>1</staff>
        <beam number="1">begin</beam>
        <notations>
          <slur type="start" number="1" bezier-x="20" bezier-y="20" default-x="7" default-y="-6" placement="above"></slur>
        </notations>
      </note>
      <note default-x="119">
        <pitch>
          <step>C</step>
          <octave>5</octave>
        </pitch>
        <duration>1</duration>
        <voice>1</voice>
        <type>eighth</type>
        <stem default-y="-47">down</stem>
        <staff>1</staff>
        <beam number="1">end</beam>
      </note>
      <direction>
        <direction-type>
          <wedge type="stop" spread="12" default-x="12"></wedge>
        </direction-type>
        <staff>1</staff>
      </direction>
      <note default-x="156">
        <pitch>
          <step>D</step>
          <octave>5</octave>
        </pitch>
        <duration>2</duration>
        <voice>1</voice>
        <type>quarter</type>
        <stem default-y="-44">down</stem>
        <staff>1</staff>
        <notations>
          <slur type="stop" number="1" bezier-x="-24" bezier-y="14" default-x="4" default-y="4"></slur>
        </notations>
      </note>
      <backup>
        <duration>6</duration>
      </backup>
      <note default-x="15">
        <pitch>
          <step>G</step>
          <octave>3</octave>
        </pitch>
        <duration>6</duration>
        <voice>2</voice>
        <type>half</type>
        <dot/>
        <stem default-y="-40">down</stem>
        <staff>2</staff>
      </note>
    </measure>
    <!--=======================================================-->
    <measure number="4" width="234">
      <direction placement="below">
        <direction-type>
          <wedge type="diminuendo" spread="12" default-x="12" default-y="-74"></wedge>
        </direction-type>
        <staff>1</staff>
      </direction>
      <note default-x="15">
        <pitch>
          <step>C</step>
          <octave>5</octave>
        </pitch>
        <duration>2</duration>
        <voice>1</voice>
        <type>quarter</type>
        <stem default-y="-49">down</stem>
        <staff>1</staff>
        <notations>
          <slur type="start" number="1" bezier-x="33" bezier-y="36" default-x="7" default-y="-2" placement="above"></slur>
        </notations>
      </note>
      <note default-x="80">
        <pitch>
          <step>B</step>
          <alter>-1</alter>
          <octave>4</octave>
        </pitch>
        <duration>1</duration>
        <voice>1</voice>
        <type>eighth</type>
        <stem default-y="12">up</stem>
        <staff>1</staff>
        <beam number="1">begin</beam>
      </note>
      <note default-x="119">
        <pitch>
          <step>A</step>
          <octave>4</octave>
        </pitch>
        <duration>1</duration>
        <voice>1</voice>
        <type>eighth</type>
        <stem default-y="7">up</stem>
        <staff>1</staff>
        <beam number="1">end</beam>
      </note>
      <direction>
        <direction-type>
          <wedge type="stop" spread="0" default-x="-9"></wedge>
        </direction-type>
        <staff>1</staff>
      </direction>
      <note default-x="157">
        <pitch>
          <step>G</step>
          <octave>4</octave>
        </pitch>
        <duration>2</duration>
        <voice>1</voice>
        <type>quarter</type>
        <stem default-y="5">up</stem>
        <staff>1</staff>
        <notations>
          <slur type="stop" number="1" bezier-x="-37" bezier-y="30" default-x="4" default-y="0"></slur>
        </notations>
      </note>
      <backup>
        <duration>6</duration>
      </backup>
      <note default-x="14">
        <pitch>
          <step>E</step>
          <octave>3</octave>
        </pitch>
        <duration>2</duration>
        <voice>2</voice>
        <type>quarter</type>
        <accidental>natural</accidental>
        <stem default-y="-49">down</stem>
        <staff>2</staff>
        <notations>
          <slur type="start" number="1" bezier-x="34" bezier-y="28" default-x="9" default-y="-5" placement="above"></slur>
        </notations>
      </note>
      <note default-x="80">
        <pitch>
          <step>F</step>
          <alter>1</alter>
          <octave>3</octave>
        </pitch>
        <duration>2</duration>
        <voice>2</voice>
        <type>quarter</type>
        <accidental>sharp</accidental>
        <stem default-y="-44">down</stem>
        <staff>2</staff>
      </note>
      <note default-x="157">
        <pitch>
          <step>G</step>
          <octave>3</octave>
        </pitch>
        <duration>2</duration>
        <voice>2</voice>
        <type>quarter</type>
        <stem default-y="-40">down</stem>
        <staff>2</staff>
        <notations>
          <slur type="stop" number="1" bezier-x="-37" bezier-y="21" default-x="4" default-y="5"></slur>
        </notations>
      </note>
      <barline location="right">
        <bar-style>light-heavy</bar-style>
      </barline>
    </measure>
    <!--=======================================================-->
    <measure number="5" width="236">
      <print new-system="yes">
        <system-layout>
          <system-margins>
            <left-margin>86</left-margin>
            <right-margin>-28</right-margin>
          </system-margins>
          <system-distance>174</system-distance>
        </system-layout>
        <staff-layout number="2">
          <staff-distance>76</staff-distance>
        </staff-layout>
      </print>
      <attributes>
        <key>
          <fifths>-1</fifths>
        </key>
        <time>
          <beats>2</beats>
          <beat-type>4</beat-type>
        </time>
        <staff-details print-object="yes"></staff-details>
      </attributes>
      <note default-x="101">
        <rest>
          <display-step>B</display-step>
          <display-octave>4</display-octave>
        </rest>
        <duration>2</duration>
        <voice>1</voice>
        <type>quarter</type>
        <staff>1</staff>
      </note>
      <note default-x="164">
        <pitch>
          <step>F</step>
          <octave>5</octave>
        </pitch>
        <duration>1</duration>
        <voice>1</voice>
        <type>eighth</type>
        <stem default-y="-35">down</stem>
        <staff>1</staff>
        <beam number="1">begin</beam>
        <notations>
          <slur type="start" number="1" bezier-x="25" bezier-y="19" default-x="8" default-y="9" placement="above"></slur>
        </notations>
      </note>
      <note default-x="200">
        <pitch>
          <step>E</step>
          <octave>5</octave>
        </pitch>
        <duration>1</duration>
        <voice>1</voice>
        <type>eighth</type>
        <stem default-y="-40">down</stem>
        <staff>1</staff>
        <beam number="1">end</beam>
      </note>
      <backup>
        <duration>4</duration>
      </backup>
      <direction placement="above">
        <direction-type>
          <dynamics default-y="41" relative-x="4">
            <f/>
          </dynamics>
        </direction-type>
        <staff>2</staff>
        <sound dynamics="100"></sound>
      </direction>
      <note default-x="101">
        <pitch>
          <step>F</step>
          <octave>3</octave>
        </pitch>
        <duration>2</duration>
        <voice>2</voice>
        <type>quarter</type>
        <stem default-y="-45">down</stem>
        <staff>2</staff>
      </note>
      <note default-x="164">
        <rest>
          <display-step>D</display-step>
          <display-octave>3</display-octave>
        </rest>
        <duration>2</duration>
        <voice>2</voice>
        <type>quarter</type>
        <staff>2</staff>
      </note>
    </measure>
    <!--=======================================================-->
    <measure number="6" width="149">
      <note default-x="14">
        <pitch>
          <step>F</step>
          <octave>5</octave>
        </pitch>
        <duration>2</duration>
        <voice>1</voice>
        <type>quarter</type>
        <stem default-y="-34">down</stem>
        <staff>1</staff>
        <notations>
          <slur type="stop" number="1" bezier-x="-24" bezier-y="19" default-x="5" default-y="9"></slur>
        </notations>
      </note>
      <note default-x="77">
        <pitch>
          <step>C</step>
          <octave>5</octave>
        </pitch>
        <duration>1</duration>
        <voice>1</voice>
        <type>eighth</type>
        <stem default-y="-49">down</stem>
        <staff>1</staff>
        <beam number="1">begin</beam>
        <notations>
          <slur type="start" number="1" bezier-x="25" bezier-y="19" default-x="9" default-y="-4" placement="above"></slur>
        </notations>
      </note>
      <note default-x="113">
        <pitch>
          <step>D</step>
          <octave>5</octave>
        </pitch>
        <duration>1</duration>
        <voice>1</voice>
        <type>eighth</type>
        <stem default-y="-44">down</stem>
        <staff>1</staff>
        <beam number="1">end</beam>
      </note>
      <backup>
        <duration>4</duration>
      </backup>
      <note default-x="14">
        <pitch>
          <step>A</step>
          <octave>3</octave>
        </pitch>
        <duration>2</duration>
        <voice>2</voice>
        <type>quarter</type>
        <stem default-y="-35">down</stem>
        <staff>2</staff>
      </note>
      <note default-x="77">
        <rest>
          <display-step>D</display-step>
          <display-octave>3</display-octave>
        </rest>
        <duration>2</duration>
        <voice>2</voice>
        <type>quarter</type>
        <staff>2</staff>
      </note>
    </measure>
    <!--=======================================================-->
    <measure number="7" width="150">
      <direction placement="below">
        <direction-type>
          <wedge type="crescendo" spread="0" default-x="3" default-y="-72"></wedge>
        </direction-type>
        <staff>1</staff>
      </direction>
      <direction>
        <direction-type>
          <wedge type="stop" spread="11" default-x="83"></wedge>
        </direction-type>
        <staff>1</staff>
      </direction>
      <note default-x="16">
        <pitch>
          <step>C</step>
          <octave>5</octave>
        </pitch>
        <duration>4</duration>
        <voice>1</voice>
        <type>half</type>
        <stem default-y="-49">down</stem>
        <staff>1</staff>
        <notations>
          <slur type="stop" number="1" bezier-x="-24" bezier-y="19" default-x="3" default-y="-4"></slur>
        </notations>
      </note>
      <backup>
        <duration>4</duration>
      </backup>
      <note default-x="14">
        <pitch>
          <step>B</step>
          <alter>-1</alter>
          <octave>3</octave>
        </pitch>
        <duration>1</duration>
        <voice>2</voice>
        <type>eighth</type>
        <stem default-y="-30">down</stem>
        <staff>2</staff>
        <beam number="1">begin</beam>
        <notations>
          <slur type="start" number="1" bezier-x="23" bezier-y="14" default-x="8" default-y="14" placement="above"></slur>
        </notations>
      </note>
      <note default-x="51">
        <pitch>
          <step>A</step>
          <octave>3</octave>
        </pitch>
        <duration>1</duration>
        <voice>2</voice>
        <type>eighth</type>
        <stem default-y="-32">down</stem>
        <staff>2</staff>
        <beam number="1">end</beam>
      </note>
      <note default-x="88">
        <pitch>
          <step>G</step>
          <octave>3</octave>
        </pitch>
        <duration>2</duration>
        <voice>2</voice>
        <type>quarter</type>
        <stem default-y="-40">down</stem>
        <staff>2</staff>
        <notations>
          <slur type="stop" number="1" bezier-x="-19" bezier-y="20" default-x="5" default-y="4"></slur>
        </notations>
      </note>
    </measure>
    <!--=======================================================-->
    <measure number="8" width="150">
      <note default-x="14">
        <rest>
          <display-step>B</display-step>
          <display-octave>4</display-octave>
        </rest>
        <duration>2</duration>
        <voice>1</voice>
        <type>quarter</type>
        <staff>1</staff>
      </note>
      <note default-x="77">
        <pitch>
          <step>F</step>
          <octave>5</octave>
        </pitch>
        <duration>1</duration>
        <voice>1</voice>
        <type>eighth</type>
        <stem default-y="-35">down</stem>
        <staff>1</staff>
        <beam number="1">begin</beam>
        <notations>
          <slur type="start" number="1" bezier-x="24" bezier-y="19" default-x="8" default-y="9" placement="above"></slur>
        </notations>
      </note>
      <note default-x="113">
        <pitch>
          <step>E</step>
          <octave>5</octave>
        </pitch>
        <duration>1</duration>
        <voice>1</voice>
        <type>eighth</type>
        <stem default-y="-40">down</stem>
        <staff>1</staff>
        <beam number="1">end</beam>
      </note>
      <backup>
        <duration>4</duration>
      </backup>
      <note default-x="14">
        <pitch>
          <step>A</step>
          <octave>3</octave>
        </pitch>
        <duration>4</duration>
        <tie type="start"></tie>
        <voice>2</voice>
        <type>half</type>
        <stem default-y="-35">down</stem>
        <staff>2</staff>
        <notations>
          <tied type="start" orientation="over"></tied>
        </notations>
      </note>
    </measure>
    <!--=======================================================-->
    <measure number="9" width="149">
      <note default-x="14">
        <pitch>
          <step>F</step>
          <octave>5</octave>
        </pitch>
        <duration>2</duration>
        <voice>1</voice>
        <type>quarter</type>
        <stem default-y="-35">down</stem>
        <staff>1</staff>
        <notations>
          <slur type="stop" number="1" bezier-x="-24" bezier-y="19" default-x="5" default-y="9"></slur>
        </notations>
      </note>
      <note default-x="77">
        <pitch>
          <step>G</step>
          <octave>5</octave>
        </pitch>
        <duration>1</duration>
        <voice>1</voice>
        <type>eighth</type>
        <stem default-y="-34">down</stem>
        <staff>1</staff>
        <beam number="1">begin</beam>
        <notations>
          <slur type="start" number="1" bezier-x="26" bezier-y="18" default-x="8" default-y="14" placement="above"></slur>
        </notations>
      </note>
      <note default-x="113">
        <pitch>
          <step>E</step>
          <octave>5</octave>
        </pitch>
        <duration>1</duration>
        <voice>1</voice>
        <type>eighth</type>
        <stem default-y="-40">down</stem>
        <staff>1</staff>
        <beam number="1">end</beam>
      </note>
      <backup>
        <duration>4</duration>
      </backup>
      <note default-x="15">
        <pitch>
          <step>A</step>
          <octave>3</octave>
        </pitch>
        <duration>2</duration>
        <tie type="stop"></tie>
        <voice>2</voice>
        <type>quarter</type>
        <stem default-y="-35">down</stem>
        <staff>2</staff>
        <notations>
          <tied type="stop"></tied>
        </notations>
      </note>
      <note default-x="77">
        <pitch>
          <step>B</step>
          <alter>-1</alter>
          <octave>3</octave>
        </pitch>
        <duration>2</duration>
        <voice>2</voice>
        <type>quarter</type>
        <stem default-y="-30">down</stem>
        <staff>2</staff>
      </note>
    </measure>
    <!--=======================================================-->
    <measure number="10" width="163">
      <direction placement="below">
        <direction-type>
          <wedge type="diminuendo" spread="12" default-x="4" default-y="-71"></wedge>
        </direction-type>
        <staff>1</staff>
      </direction>
      <direction>
        <direction-type>
          <wedge type="stop" spread="0" default-x="78"></wedge>
        </direction-type>
        <staff>1</staff>
      </direction>
      <note default-x="15">
        <pitch>
          <step>F</step>
          <octave>5</octave>
        </pitch>
        <duration>4</duration>
        <voice>1</voice>
        <type>half</type>
        <stem default-y="-34">down</stem>
        <staff>1</staff>
        <notations>
          <slur type="stop" number="1" bezier-x="-24" bezier-y="21" default-x="4" default-y="9"></slur>
        </notations>
      </note>
      <backup>
        <duration>4</duration>
      </backup>
      <note default-x="15">
        <pitch>
          <step>A</step>
          <octave>3</octave>
        </pitch>
        <duration>1</duration>
        <voice>2</voice>
        <type>eighth</type>
        <stem default-y="-35">down</stem>
        <staff>2</staff>
        <beam number="1">begin</beam>
        <notations>
          <slur type="start" number="1" bezier-x="24" bezier-y="13" default-x="8" default-y="9" placement="above"></slur>
        </notations>
      </note>
      <note default-x="51">
        <pitch>
          <step>G</step>
          <octave>3</octave>
        </pitch>
        <duration>1</duration>
        <voice>2</voice>
        <type>eighth</type>
        <stem default-y="-40">down</stem>
        <staff>2</staff>
        <beam number="1">end</beam>
      </note>
      <note default-x="88">
        <pitch>
          <step>F</step>
          <octave>3</octave>
        </pitch>
        <duration>2</duration>
        <voice>2</voice>
        <type>quarter</type>
        <stem default-y="-45">down</stem>
        <staff>2</staff>
        <notations>
          <slur type="stop" number="1" bezier-x="-18" bezier-y="20" default-x="4" default-y="-2"></slur>
        </notations>
      </note>
      <barline location="right">
        <bar-style>light-heavy</bar-style>
      </barline>
    </measure>
    <!--=======================================================-->
    <measure number="11" width="317">
      <print new-system="yes">
        <system-layout>
          <system-margins>
            <left-margin>86</left-margin>
            <right-margin>-28</right-margin>
          </system-margins>
          <system-distance>174</system-distance>
        </system-layout>
        <staff-layout number="2">
          <staff-distance>76</staff-distance>
        </staff-layout>
      </print>
      <attributes>
        <time>
          <beats>4</beats>
          <beat-type>4</beat-type>
        </time>
        <staff-details print-object="yes"></staff-details>
      </attributes>
      <note default-x="101">
        <pitch>
          <step>A</step>
          <octave>4</octave>
        </pitch>
        <duration>1</duration>
        <voice>1</voice>
        <type>eighth</type>
        <stem default-y="10">up</stem>
        <staff>1</staff>
        <beam number="1">begin</beam>
        <notations>
          <slur type="start" number="1" bezier-x="13" bezier-y="-18" default-x="7" default-y="-33" placement="below"></slur>
        </notations>
      </note>
      <note default-x="130">
        <pitch>
          <step>G</step>
          <octave>4</octave>
        </pitch>
        <duration>1</duration>
        <voice>1</voice>
        <type>eighth</type>
        <stem default-y="5">up</stem>
        <staff>1</staff>
        <beam number="1">end</beam>
      </note>
      <note default-x="160">
        <pitch>
          <step>F</step>
          <octave>4</octave>
        </pitch>
        <duration>2</duration>
        <voice>1</voice>
        <type>quarter</type>
        <stem default-y="1">up</stem>
        <staff>1</staff>
        <notations>
          <slur type="stop" number="1" bezier-x="-18" bezier-y="-12" default-x="4" default-y="-44"></slur>
        </notations>
      </note>
      <note default-x="210">
        <pitch>
          <step>F</step>
          <octave>4</octave>
        </pitch>
        <duration>1</duration>
        <voice>1</voice>
        <type>eighth</type>
        <stem default-y="1">up</stem>
        <staff>1</staff>
        <beam number="1">begin</beam>
        <notations>
          <slur type="start" number="1" bezier-x="13" bezier-y="-18" default-x="7" default-y="-44" placement="below"></slur>
        </notations>
      </note>
      <note default-x="239">
        <pitch>
          <step>E</step>
          <octave>4</octave>
        </pitch>
        <duration>1</duration>
        <voice>1</voice>
        <type>eighth</type>
        <stem default-y="-5">up</stem>
        <staff>1</staff>
        <beam number="1">end</beam>
      </note>
      <note default-x="269">
        <pitch>
          <step>D</step>
          <octave>4</octave>
        </pitch>
        <duration>2</duration>
        <voice>1</voice>
        <type>quarter</type>
        <stem default-y="-9">up</stem>
        <staff>1</staff>
        <notations>
          <slur type="stop" number="1" bezier-x="-18" bezier-y="-12" default-x="5" default-y="-54"></slur>
        </notations>
      </note>
      <backup>
        <duration>8</duration>
      </backup>
      <direction placement="above">
        <direction-type>
          <dynamics default-y="41" relative-x="2">
            <f/>
          </dynamics>
        </direction-type>
        <staff>2</staff>
        <sound dynamics="100"></sound>
      </direction>
      <note default-x="101">
        <pitch>
          <step>D</step>
          <octave>3</octave>
        </pitch>
        <duration>2</duration>
        <voice>2</voice>
        <type>quarter</type>
        <stem default-y="-54">down</stem>
        <staff>2</staff>
      </note>
      <note default-x="160">
        <rest>
          <display-step>D</display-step>
          <display-octave>3</display-octave>
        </rest>
        <duration>2</duration>
        <voice>2</voice>
        <type>quarter</type>
        <staff>2</staff>
      </note>
      <note default-x="210">
        <pitch>
          <step>F</step>
          <octave>3</octave>
        </pitch>
        <duration>2</duration>
        <voice>2</voice>
        <type>quarter</type>
        <stem default-y="-45">down</stem>
        <staff>2</staff>
      </note>
      <note default-x="269">
        <rest>
          <display-step>D</display-step>
          <display-octave>3</display-octave>
        </rest>
        <duration>2</duration>
        <voice>2</voice>
        <type>quarter</type>
        <staff>2</staff>
      </note>
    </measure>
    <!--=======================================================-->
    <measure number="12" width="213">
      <note default-x="15">
        <pitch>
          <step>E</step>
          <octave>4</octave>
        </pitch>
        <duration>2</duration>
        <voice>1</voice>
        <type>quarter</type>
        <stem default-y="-5">up</stem>
        <staff>1</staff>
      </note>
      <note default-x="65">
        <pitch>
          <step>F</step>
          <octave>4</octave>
        </pitch>
        <duration>2</duration>
        <voice>1</voice>
        <type>quarter</type>
        <stem default-y="1">up</stem>
        <staff>1</staff>
      </note>
      <note default-x="115">
        <pitch>
          <step>G</step>
          <octave>4</octave>
        </pitch>
        <duration>4</duration>
        <voice>1</voice>
        <type>half</type>
        <stem default-y="5">up</stem>
        <staff>1</staff>
      </note>
      <backup>
        <duration>8</duration>
      </backup>
      <note default-x="15">
        <pitch>
          <step>G</step>
          <octave>3</octave>
        </pitch>
        <duration>2</duration>
        <voice>2</voice>
        <type>quarter</type>
        <stem default-y="-40">down</stem>
        <staff>2</staff>
      </note>
      <note default-x="65">
        <pitch>
          <step>F</step>
          <octave>3</octave>
        </pitch>
        <duration>2</duration>
        <voice>2</voice>
        <type>quarter</type>
        <stem default-y="-45">down</stem>
        <staff>2</staff>
      </note>
      <note default-x="115">
        <pitch>
          <step>E</step>
          <octave>3</octave>
        </pitch>
        <duration>2</duration>
        <voice>2</voice>
        <type>quarter</type>
        <stem default-y="-49">down</stem>
        <staff>2</staff>
      </note>
      <note default-x="164">
        <pitch>
          <step>A</step>
          <octave>3</octave>
        </pitch>
        <duration>2</duration>
        <voice>2</voice>
        <type>quarter</type>
        <stem default-y="-35">down</stem>
        <staff>2</staff>
      </note>
    </measure>
    <!--=======================================================-->
    <measure number="13" width="230">
      <note default-x="15">
        <pitch>
          <step>A</step>
          <octave>4</octave>
        </pitch>
        <duration>2</duration>
        <voice>1</voice>
        <type>quarter</type>
        <stem default-y="10">up</stem>
        <staff>1</staff>
      </note>
      <note default-x="74">
        <rest>
          <display-step>B</display-step>
          <display-octave>4</display-octave>
        </rest>
        <duration>2</duration>
        <voice>1</voice>
        <type>quarter</type>
        <staff>1</staff>
      </note>
      <direction placement="below">
        <direction-type>
          <wedge type="crescendo" spread="0" default-x="11" default-y="-79"></wedge>
        </direction-type>
        <staff>1</staff>
      </direction>
      <note default-x="123">
        <pitch>
          <step>D</step>
          <octave>4</octave>
        </pitch>
        <duration>2</duration>
        <voice>1</voice>
        <type>quarter</type>
        <stem default-y="-9">up</stem>
        <staff>1</staff>
      </note>
      <note default-x="182">
        <rest>
          <display-step>B</display-step>
          <display-octave>4</display-octave>
        </rest>
        <duration>2</duration>
        <voice>1</voice>
        <type>quarter</type>
        <staff>1</staff>
      </note>
      <backup>
        <duration>8</duration>
      </backup>
      <note default-x="15">
        <pitch>
          <step>D</step>
          <octave>3</octave>
        </pitch>
        <duration>1</duration>
        <voice>2</voice>
        <type>eighth</type>
        <stem default-y="-54">down</stem>
        <staff>2</staff>
        <beam number="1">begin</beam>
        <notations>
          <slur type="start" number="1" bezier-x="13" bezier-y="18" default-x="8" default-y="-7" placement="above"></slur>
        </notations>
      </note>
      <note default-x="44">
        <pitch>
          <step>E</step>
          <octave>3</octave>
        </pitch>
        <duration>1</duration>
        <voice>2</voice>
        <type>eighth</type>
        <stem default-y="-50">down</stem>
        <staff>2</staff>
        <beam number="1">end</beam>
      </note>
      <note default-x="73">
        <pitch>
          <step>F</step>
          <octave>3</octave>
        </pitch>
        <duration>2</duration>
        <voice>2</voice>
        <type>quarter</type>
        <stem default-y="-44">down</stem>
        <staff>2</staff>
        <notations>
          <slur type="stop" number="1" bezier-x="-19" bezier-y="12" default-x="5" default-y="4"></slur>
        </notations>
      </note>
      <note default-x="124">
        <pitch>
          <step>F</step>
          <octave>3</octave>
        </pitch>
        <duration>1</duration>
        <voice>2</voice>
        <type>eighth</type>
        <stem default-y="-42">down</stem>
        <staff>2</staff>
        <beam number="1">begin</beam>
        <notations>
          <slur type="start" number="1" bezier-x="13" bezier-y="16" default-x="8" default-y="0" placement="above"></slur>
        </notations>
      </note>
      <note default-x="153">
        <pitch>
          <step>G</step>
          <octave>3</octave>
        </pitch>
        <duration>1</duration>
        <voice>2</voice>
        <type>eighth</type>
        <stem default-y="-40">down</stem>
        <staff>2</staff>
        <beam number="1">end</beam>
      </note>
      <note default-x="182">
        <pitch>
          <step>A</step>
          <octave>3</octave>
        </pitch>
        <duration>2</duration>
        <voice>2</voice>
        <type>quarter</type>
        <stem default-y="-34">down</stem>
        <staff>2</staff>
        <notations>
          <slur type="stop" number="1" bezier-x="-18" bezier-y="10" default-x="4" default-y="10"></slur>
        </notations>
      </note>
    </measure>
    <!--=======================================================-->
    <measure number="14" width="236">
      <note default-x="15">
        <pitch>
          <step>E</step>
          <octave>4</octave>
        </pitch>
        <duration>1</duration>
        <voice>1</voice>
        <type>eighth</type>
        <stem default-y="-5">up</stem>
        <staff>1</staff>
        <beam number="1">begin</beam>
        <notations>
          <slur type="start" number="1" bezier-x="16" bezier-y="-15" default-x="7" default-y="-49" placement="below"></slur>
        </notations>
      </note>
      <note default-x="44">
        <pitch>
          <step>F</step>
          <octave>4</octave>
        </pitch>
        <duration>1</duration>
        <voice>1</voice>
        <type>eighth</type>
        <stem default-y="1">up</stem>
        <staff>1</staff>
        <beam number="1">end</beam>
      </note>
      <note default-x="74">
        <pitch>
          <step>E</step>
          <octave>4</octave>
        </pitch>
        <duration>2</duration>
        <voice>1</voice>
        <type>quarter</type>
        <stem default-y="-5">up</stem>
        <staff>1</staff>
        <notations>
          <slur type="stop" number="1" bezier-x="-16" bezier-y="-15" default-x="5" default-y="-49"></slur>
        </notations>
      </note>
      <direction placement="below">
        <direction-type>
          <dynamics default-y="-79" relative-x="-11">
            <f/>
          </dynamics>
        </direction-type>
        <staff>1</staff>
        <sound dynamics="100"></sound>
      </direction>
      <direction>
        <direction-type>
          <wedge type="stop" spread="12" default-x="-19"></wedge>
        </direction-type>
        <staff>1</staff>
      </direction>
      <note default-x="123">
        <pitch>
          <step>D</step>
          <octave>4</octave>
        </pitch>
        <duration>2</duration>
        <voice>1</voice>
        <type>quarter</type>
        <stem default-y="-9">up</stem>
        <staff>1</staff>
      </note>
      <note default-x="173">
        <rest>
          <display-step>B</display-step>
          <display-octave>4</display-octave>
        </rest>
        <duration>2</duration>
        <voice>1</voice>
        <type>quarter</type>
        <staff>1</staff>
      </note>
      <backup>
        <duration>8</duration>
      </backup>
      <note default-x="15">
        <pitch>
          <step>G</step>
          <octave>3</octave>
        </pitch>
        <duration>2</duration>
        <voice>2</voice>
        <type>quarter</type>
        <stem default-y="-40">down</stem>
        <staff>2</staff>
        <notations>
          <slur type="start" number="1" bezier-x="14" bezier-y="16" default-x="8" default-y="4" placement="above"></slur>
        </notations>
      </note>
      <note default-x="73">
        <pitch>
          <step>A</step>
          <octave>3</octave>
        </pitch>
        <duration>2</duration>
        <voice>2</voice>
        <type>quarter</type>
        <stem default-y="-34">down</stem>
        <staff>2</staff>
        <notations>
          <slur type="stop" number="1" bezier-x="-17" bezier-y="13" default-x="5" default-y="10"></slur>
        </notations>
      </note>
      <note default-x="123">
        <pitch>
          <step>D</step>
          <octave>3</octave>
        </pitch>
        <duration>2</duration>
        <voice>2</voice>
        <type>quarter</type>
        <stem default-y="-55">down</stem>
        <staff>2</staff>
      </note>
      <note default-x="173">
        <rest>
          <display-step>D</display-step>
          <display-octave>3</display-octave>
        </rest>
        <duration>2</duration>
        <voice>2</voice>
        <type>quarter</type>
        <staff>2</staff>
      </note>
      <barline location="right">
        <bar-style>light-heavy</bar-style>
      </barline>
    </measure>
    <!--=======================================================-->
    <measure number="15" width="332">
      <print new-system="yes">
        <system-layout>
          <system-margins>
            <left-margin>86</left-margin>
            <right-margin>-28</right-margin>
          </system-margins>
          <system-distance>174</system-distance>
        </system-layout>
        <staff-layout number="2">
          <staff-distance>76</staff-distance>
        </staff-layout>
      </print>
      <attributes>
        <key>
          <fifths>1</fifths>
        </key>
        <time>
          <beats>3</beats>
          <beat-type>4</beat-type>
        </time>
        <staff-details print-object="yes"></staff-details>
      </attributes>
      <direction placement="below">
        <direction-type>
          <dynamics default-y="-78" relative-x="3">
            <f/>
          </dynamics>
        </direction-type>
        <staff>1</staff>
        <sound dynamics="100"></sound>
      </direction>
      <note default-x="103">
        <pitch>
          <step>D</step>
          <octave>5</octave>
        </pitch>
        <duration>2</duration>
        <voice>1</voice>
        <type>quarter</type>
        <stem default-y="-45">down</stem>
        <staff>1</staff>
      </note>
      <note default-x="171">
        <pitch>
          <step>B</step>
          <octave>4</octave>
        </pitch>
        <duration>1</duration>
        <voice>1</voice>
        <type>eighth</type>
        <stem default-y="-57">down</stem>
        <staff>1</staff>
        <beam number="1">begin</beam>
        <notations>
          <slur type="start" number="1" bezier-x="32" bezier-y="22" default-x="11" default-y="-9" placement="above"></slur>
        </notations>
      </note>
      <note default-x="212">
        <pitch>
          <step>A</step>
          <octave>4</octave>
        </pitch>
        <duration>1</duration>
        <voice>1</voice>
        <type>eighth</type>
        <stem default-y="-57">down</stem>
        <staff>1</staff>
        <beam number="1">continue</beam>
      </note>
      <note default-x="252">
        <pitch>
          <step>B</step>
          <octave>4</octave>
        </pitch>
        <duration>1</duration>
        <voice>1</voice>
        <type>eighth</type>
        <stem default-y="-57">down</stem>
        <staff>1</staff>
        <beam number="1">continue</beam>
      </note>
      <note default-x="293">
        <pitch>
          <step>C</step>
          <octave>5</octave>
        </pitch>
        <duration>1</duration>
        <voice>1</voice>
        <type>eighth</type>
        <stem default-y="-57">down</stem>
        <staff>1</staff>
        <beam number="1">end</beam>
        <notations>
          <slur type="stop" number="1" bezier-x="-35" bezier-y="17" default-x="4" default-y="-4"></slur>
        </notations>
      </note>
      <backup>
        <duration>6</duration>
      </backup>
      <note default-x="103">
        <pitch>
          <step>G</step>
          <octave>3</octave>
        </pitch>
        <duration>6</duration>
        <voice>2</voice>
        <type>half</type>
        <dot/>
        <stem default-y="-40">down</stem>
        <staff>2</staff>
      </note>
    </measure>
    <!--=======================================================-->
    <measure number="16" width="232">
      <direction placement="below">
        <direction-type>
          <wedge type="crescendo" spread="0" default-x="75" default-y="-71"></wedge>
        </direction-type>
        <staff>1</staff>
      </direction>
      <direction>
        <direction-type>
          <wedge type="stop" spread="12" default-x="160"></wedge>
        </direction-type>
        <staff>1</staff>
      </direction>
      <note default-x="14">
        <pitch>
          <step>D</step>
          <octave>5</octave>
        </pitch>
        <duration>6</duration>
        <voice>1</voice>
        <type>half</type>
        <dot/>
        <stem default-y="-45">down</stem>
        <staff>1</staff>
      </note>
      <backup>
        <duration>6</duration>
      </backup>
      <note default-x="15">
        <rest>
          <display-step>D</display-step>
          <display-octave>3</display-octave>
        </rest>
        <duration>2</duration>
        <voice>2</voice>
        <type>quarter</type>
        <staff>2</staff>
      </note>
      <note default-x="84">
        <pitch>
          <step>G</step>
          <octave>3</octave>
        </pitch>
        <duration>1</duration>
        <voice>2</voice>
        <type>eighth</type>
        <stem default-y="-40">down</stem>
        <staff>2</staff>
        <beam number="1">begin</beam>
        <notations>
          <slur type="start" number="1" bezier-x="21" bezier-y="21" default-x="8" default-y="5" placement="above"></slur>
        </notations>
      </note>
      <note default-x="124">
        <pitch>
          <step>A</step>
          <octave>3</octave>
        </pitch>
        <duration>1</duration>
        <voice>2</voice>
        <type>eighth</type>
        <stem default-y="-35">down</stem>
        <staff>2</staff>
        <beam number="1">end</beam>
      </note>
      <note default-x="165">
        <pitch>
          <step>B</step>
          <octave>3</octave>
        </pitch>
        <duration>2</duration>
        <voice>2</voice>
        <type>quarter</type>
        <stem default-y="-30">down</stem>
        <staff>2</staff>
        <notations>
          <slur type="stop" number="1" bezier-x="-25" bezier-y="14" default-x="4" default-y="14"></slur>
        </notations>
      </note>
    </measure>
    <!--=======================================================-->
    <measure number="17" width="232">
      <note default-x="15">
        <pitch>
          <step>A</step>
          <octave>4</octave>
        </pitch>
        <duration>2</duration>
        <voice>1</voice>
        <type>quarter</type>
        <stem default-y="10">up</stem>
        <staff>1</staff>
      </note>
      <note default-x="84">
        <pitch>
          <step>A</step>
          <octave>4</octave>
        </pitch>
        <duration>1</duration>
        <voice>1</voice>
        <type>eighth</type>
        <stem default-y="10">up</stem>
        <staff>1</staff>
        <beam number="1">begin</beam>
        <notations>
          <slur type="start" number="1" bezier-x="25" bezier-y="12" default-x="18" default-y="15" placement="above"></slur>
        </notations>
      </note>
      <note default-x="124">
        <pitch>
          <step>B</step>
          <octave>4</octave>
        </pitch>
        <duration>1</duration>
        <voice>1</voice>
        <type>eighth</type>
        <stem default-y="15">up</stem>
        <staff>1</staff>
        <beam number="1">end</beam>
      </note>
      <direction placement="below">
        <direction-type>
          <wedge type="diminuendo" spread="11" default-x="15" default-y="-78"></wedge>
        </direction-type>
        <staff>1</staff>
      </direction>
      <note default-x="164">
        <pitch>
          <step>C</step>
          <octave>5</octave>
        </pitch>
        <duration>2</duration>
        <voice>1</voice>
        <type>quarter</type>
        <stem default-y="-50">down</stem>
        <staff>1</staff>
        <notations>
          <slur type="stop" number="1" bezier-x="-13" bezier-y="25" default-x="6" default-y="-5"></slur>
        </notations>
      </note>
      <backup>
        <duration>6</duration>
      </backup>
      <note default-x="15">
        <pitch>
          <step>C</step>
          <octave>4</octave>
        </pitch>
        <duration>2</duration>
        <voice>2</voice>
        <type>quarter</type>
        <stem default-y="-25">down</stem>
        <staff>2</staff>
      </note>
      <note default-x="83">
        <rest>
          <display-step>D</display-step>
          <display-octave>3</display-octave>
        </rest>
        <duration>2</duration>
        <voice>2</voice>
        <type>quarter</type>
        <staff>2</staff>
      </note>
      <note default-x="165">
        <pitch>
          <step>A</step>
          <octave>3</octave>
        </pitch>
        <duration>2</duration>
        <voice>2</voice>
        <type>quarter</type>
        <stem default-y="-35">down</stem>
        <staff>2</staff>
      </note>
    </measure>
    <!--=======================================================-->
    <measure number="18" width="199">
      <note default-x="14">
        <pitch>
          <step>B</step>
          <octave>4</octave>
        </pitch>
        <duration>2</duration>
        <voice>1</voice>
        <type>quarter</type>
        <stem default-y="-54">down</stem>
        <staff>1</staff>
        <notations>
          <slur type="start" number="1" bezier-x="20" bezier-y="13" default-x="9" default-y="-5" placement="above"></slur>
        </notations>
      </note>
      <direction>
        <direction-type>
          <wedge type="stop" spread="0" default-x="9"></wedge>
        </direction-type>
        <staff>1</staff>
      </direction>
      <note default-x="83">
        <pitch>
          <step>G</step>
          <octave>4</octave>
        </pitch>
        <duration>4</duration>
        <voice>1</voice>
        <type>half</type>
        <stem default-y="5">up</stem>
        <staff>1</staff>
        <notations>
          <slur type="stop" number="1" bezier-x="-19" bezier-y="16" default-x="4" default-y="-9"></slur>
        </notations>
      </note>
      <backup>
        <duration>6</duration>
      </backup>
      <note default-x="15">
        <pitch>
          <step>G</step>
          <octave>3</octave>
        </pitch>
        <duration>6</duration>
        <voice>2</voice>
        <type>half</type>
        <dot/>
        <stem default-y="-40">down</stem>
        <staff>2</staff>
      </note>
      <barline location="right">
        <bar-style>light-heavy</bar-style>
      </barline>
    </measure>
    <!--=======================================================-->
    <measure number="19" width="311">
      <print new-system="yes">
        <system-layout>
          <system-margins>
            <left-margin>86</left-margin>
            <right-margin>-28</right-margin>
          </system-margins>
          <system-distance>174</system-distance>
        </system-layout>
        <staff-layout number="2">
          <staff-distance>77</staff-distance>
        </staff-layout>
      </print>
      <attributes>
        <key>
          <fifths>2</fifths>
        </key>
        <time>
          <beats>4</beats>
          <beat-type>4</beat-type>
        </time>
        <staff-details print-object="yes"></staff-details>
      </attributes>
      <direction placement="below">
        <direction-type>
          <dynamics default-y="-77" relative-x="-8">
            <f/>
          </dynamics>
        </direction-type>
        <staff>1</staff>
        <sound dynamics="100"></sound>
      </direction>
      <direction placement="above">
        <direction-type>
          <words default-y="29" relative-x="-39" font-family="serif" font-size="13" font-weight="bold">Moderate</words>
        </direction-type>
        <staff>1</staff>
      </direction>
      <note default-x="114">
        <pitch>
          <step>F</step>
          <alter>1</alter>
          <octave>4</octave>
        </pitch>
        <duration>2</duration>
        <voice>1</voice>
        <type>quarter</type>
        <stem default-y="1">up</stem>
        <staff>1</staff>
      </note>
      <note default-x="168">
        <pitch>
          <step>F</step>
          <alter>1</alter>
          <octave>4</octave>
        </pitch>
        <duration>4</duration>
        <voice>1</voice>
        <type>half</type>
        <stem default-y="1">up</stem>
        <staff>1</staff>
      </note>
      <note default-x="249">
        <pitch>
          <step>G</step>
          <octave>4</octave>
        </pitch>
        <duration>1</duration>
        <voice>1</voice>
        <type>eighth</type>
        <stem default-y="2">up</stem>
        <staff>1</staff>
        <beam number="1">begin</beam>
        <notations>
          <slur type="start" number="1" bezier-x="3" bezier-y="-14" default-x="6" default-y="-36" placement="below"></slur>
        </notations>
      </note>
      <note default-x="280">
        <pitch>
          <step>E</step>
          <octave>4</octave>
        </pitch>
        <duration>1</duration>
        <voice>1</voice>
        <type>eighth</type>
        <stem default-y="0">up</stem>
        <staff>1</staff>
        <beam number="1">end</beam>
        <notations>
          <slur type="stop" number="1" bezier-x="-12" bezier-y="-8" default-x="5" default-y="-48"></slur>
        </notations>
      </note>
      <backup>
        <duration>8</duration>
      </backup>
      <note default-x="114">
        <pitch>
          <step>D</step>
          <octave>3</octave>
        </pitch>
        <duration>4</duration>
        <voice>2</voice>
        <type>half</type>
        <stem default-y="-54">down</stem>
        <staff>2</staff>
      </note>
      <note default-x="209">
        <pitch>
          <step>E</step>
          <octave>3</octave>
        </pitch>
        <duration>4</duration>
        <voice>2</voice>
        <type>half</type>
        <stem default-y="-49">down</stem>
        <staff>2</staff>
      </note>
    </measure>
    <!--=======================================================-->
    <measure number="20" width="225">
      <note default-x="15">
        <pitch>
          <step>D</step>
          <octave>4</octave>
        </pitch>
        <duration>2</duration>
        <voice>1</voice>
        <type>quarter</type>
        <stem default-y="-9">up</stem>
        <staff>1</staff>
        <notations>
          <slur type="start" number="1" bezier-x="19" bezier-y="-7" default-x="8" default-y="-54" placement="below"></slur>
        </notations>
      </note>
      <note default-x="69">
        <pitch>
          <step>A</step>
          <octave>4</octave>
        </pitch>
        <duration>2</duration>
        <voice>1</voice>
        <type>quarter</type>
        <stem default-y="10">up</stem>
        <staff>1</staff>
        <notations>
          <slur type="stop" number="1" bezier-x="-10" bezier-y="-18" default-x="5" default-y="-34"></slur>
        </notations>
      </note>
      <note default-x="122">
        <pitch>
          <step>A</step>
          <octave>4</octave>
        </pitch>
        <duration>4</duration>
        <tie type="start"></tie>
        <voice>1</voice>
        <type>half</type>
        <stem default-y="10">up</stem>
        <staff>1</staff>
        <notations>
          <tied type="start" orientation="under"></tied>
        </notations>
      </note>
      <backup>
        <duration>8</duration>
      </backup>
      <note default-x="15">
        <pitch>
          <step>F</step>
          <alter>1</alter>
          <octave>3</octave>
        </pitch>
        <duration>6</duration>
        <voice>2</voice>
        <type>half</type>
        <dot/>
        <stem default-y="-45">down</stem>
        <staff>2</staff>
      </note>
      <note default-x="162">
        <pitch>
          <step>F</step>
          <alter>1</alter>
          <octave>3</octave>
        </pitch>
        <duration>1</duration>
        <voice>2</voice>
        <type>eighth</type>
        <stem default-y="-42">down</stem>
        <staff>2</staff>
        <beam number="1">begin</beam>
        <notations>
          <slur type="start" number="1" bezier-x="6" bezier-y="11" default-x="9" default-y="1" placement="above"></slur>
        </notations>
      </note>
      <note default-x="194">
        <pitch>
          <step>G</step>
          <octave>3</octave>
        </pitch>
        <duration>1</duration>
        <voice>2</voice>
        <type>eighth</type>
        <stem default-y="-40">down</stem>
        <staff>2</staff>
        <beam number="1">end</beam>
        <notations>
          <slur type="stop" number="1" bezier-x="-8" bezier-y="9" default-x="6" default-y="4"></slur>
        </notations>
      </note>
    </measure>
    <!--=======================================================-->
    <measure number="21" width="239">
      <note default-x="15">
        <pitch>
          <step>A</step>
          <octave>4</octave>
        </pitch>
        <duration>2</duration>
        <tie type="stop"></tie>
        <voice>1</voice>
        <type>quarter</type>
        <stem default-y="10">up</stem>
        <staff>1</staff>
        <notations>
          <tied type="stop"></tied>
        </notations>
      </note>
      <direction placement="below">
        <direction-type>
          <wedge type="diminuendo" spread="12" default-x="4" default-y="-80"></wedge>
        </direction-type>
        <staff>1</staff>
      </direction>
      <note default-x="69">
        <pitch>
          <step>G</step>
          <octave>4</octave>
        </pitch>
        <duration>1</duration>
        <voice>1</voice>
        <type>eighth</type>
        <stem default-y="3">up</stem>
        <staff>1</staff>
        <beam number="1">begin</beam>
        <notations>
          <slur type="start" number="1" bezier-x="32" bezier-y="-20" default-x="8" default-y="-41" placement="below"></slur>
        </notations>
      </note>
      <note default-x="100">
        <pitch>
          <step>F</step>
          <alter>1</alter>
          <octave>4</octave>
        </pitch>
        <duration>1</duration>
        <voice>1</voice>
        <type>eighth</type>
        <stem default-y="1">up</stem>
        <staff>1</staff>
        <beam number="1">end</beam>
      </note>
      <note default-x="132">
        <pitch>
          <step>E</step>
          <octave>4</octave>
        </pitch>
        <duration>2</duration>
        <voice>1</voice>
        <type>quarter</type>
        <stem default-y="-5">up</stem>
        <staff>1</staff>
      </note>
      <note default-x="186">
        <pitch>
          <step>A</step>
          <octave>4</octave>
        </pitch>
        <duration>2</duration>
        <voice>1</voice>
        <type>quarter</type>
        <stem default-y="10">up</stem>
        <staff>1</staff>
        <notations>
          <slur type="stop" number="1" bezier-x="-29" bezier-y="-25" default-x="5" default-y="-33"></slur>
        </notations>
      </note>
      <backup>
        <duration>8</duration>
      </backup>
      <note default-x="14">
        <pitch>
          <step>A</step>
          <octave>3</octave>
        </pitch>
        <duration>4</duration>
        <voice>2</voice>
        <type>half</type>
        <stem default-y="-35">down</stem>
        <staff>2</staff>
      </note>
      <note default-x="132">
        <pitch>
          <step>G</step>
          <octave>3</octave>
        </pitch>
        <duration>4</duration>
        <voice>2</voice>
        <type>half</type>
        <stem default-y="-40">down</stem>
        <staff>2</staff>
      </note>
    </measure>
    <!--=======================================================-->
    <measure number="22" width="220">
      <note default-x="15">
        <pitch>
          <step>A</step>
          <octave>4</octave>
        </pitch>
        <duration>2</duration>
        <voice>1</voice>
        <type>quarter</type>
        <stem default-y="10">up</stem>
        <staff>1</staff>
        <notations>
          <slur type="start" number="1" bezier-x="10" bezier-y="-19" default-x="7" default-y="-34" placement="below"></slur>
        </notations>
      </note>
      <note default-x="69">
        <pitch>
          <step>D</step>
          <octave>4</octave>
        </pitch>
        <duration>2</duration>
        <voice>1</voice>
        <type>quarter</type>
        <stem default-y="-9">up</stem>
        <staff>1</staff>
        <notations>
          <slur type="stop" number="1" bezier-x="-20" bezier-y="-8" default-x="5" default-y="-54"></slur>
        </notations>
      </note>
      <direction placement="below">
        <direction-type>
          <dynamics default-y="-82" relative-x="-6">
            <p/>
          </dynamics>
        </direction-type>
        <staff>1</staff>
        <sound dynamics="56"></sound>
      </direction>
      <direction>
        <direction-type>
          <wedge type="stop" spread="0" default-x="-21"></wedge>
        </direction-type>
        <staff>1</staff>
      </direction>
      <note default-x="127">
        <pitch>
          <step>D</step>
          <octave>4</octave>
        </pitch>
        <duration>4</duration>
        <voice>1</voice>
        <type>half</type>
        <stem default-y="-9">up</stem>
        <staff>1</staff>
      </note>
      <backup>
        <duration>8</duration>
      </backup>
      <note default-x="14">
        <pitch>
          <step>F</step>
          <alter>1</alter>
          <octave>3</octave>
        </pitch>
        <duration>3</duration>
        <voice>2</voice>
        <type>quarter</type>
        <dot/>
        <stem default-y="-44">down</stem>
        <staff>2</staff>
        <notations>
          <slur type="start" number="1" bezier-x="24" bezier-y="15" default-x="9" default-y="4" placement="above"></slur>
        </notations>
      </note>
      <note default-x="95">
        <pitch>
          <step>E</step>
          <octave>3</octave>
        </pitch>
        <duration>1</duration>
        <voice>2</voice>
        <type>eighth</type>
        <stem default-y="-50">down</stem>
        <staff>2</staff>
        <notations>
          <slur type="stop" number="1" bezier-x="-20" bezier-y="20" default-x="5" default-y="-5"></slur>
        </notations>
      </note>
      <note default-x="127">
        <pitch>
          <step>D</step>
          <octave>3</octave>
        </pitch>
        <duration>4</duration>
        <voice>2</voice>
        <type>half</type>
        <stem default-y="-54">down</stem>
        <staff>2</staff>
      </note>
      <barline location="right">
        <bar-style>light-heavy</bar-style>
      </barline>
    </measure>
  </part>
</score-partwise>