<?xml version="1.0" encoding="UTF-8"?>
<!DOCTYPE score-partwise PUBLIC "-//Recordare//DTD MusicXML 3.0.1 Partwise//EN" "http://www.musicxml.org/dtds/partwise.dtd">
<score-partwise version="3.0.1">
  <movement-number>null</movement-number>
  <movement-title>[Audiveris detected movement]</movement-title>
  <identification>
    <encoding>
      <software>Audiveris 5.0.0</software>
      <supports type="yes" element="print" attribute="new-system" value="yes"></supports>
      <supports type="yes" element="print" attribute="new-page" value="yes"></supports>
      <software>ProxyMusic 3.0.1.8e1a2c5</software>
      <encoding-date>2017-07-18</encoding-date>
    </encoding>
    <source>/Users/mb/Desktop/Janis.so/06_qmul/BB/06_grade_pdfs/AB-Sight-Reading-3.pdf</source>
    <miscellaneous>
      <miscellaneous-field name="source-file">/Users/mb/Desktop/Janis.so/06_qmul/BB/06_grade_pdfs/AB-Sight-Reading-3.pdf</miscellaneous-field>
      <miscellaneous-field name="source-sheet-10">3 4 5</miscellaneous-field>
    </miscellaneous>
  </identification>
  <defaults>
    <scaling>
      <millimeters>6.0960</millimeters>
      <tenths>40</tenths>
    </scaling>
    <page-layout>
      <page-height>1666</page-height>
      <page-width>1249</page-width>
      <page-margins type="both">
        <left-margin>80</left-margin>
        <right-margin>80</right-margin>
        <top-margin>80</top-margin>
        <bottom-margin>80</bottom-margin>
      </page-margins>
    </page-layout>
    <lyric-font font-family="Serif" font-size="10"></lyric-font>
  </defaults>
  <credit page="1">
    <credit-words default-x="281" default-y="624" font-family="serif" font-size="12" font-weight="bold">Schemando</credit-words>
  </credit>
  <credit page="1">
    <credit-words default-x="872" default-y="589" font-family="serif" font-size="7">4</credit-words>
  </credit>
  <part-list>
    <score-part id="P1">
      <part-name>33</part-name>
      <score-instrument id="P1-I1">
        <instrument-name>Acoustic Grand Piano</instrument-name>
      </score-instrument>
      <midi-instrument id="P1-I1">
        <midi-channel>1</midi-channel>
        <midi-program>1</midi-program>
        <volume>78</volume>
      </midi-instrument>
    </score-part>
  </part-list>
  <!--= = = = = = = = = = = = = = = = = = = = = = = = = = = = =-->
  <part id="P1">
    <!--=======================================================-->
    <measure number="1" width="323">
      <print>
        <system-layout>
          <system-margins>
            <left-margin>123</left-margin>
            <right-margin>-57</right-margin>
          </system-margins>
          <top-system-distance>649</top-system-distance>
        </system-layout>
        <staff-layout number="2">
          <staff-distance>68</staff-distance>
        </staff-layout>
        <measure-numbering>system</measure-numbering>
      </print>
      <attributes>
        <divisions>4</divisions>
        <key>
          <fifths>-2</fifths>
        </key>
        <time>
          <beats>4</beats>
          <beat-type>4</beat-type>
        </time>
        <staves>2</staves>
        <clef number="1">
          <sign>G</sign>
          <line>2</line>
        </clef>
        <clef number="2">
          <sign>F</sign>
          <line>4</line>
        </clef>
        <staff-details print-object="yes"></staff-details>
      </attributes>
      <direction>
        <direction-type>
          <words></words>
        </direction-type>
        <sound tempo="120"></sound>
      </direction>
      <forward>
        <duration>8</duration>
        <voice>1</voice>
        <staff>1</staff>
      </forward>
      <note default-x="218">
        <pitch>
          <step>A</step>
          <octave>4</octave>
        </pitch>
        <duration>6</duration>
        <voice>1</voice>
        <type>quarter</type>
        <dot/>
        <stem default-y="1">up</stem>
        <staff>1</staff>
        <notations>
          <slur type="start" number="1" bezier-x="21" bezier-y="-13" default-x="7" default-y="-34" placement="below"></slur>
        </notations>
      </note>
      <note default-x="292">
        <pitch>
          <step>G</step>
          <octave>4</octave>
        </pitch>
        <duration>2</duration>
        <voice>1</voice>
        <type>eighth</type>
        <stem default-y="6">up</stem>
        <staff>1</staff>
        <notations>
          <slur type="stop" number="1" bezier-x="-22" bezier-y="-11" default-x="4" default-y="-37"></slur>
        </notations>
      </note>
      <backup>
        <duration>16</duration>
      </backup>
      <note default-x="112">
        <rest>
          <display-step>D</display-step>
          <display-octave>3</display-octave>
        </rest>
        <duration>4</duration>
        <voice>2</voice>
        <type>quarter</type>
        <staff>2</staff>
      </note>
      <note default-x="164">
        <pitch>
          <step>G</step>
          <octave>3</octave>
        </pitch>
        <duration>4</duration>
        <voice>2</voice>
        <type>quarter</type>
        <stem default-y="-37">down</stem>
        <staff>2</staff>
        <notations>
          <slur type="start" number="1" bezier-x="28" bezier-y="24" default-x="9" default-y="5" placement="above"></slur>
        </notations>
      </note>
      <note default-x="217">
        <pitch>
          <step>B</step>
          <alter>-1</alter>
          <octave>3</octave>
        </pitch>
        <duration>4</duration>
        <voice>2</voice>
        <type>quarter</type>
        <stem default-y="-30">down</stem>
        <staff>2</staff>
      </note>
      <note default-x="270">
        <pitch>
          <step>C</step>
          <octave>4</octave>
        </pitch>
        <duration>4</duration>
        <voice>2</voice>
        <type>quarter</type>
        <stem default-y="-25">down</stem>
        <staff>2</staff>
        <notations>
          <slur type="stop" number="1" bezier-x="-31" bezier-y="17" default-x="4" default-y="18"></slur>
        </notations>
      </note>
    </measure>
    <!--=======================================================-->
    <measure number="2" width="224">
      <note default-x="19">
        <pitch>
          <step>F</step>
          <alter>1</alter>
          <octave>4</octave>
        </pitch>
        <duration>12</duration>
        <voice>1</voice>
        <type>half</type>
        <dot/>
        <accidental>sharp</accidental>
        <stem default-y="1">up</stem>
        <staff>1</staff>
      </note>
      <direction placement="below">
        <direction-type>
          <wedge type="crescendo" spread="0" default-x="4" default-y="-75"></wedge>
        </direction-type>
        <staff>1</staff>
      </direction>
      <note default-x="167">
        <pitch>
          <step>G</step>
          <octave>4</octave>
        </pitch>
        <duration>2</duration>
        <voice>1</voice>
        <type>eighth</type>
        <stem default-y="7">up</stem>
        <staff>1</staff>
        <beam number="1">begin</beam>
        <notations>
          <slur type="start" number="1" bezier-x="9" bezier-y="-8" default-x="8" default-y="-42" placement="below"></slur>
        </notations>
      </note>
      <note default-x="197">
        <pitch>
          <step>A</step>
          <octave>4</octave>
        </pitch>
        <duration>2</duration>
        <voice>1</voice>
        <type>eighth</type>
        <stem default-y="12">up</stem>
        <staff>1</staff>
        <beam number="1">end</beam>
        <notations>
          <slur type="stop" number="1" bezier-x="-4" bezier-y="-11" default-x="4" default-y="-35"></slur>
        </notations>
      </note>
      <backup>
        <duration>16</duration>
      </backup>
      <note default-x="18">
        <pitch>
          <step>D</step>
          <octave>4</octave>
        </pitch>
        <duration>6</duration>
        <voice>2</voice>
        <type>quarter</type>
        <dot/>
        <stem default-y="-20">down</stem>
        <staff>2</staff>
        <notations>
          <slur type="start" number="1" bezier-x="27" bezier-y="15" default-x="8" default-y="24" placement="above"></slur>
        </notations>
      </note>
      <note default-x="83">
        <pitch>
          <step>C</step>
          <octave>4</octave>
        </pitch>
        <duration>2</duration>
        <voice>2</voice>
        <type>eighth</type>
        <stem default-y="-25">down</stem>
        <staff>2</staff>
      </note>
      <note default-x="113">
        <pitch>
          <step>B</step>
          <alter>-1</alter>
          <octave>3</octave>
        </pitch>
        <duration>4</duration>
        <voice>2</voice>
        <type>quarter</type>
        <stem default-y="-30">down</stem>
        <staff>2</staff>
        <notations>
          <slur type="stop" number="1" bezier-x="-25" bezier-y="21" default-x="4" default-y="14"></slur>
        </notations>
      </note>
      <note default-x="165">
        <pitch>
          <step>A</step>
          <octave>3</octave>
        </pitch>
        <duration>4</duration>
        <voice>2</voice>
        <type>quarter</type>
        <stem default-y="-34">down</stem>
        <staff>2</staff>
      </note>
    </measure>
    <!--=======================================================-->
    <measure number="3" width="238">
      <note default-x="16">
        <pitch>
          <step>B</step>
          <alter>-1</alter>
          <octave>4</octave>
        </pitch>
        <duration>2</duration>
        <voice>1</voice>
        <type>eighth</type>
        <stem default-y="-54">down</stem>
        <staff>1</staff>
        <beam number="1">begin</beam>
        <notations>
          <slur type="start" number="1" bezier-x="14" bezier-y="18" default-x="7" default-y="-6" placement="above"></slur>
        </notations>
      </note>
      <direction>
        <direction-type>
          <wedge type="stop" spread="12" default-x="12"></wedge>
        </direction-type>
        <staff>1</staff>
      </direction>
      <note default-x="45">
        <pitch>
          <step>C</step>
          <octave>5</octave>
        </pitch>
        <duration>2</duration>
        <voice>1</voice>
        <type>eighth</type>
        <stem default-y="-49">down</stem>
        <staff>1</staff>
        <beam number="1">end</beam>
      </note>
      <note default-x="74">
        <pitch>
          <step>D</step>
          <octave>5</octave>
        </pitch>
        <duration>4</duration>
        <voice>1</voice>
        <type>quarter</type>
        <stem default-y="-45">down</stem>
        <staff>1</staff>
        <notations>
          <slur type="stop" number="1" bezier-x="-20" bezier-y="12" default-x="5" default-y="5"></slur>
        </notations>
      </note>
      <note default-x="127">
        <pitch>
          <step>C</step>
          <octave>5</octave>
        </pitch>
        <duration>4</duration>
        <voice>1</voice>
        <type>quarter</type>
        <stem default-y="-50">down</stem>
        <staff>1</staff>
        <notations>
          <slur type="start" number="1" bezier-x="19" bezier-y="25" default-x="9" default-y="-5" placement="above"></slur>
        </notations>
      </note>
      <note default-x="180">
        <pitch>
          <step>B</step>
          <alter>-1</alter>
          <octave>4</octave>
        </pitch>
        <duration>2</duration>
        <voice>1</voice>
        <type>eighth</type>
        <stem default-y="15">up</stem>
        <staff>1</staff>
        <beam number="1">begin</beam>
      </note>
      <note default-x="210">
        <pitch>
          <step>A</step>
          <octave>4</octave>
        </pitch>
        <duration>2</duration>
        <voice>1</voice>
        <type>eighth</type>
        <stem default-y="12">up</stem>
        <staff>1</staff>
        <beam number="1">end</beam>
        <notations>
          <slur type="stop" number="1" bezier-x="-29" bezier-y="11" default-x="7" default-y="17"></slur>
        </notations>
      </note>
      <backup>
        <duration>16</duration>
      </backup>
      <note default-x="15">
        <pitch>
          <step>G</step>
          <octave>3</octave>
        </pitch>
        <duration>4</duration>
        <voice>2</voice>
        <type>quarter</type>
        <stem default-y="-40">down</stem>
        <staff>2</staff>
      </note>
      <note default-x="76">
        <pitch>
          <step>E</step>
          <octave>3</octave>
        </pitch>
        <duration>4</duration>
        <voice>2</voice>
        <type>quarter</type>
        <accidental>natural</accidental>
        <stem default-y="-49">down</stem>
        <staff>2</staff>
      </note>
      <note default-x="114">
        <pitch>
          <step>E</step>
          <octave>3</octave>
        </pitch>
        <duration>4</duration>
        <voice>2</voice>
        <type>quarter</type>
        <stem default-y="-44">down</stem>
        <staff>2</staff>
      </note>
      <note default-x="127">
        <chord/>
        <pitch>
          <step>F</step>
          <octave>3</octave>
        </pitch>
        <duration>4</duration>
        <voice>2</voice>
        <type>quarter</type>
        <stem default-y="-44">down</stem>
        <staff>2</staff>
      </note>
      <note default-x="179">
        <pitch>
          <step>D</step>
          <octave>3</octave>
        </pitch>
        <duration>4</duration>
        <voice>2</voice>
        <type>quarter</type>
        <stem default-y="-54">down</stem>
        <staff>2</staff>
      </note>
    </measure>
    <!--=======================================================-->
    <measure number="4" width="238">
      <direction placement="below">
        <direction-type>
          <wedge type="diminuendo" spread="12" default-x="12" default-y="-75"></wedge>
        </direction-type>
        <staff>1</staff>
      </direction>
      <note default-x="15">
        <pitch>
          <step>G</step>
          <octave>4</octave>
        </pitch>
        <duration>12</duration>
        <voice>1</voice>
        <type>half</type>
        <dot/>
        <stem default-y="14">up</stem>
        <staff>1</staff>
      </note>
      <note default-x="15">
        <chord/>
        <pitch>
          <step>B</step>
          <alter>-1</alter>
          <octave>4</octave>
        </pitch>
        <duration>12</duration>
        <voice>1</voice>
        <type>half</type>
        <dot/>
        <stem default-y="14">up</stem>
        <staff>1</staff>
      </note>
      <direction>
        <direction-type>
          <wedge type="stop" spread="0" default-x="-42"></wedge>
        </direction-type>
        <staff>1</staff>
      </direction>
      <note default-x="172">
        <rest>
          <display-step>B</display-step>
          <display-octave>4</display-octave>
        </rest>
        <duration>4</duration>
        <voice>1</voice>
        <type>quarter</type>
        <staff>1</staff>
      </note>
      <backup>
        <duration>16</duration>
      </backup>
      <note default-x="15">
        <rest>
          <display-step>D</display-step>
          <display-octave>3</display-octave>
        </rest>
        <duration>4</duration>
        <voice>2</voice>
        <type>quarter</type>
        <staff>2</staff>
      </note>
      <note default-x="67">
        <pitch>
          <step>G</step>
          <octave>3</octave>
        </pitch>
        <duration>4</duration>
        <voice>2</voice>
        <type>quarter</type>
        <stem default-y="-39">down</stem>
        <staff>2</staff>
        <notations>
          <slur type="start" number="1" bezier-x="17" bezier-y="6" default-x="9" default-y="5" placement="above"></slur>
        </notations>
      </note>
      <note default-x="121">
        <pitch>
          <step>G</step>
          <octave>2</octave>
        </pitch>
        <duration>4</duration>
        <voice>2</voice>
        <type>quarter</type>
        <stem default-y="-5">up</stem>
        <staff>2</staff>
        <notations>
          <slur type="stop" number="1" bezier-x="-12" bezier-y="14" default-x="4" default-y="-9"></slur>
        </notations>
      </note>
      <note default-x="172">
        <rest>
          <display-step>D</display-step>
          <display-octave>3</display-octave>
        </rest>
        <duration>4</duration>
        <voice>2</voice>
        <type>quarter</type>
        <staff>2</staff>
      </note>
      <barline location="right">
        <bar-style>light-heavy</bar-style>
      </barline>
    </measure>
    <!--=======================================================-->
    <measure number="5" width="255">
      <print new-system="yes">
        <system-layout>
          <system-margins>
            <left-margin>124</left-margin>
            <right-margin>-59</right-margin>
          </system-margins>
          <system-distance>210</system-distance>
        </system-layout>
        <staff-layout number="2">
          <staff-distance>68</staff-distance>
        </staff-layout>
      </print>
      <attributes>
        <key>
          <fifths>2</fifths>
        </key>
        <time>
          <beats>3</beats>
          <beat-type>8</beat-type>
        </time>
        <staff-details print-object="yes"></staff-details>
      </attributes>
      <direction placement="above">
        <direction-type>
          <words default-y="44" relative-x="-38" font-family="serif" font-size="12" font-weight="bold">Schemando</words>
        </direction-type>
        <staff>1</staff>
      </direction>
      <note default-x="115">
        <pitch>
          <step>D</step>
          <octave>5</octave>
        </pitch>
        <duration>1</duration>
        <voice>1</voice>
        <type>16th</type>
        <stem default-y="-47">down</stem>
        <staff>1</staff>
        <beam number="1">begin</beam>
        <beam number="2">begin</beam>
        <notations>
          <slur type="start" number="1" bezier-x="40" bezier-y="24" default-x="12" default-y="2" placement="above"></slur>
        </notations>
      </note>
      <note default-x="143">
        <pitch>
          <step>B</step>
          <octave>4</octave>
        </pitch>
        <duration>1</duration>
        <voice>1</voice>
        <type>16th</type>
        <stem default-y="-51">down</stem>
        <staff>1</staff>
        <beam number="1">end</beam>
        <beam number="2">end</beam>
      </note>
      <note default-x="171">
        <pitch>
          <step>D</step>
          <octave>5</octave>
        </pitch>
        <duration>4</duration>
        <voice>1</voice>
        <type>quarter</type>
        <stem default-y="-44">down</stem>
        <staff>1</staff>
      </note>
      <backup>
        <duration>6</duration>
      </backup>
      <direction placement="below">
        <direction-type>
          <pedal type="start" line="no" halign="left" default-x="67" default-y="-211"></pedal>
        </direction-type>
        <staff>2</staff>
        <sound damper-pedal="yes"></sound>
      </direction>
      <note default-x="114">
        <pitch>
          <step>B</step>
          <octave>3</octave>
        </pitch>
        <duration>4</duration>
        <voice>2</voice>
        <type>quarter</type>
        <stem default-y="-30">down</stem>
        <staff>2</staff>
        <notations>
          <slur type="start" number="2" bezier-x="29" bezier-y="14" default-x="8" default-y="14" placement="above"></slur>
        </notations>
      </note>
      <note default-x="211">
        <pitch>
          <step>A</step>
          <octave>3</octave>
        </pitch>
        <duration>2</duration>
        <voice>2</voice>
        <type>eighth</type>
        <stem default-y="-35">down</stem>
        <staff>2</staff>
        <notations>
          <slur type="stop" number="2" bezier-x="-27" bezier-y="18" default-x="4" default-y="9"></slur>
        </notations>
      </note>
    </measure>
    <!--=======================================================-->
    <measure number="6" width="148">
      <note default-x="14">
        <pitch>
          <step>E</step>
          <octave>5</octave>
        </pitch>
        <duration>2</duration>
        <voice>1</voice>
        <type>eighth</type>
        <stem default-y="-40">down</stem>
        <staff>1</staff>
        <notations>
          <slur type="stop" number="1" bezier-x="-41" bezier-y="22" default-x="6" default-y="4"></slur>
        </notations>
      </note>
      <note default-x="59">
        <rest>
          <display-step>B</display-step>
          <display-octave>4</display-octave>
        </rest>
        <duration>2</duration>
        <voice>1</voice>
        <type>eighth</type>
        <staff>1</staff>
      </note>
      <note default-x="104">
        <rest>
          <display-step>B</display-step>
          <display-octave>4</display-octave>
        </rest>
        <duration>2</duration>
        <voice>1</voice>
        <type>eighth</type>
        <staff>1</staff>
      </note>
      <backup>
        <duration>6</duration>
      </backup>
      <note default-x="16">
        <pitch>
          <step>G</step>
          <octave>3</octave>
        </pitch>
        <duration>2</duration>
        <voice>2</voice>
        <type>eighth</type>
        <stem default-y="-45">down</stem>
        <staff>2</staff>
        <beam number="1">begin</beam>
      </note>
      <note default-x="60">
        <pitch>
          <step>F</step>
          <alter>1</alter>
          <octave>3</octave>
        </pitch>
        <duration>2</duration>
        <voice>2</voice>
        <type>eighth</type>
        <stem default-y="-46">down</stem>
        <staff>2</staff>
        <beam number="1">continue</beam>
      </note>
      <note default-x="105">
        <pitch>
          <step>E</step>
          <octave>3</octave>
        </pitch>
        <duration>2</duration>
        <voice>2</voice>
        <type>eighth</type>
        <stem default-y="-49">down</stem>
        <staff>2</staff>
        <beam number="1">end</beam>
      </note>
    </measure>
    <!--=======================================================-->
    <measure number="7" width="159">
      <note default-x="19">
        <pitch>
          <step>A</step>
          <alter>1</alter>
          <octave>4</octave>
        </pitch>
        <duration>1</duration>
        <voice>1</voice>
        <type>16th</type>
        <accidental>sharp</accidental>
        <stem default-y="-59">down</stem>
        <staff>1</staff>
        <beam number="1">begin</beam>
        <beam number="2">begin</beam>
        <notations>
          <slur type="start" number="1" bezier-x="36" bezier-y="36" default-x="8" default-y="-13" placement="above"></slur>
        </notations>
      </note>
      <note default-x="48">
        <pitch>
          <step>C</step>
          <alter>1</alter>
          <octave>5</octave>
        </pitch>
        <duration>1</duration>
        <voice>1</voice>
        <type>16th</type>
        <stem default-y="-54">down</stem>
        <staff>1</staff>
        <beam number="1">end</beam>
        <beam number="2">end</beam>
      </note>
      <note default-x="77">
        <pitch>
          <step>F</step>
          <alter>1</alter>
          <octave>5</octave>
        </pitch>
        <duration>4</duration>
        <voice>1</voice>
        <type>quarter</type>
        <stem default-y="-34">down</stem>
        <staff>1</staff>
      </note>
      <backup>
        <duration>6</duration>
      </backup>
      <note default-x="18">
        <pitch>
          <step>F</step>
          <alter>1</alter>
          <octave>3</octave>
        </pitch>
        <duration>4</duration>
        <voice>2</voice>
        <type>quarter</type>
        <stem default-y="-44">down</stem>
        <staff>2</staff>
        <notations>
          <slur type="start" number="2" bezier-x="28" bezier-y="12" default-x="14" default-y="1" placement="above"></slur>
        </notations>
      </note>
      <note default-x="116">
        <pitch>
          <step>E</step>
          <octave>3</octave>
        </pitch>
        <duration>2</duration>
        <voice>2</voice>
        <type>eighth</type>
        <stem default-y="-50">down</stem>
        <staff>2</staff>
        <notations>
          <slur type="stop" number="2" bezier-x="-27" bezier-y="16" default-x="4" default-y="-5"></slur>
        </notations>
      </note>
    </measure>
    <!--=======================================================-->
    <measure number="8" width="149">
      <note default-x="15">
        <pitch>
          <step>B</step>
          <octave>4</octave>
        </pitch>
        <duration>2</duration>
        <voice>1</voice>
        <type>eighth</type>
        <stem default-y="-55">down</stem>
        <staff>1</staff>
        <notations>
          <slur type="stop" number="1" bezier-x="-40" bezier-y="30" default-x="4" default-y="-5"></slur>
        </notations>
      </note>
      <note default-x="60">
        <rest>
          <display-step>B</display-step>
          <display-octave>4</display-octave>
        </rest>
        <duration>2</duration>
        <voice>1</voice>
        <type>eighth</type>
        <staff>1</staff>
      </note>
      <note default-x="105">
        <pitch>
          <step>D</step>
          <octave>5</octave>
        </pitch>
        <duration>2</duration>
        <voice>1</voice>
        <type>eighth</type>
        <stem default-y="-46">down</stem>
        <staff>1</staff>
      </note>
      <backup>
        <duration>6</duration>
      </backup>
      <note default-x="16">
        <pitch>
          <step>D</step>
          <octave>3</octave>
        </pitch>
        <duration>2</duration>
        <voice>2</voice>
        <type>eighth</type>
        <stem default-y="12">up</stem>
        <staff>2</staff>
        <beam number="1">begin</beam>
      </note>
      <note default-x="61">
        <pitch>
          <step>C</step>
          <alter>1</alter>
          <octave>3</octave>
        </pitch>
        <duration>2</duration>
        <voice>2</voice>
        <type>eighth</type>
        <stem default-y="9">up</stem>
        <staff>2</staff>
        <beam number="1">continue</beam>
      </note>
      <note default-x="106">
        <pitch>
          <step>B</step>
          <octave>2</octave>
        </pitch>
        <duration>2</duration>
        <voice>2</voice>
        <type>eighth</type>
        <stem default-y="5">up</stem>
        <staff>2</staff>
        <beam number="1">end</beam>
      </note>
    </measure>
    <!--=======================================================-->
    <measure number="9" width="149">
      <direction placement="below">
        <direction-type>
          <wedge type="crescendo" spread="0" default-x="12" default-y="-76"></wedge>
        </direction-type>
        <staff>1</staff>
      </direction>
      <note default-x="15">
        <pitch>
          <step>C</step>
          <alter>1</alter>
          <octave>5</octave>
        </pitch>
        <duration>2</duration>
        <voice>1</voice>
        <type>eighth</type>
        <stem default-y="-50">down</stem>
        <staff>1</staff>
      </note>
      <note default-x="61">
        <rest>
          <display-step>B</display-step>
          <display-octave>4</display-octave>
        </rest>
        <duration>2</duration>
        <voice>1</voice>
        <type>eighth</type>
        <staff>1</staff>
      </note>
      <direction>
        <direction-type>
          <wedge type="stop" spread="11" default-x="12"></wedge>
        </direction-type>
        <staff>1</staff>
      </direction>
      <note default-x="106">
        <pitch>
          <step>A</step>
          <alter>1</alter>
          <octave>4</octave>
        </pitch>
        <duration>2</duration>
        <voice>1</voice>
        <type>eighth</type>
        <accidental>sharp</accidental>
        <stem default-y="11">up</stem>
        <staff>1</staff>
      </note>
      <backup>
        <duration>6</duration>
      </backup>
      <note default-x="14">
        <pitch>
          <step>E</step>
          <octave>3</octave>
        </pitch>
        <duration>2</duration>
        <voice>2</voice>
        <type>eighth</type>
        <stem default-y="-57">down</stem>
        <staff>2</staff>
        <beam number="1">begin</beam>
        <notations>
          <slur type="start" number="1" bezier-x="14" bezier-y="6" default-x="9" default-y="-6" placement="above"></slur>
        </notations>
      </note>
      <note default-x="59">
        <pitch>
          <step>C</step>
          <alter>1</alter>
          <octave>3</octave>
        </pitch>
        <duration>2</duration>
        <voice>2</voice>
        <type>eighth</type>
        <stem default-y="-57">down</stem>
        <staff>2</staff>
        <beam number="1">continue</beam>
        <notations>
          <slur type="stop" number="1" bezier-x="-10" bezier-y="12" default-x="5" default-y="-15"></slur>
        </notations>
      </note>
      <note default-x="104">
        <pitch>
          <step>F</step>
          <alter>1</alter>
          <octave>3</octave>
        </pitch>
        <duration>2</duration>
        <voice>2</voice>
        <type>eighth</type>
        <stem default-y="-57">down</stem>
        <staff>2</staff>
        <beam number="1">end</beam>
      </note>
    </measure>
    <!--=======================================================-->
    <measure number="10" width="163">
      <direction placement="below">
        <direction-type>
          <words default-y="-82" relative-x="-10" font-family="serif" font-size="14" font-weight="bold">mf</words>
        </direction-type>
        <staff>1</staff>
      </direction>
      <note default-x="15">
        <pitch>
          <step>B</step>
          <octave>4</octave>
        </pitch>
        <duration>2</duration>
        <voice>1</voice>
        <type>eighth</type>
        <stem default-y="-55">down</stem>
        <staff>1</staff>
      </note>
      <note default-x="60">
        <rest>
          <display-step>B</display-step>
          <display-octave>4</display-octave>
        </rest>
        <duration>2</duration>
        <voice>1</voice>
        <type>eighth</type>
        <staff>1</staff>
      </note>
      <note default-x="105">
        <rest>
          <display-step>C</display-step>
          <display-octave>5</display-octave>
        </rest>
        <duration>2</duration>
        <voice>1</voice>
        <type>eighth</type>
        <staff>1</staff>
      </note>
      <backup>
        <duration>6</duration>
      </backup>
      <note default-x="16">
        <pitch>
          <step>B</step>
          <octave>2</octave>
        </pitch>
        <duration>2</duration>
        <voice>2</voice>
        <type>eighth</type>
        <stem default-y="6">up</stem>
        <staff>2</staff>
      </note>
      <note default-x="60">
        <rest>
          <display-step>D</display-step>
          <display-octave>3</display-octave>
        </rest>
        <duration>2</duration>
        <voice>2</voice>
        <type>eighth</type>
        <staff>2</staff>
      </note>
      <note default-x="105">
        <rest>
          <display-step>D</display-step>
          <display-octave>3</display-octave>
        </rest>
        <duration>2</duration>
        <voice>2</voice>
        <type>eighth</type>
        <staff>2</staff>
      </note>
      <barline location="right">
        <bar-style>light-heavy</bar-style>
      </barline>
    </measure>
    <!--=======================================================-->
    <measure number="11" width="334">
      <print new-system="yes">
        <system-layout>
          <system-margins>
            <left-margin>126</left-margin>
            <right-margin>-61</right-margin>
          </system-margins>
          <system-distance>210</system-distance>
        </system-layout>
        <staff-layout number="2">
          <staff-distance>68</staff-distance>
        </staff-layout>
      </print>
      <attributes>
        <key>
          <fifths>1</fifths>
        </key>
        <time>
          <beats>4</beats>
          <beat-type>4</beat-type>
        </time>
        <staff-details print-object="yes"></staff-details>
      </attributes>
      <direction placement="below">
        <direction-type>
          <dynamics default-y="-76" relative-x="6">
            <f/>
          </dynamics>
        </direction-type>
        <staff>1</staff>
        <sound dynamics="100"></sound>
      </direction>
      <note default-x="104">
        <pitch>
          <step>G</step>
          <octave>4</octave>
        </pitch>
        <duration>3</duration>
        <voice>1</voice>
        <type>eighth</type>
        <dot/>
        <stem default-y="2">up</stem>
        <staff>1</staff>
        <beam number="1">begin</beam>
        <notations>
          <slur type="start" number="1" bezier-x="11" bezier-y="-11" default-x="8" default-y="-41" placement="below"></slur>
        </notations>
      </note>
      <note default-x="147">
        <pitch>
          <step>F</step>
          <alter>1</alter>
          <octave>4</octave>
        </pitch>
        <duration>1</duration>
        <voice>1</voice>
        <type>16th</type>
        <stem default-y="1">up</stem>
        <staff>1</staff>
        <beam number="1">end</beam>
        <beam number="2">backward hook</beam>
        <notations>
          <slur type="stop" number="1" bezier-x="-12" bezier-y="-9" default-x="5" default-y="-44"></slur>
        </notations>
      </note>
      <note default-x="168">
        <pitch>
          <step>E</step>
          <octave>4</octave>
        </pitch>
        <duration>4</duration>
        <voice>1</voice>
        <type>quarter</type>
        <stem default-y="-5">up</stem>
        <staff>1</staff>
      </note>
      <note default-x="223">
        <pitch>
          <step>B</step>
          <octave>4</octave>
        </pitch>
        <duration>8</duration>
        <voice>1</voice>
        <type>half</type>
        <stem default-y="-54">down</stem>
        <staff>1</staff>
      </note>
      <backup>
        <duration>16</duration>
      </backup>
      <note default-x="102">
        <pitch>
          <step>E</step>
          <octave>3</octave>
        </pitch>
        <duration>4</duration>
        <voice>2</voice>
        <type>quarter</type>
        <stem default-y="-49">down</stem>
        <staff>2</staff>
      </note>
      <note default-x="167">
        <pitch>
          <step>G</step>
          <octave>3</octave>
        </pitch>
        <duration>4</duration>
        <voice>2</voice>
        <type>quarter</type>
        <stem default-y="-40">down</stem>
        <staff>2</staff>
      </note>
      <note default-x="223">
        <pitch>
          <step>F</step>
          <alter>1</alter>
          <octave>3</octave>
        </pitch>
        <duration>4</duration>
        <voice>2</voice>
        <type>quarter</type>
        <stem default-y="-44">down</stem>
        <staff>2</staff>
      </note>
      <note default-x="266">
        <pitch>
          <step>C</step>
          <octave>3</octave>
        </pitch>
        <duration>4</duration>
        <voice>2</voice>
        <type>quarter</type>
        <stem default-y="-54">down</stem>
        <staff>2</staff>
      </note>
      <note default-x="280">
        <chord/>
        <pitch>
          <step>D</step>
          <octave>3</octave>
        </pitch>
        <duration>4</duration>
        <voice>2</voice>
        <type>quarter</type>
        <stem default-y="-54">down</stem>
        <staff>2</staff>
      </note>
    </measure>
    <!--=======================================================-->
    <measure number="12" width="218">
      <note default-x="16">
        <pitch>
          <step>G</step>
          <octave>4</octave>
        </pitch>
        <duration>3</duration>
        <voice>1</voice>
        <type>eighth</type>
        <dot/>
        <stem default-y="2">up</stem>
        <staff>1</staff>
        <beam number="1">begin</beam>
        <notations>
          <slur type="start" number="1" bezier-x="11" bezier-y="-11" default-x="8" default-y="-41" placement="below"></slur>
        </notations>
      </note>
      <note default-x="59">
        <pitch>
          <step>F</step>
          <alter>1</alter>
          <octave>4</octave>
        </pitch>
        <duration>1</duration>
        <voice>1</voice>
        <type>16th</type>
        <stem default-y="0">up</stem>
        <staff>1</staff>
        <beam number="1">end</beam>
        <beam number="2">backward hook</beam>
        <notations>
          <slur type="stop" number="1" bezier-x="-12" bezier-y="-9" default-x="5" default-y="-44"></slur>
        </notations>
      </note>
      <note default-x="80">
        <pitch>
          <step>E</step>
          <octave>4</octave>
        </pitch>
        <duration>4</duration>
        <voice>1</voice>
        <type>quarter</type>
        <stem default-y="-5">up</stem>
        <staff>1</staff>
      </note>
      <note default-x="136">
        <pitch>
          <step>D</step>
          <alter>1</alter>
          <octave>4</octave>
        </pitch>
        <duration>8</duration>
        <voice>1</voice>
        <type>half</type>
        <accidental>sharp</accidental>
        <stem default-y="0">up</stem>
        <staff>1</staff>
      </note>
      <note default-x="136">
        <chord/>
        <pitch>
          <step>F</step>
          <alter>1</alter>
          <octave>4</octave>
        </pitch>
        <duration>8</duration>
        <voice>1</voice>
        <type>half</type>
        <stem default-y="0">up</stem>
        <staff>1</staff>
      </note>
      <backup>
        <duration>16</duration>
      </backup>
      <note default-x="15">
        <pitch>
          <step>E</step>
          <octave>3</octave>
        </pitch>
        <duration>4</duration>
        <voice>2</voice>
        <type>quarter</type>
        <stem default-y="-49">down</stem>
        <staff>2</staff>
      </note>
      <note default-x="79">
        <pitch>
          <step>G</step>
          <octave>3</octave>
        </pitch>
        <duration>4</duration>
        <voice>2</voice>
        <type>quarter</type>
        <stem default-y="-39">down</stem>
        <staff>2</staff>
      </note>
      <note default-x="136">
        <pitch>
          <step>B</step>
          <octave>2</octave>
        </pitch>
        <duration>8</duration>
        <voice>2</voice>
        <type>half</type>
        <stem default-y="5">up</stem>
        <staff>2</staff>
      </note>
    </measure>
    <!--=======================================================-->
    <measure number="13" width="247">
      <direction placement="below">
        <direction-type>
          <wedge type="crescendo" spread="0" default-x="-92" default-y="-72"></wedge>
        </direction-type>
        <staff>1</staff>
      </direction>
      <direction>
        <direction-type>
          <wedge type="stop" spread="12" default-x="114"></wedge>
        </direction-type>
        <staff>1</staff>
      </direction>
      <note default-x="118">
        <rest measure="yes"></rest>
        <duration>16</duration>
        <voice>1</voice>
        <staff>1</staff>
      </note>
      <backup>
        <duration>16</duration>
      </backup>
      <note default-x="15">
        <pitch>
          <step>A</step>
          <octave>3</octave>
        </pitch>
        <duration>3</duration>
        <voice>2</voice>
        <type>eighth</type>
        <dot/>
        <stem default-y="-35">down</stem>
        <staff>2</staff>
        <beam number="1">begin</beam>
        <notations>
          <slur type="start" number="1" bezier-x="12" bezier-y="12" default-x="8" default-y="9" placement="above"></slur>
        </notations>
      </note>
      <note default-x="58">
        <pitch>
          <step>G</step>
          <octave>3</octave>
        </pitch>
        <duration>1</duration>
        <voice>2</voice>
        <type>16th</type>
        <stem default-y="-40">down</stem>
        <staff>2</staff>
        <beam number="1">end</beam>
        <beam number="2">backward hook</beam>
        <notations>
          <slur type="stop" number="1" bezier-x="-9" bezier-y="14" default-x="6" default-y="4"></slur>
        </notations>
      </note>
      <note default-x="80">
        <pitch>
          <step>F</step>
          <alter>1</alter>
          <octave>3</octave>
        </pitch>
        <duration>4</duration>
        <voice>2</voice>
        <type>quarter</type>
        <stem default-y="-45">down</stem>
        <staff>2</staff>
      </note>
      <note default-x="135">
        <pitch>
          <step>G</step>
          <octave>3</octave>
        </pitch>
        <duration>4</duration>
        <voice>2</voice>
        <type>quarter</type>
        <stem default-y="-40">down</stem>
        <staff>2</staff>
      </note>
      <note default-x="191">
        <pitch>
          <step>E</step>
          <octave>3</octave>
        </pitch>
        <duration>4</duration>
        <voice>2</voice>
        <type>quarter</type>
        <stem default-y="-49">down</stem>
        <staff>2</staff>
      </note>
    </measure>
    <!--=======================================================-->
    <measure number="14" width="225">
      <direction placement="below">
        <direction-type>
          <dynamics default-y="-74" relative-x="-10">
            <f/>
          </dynamics>
        </direction-type>
        <staff>1</staff>
        <sound dynamics="100"></sound>
      </direction>
      <note default-x="16">
        <pitch>
          <step>E</step>
          <octave>4</octave>
        </pitch>
        <duration>4</duration>
        <voice>1</voice>
        <type>quarter</type>
        <stem default-y="-5">up</stem>
        <staff>1</staff>
      </note>
      <note default-x="72">
        <pitch>
          <step>D</step>
          <alter>1</alter>
          <octave>4</octave>
        </pitch>
        <duration>4</duration>
        <voice>1</voice>
        <type>quarter</type>
        <accidental>sharp</accidental>
        <stem default-y="-10">up</stem>
        <staff>1</staff>
      </note>
      <note default-x="128">
        <pitch>
          <step>E</step>
          <octave>4</octave>
        </pitch>
        <duration>8</duration>
        <voice>1</voice>
        <type>half</type>
        <stem default-y="-5">up</stem>
        <staff>1</staff>
      </note>
      <backup>
        <duration>16</duration>
      </backup>
      <note default-x="14">
        <pitch>
          <step>B</step>
          <octave>3</octave>
        </pitch>
        <duration>4</duration>
        <voice>2</voice>
        <type>quarter</type>
        <stem default-y="-30">down</stem>
        <staff>2</staff>
      </note>
      <note default-x="72">
        <pitch>
          <step>B</step>
          <octave>2</octave>
        </pitch>
        <duration>4</duration>
        <voice>2</voice>
        <type>quarter</type>
        <stem default-y="5">up</stem>
        <staff>2</staff>
      </note>
      <note default-x="127">
        <pitch>
          <step>E</step>
          <octave>3</octave>
        </pitch>
        <duration>8</duration>
        <voice>2</voice>
        <type>half</type>
        <stem default-y="-49">down</stem>
        <staff>2</staff>
      </note>
      <note default-x="127">
        <chord/>
        <pitch>
          <step>G</step>
          <octave>3</octave>
        </pitch>
        <duration>8</duration>
        <voice>2</voice>
        <type>half</type>
        <stem default-y="-49">down</stem>
        <staff>2</staff>
      </note>
      <barline location="right">
        <bar-style>light-heavy</bar-style>
      </barline>
    </measure>
  </part>
</score-partwise>