<?xml version="1.0" encoding="UTF-8"?>
<!DOCTYPE score-partwise PUBLIC "-//Recordare//DTD MusicXML 3.0.1 Partwise//EN" "http://www.musicxml.org/dtds/partwise.dtd">
<score-partwise version="3.0.1">
  <movement-number>null</movement-number>
  <movement-title>[Audiveris detected movement]</movement-title>
  <identification>
    <encoding>
      <software>Audiveris 5.0.0</software>
      <supports type="yes" element="print" attribute="new-system" value="yes"></supports>
      <supports type="yes" element="print" attribute="new-page" value="yes"></supports>
      <software>ProxyMusic 3.0.1.8e1a2c5</software>
      <encoding-date>2017-07-18</encoding-date>
    </encoding>
    <source>/Users/mb/Desktop/Janis.so/06_qmul/BB/06_grade_pdfs/AB-Sight-Reading-3.pdf</source>
    <miscellaneous>
      <miscellaneous-field name="source-file">/Users/mb/Desktop/Janis.so/06_qmul/BB/06_grade_pdfs/AB-Sight-Reading-3.pdf</miscellaneous-field>
      <miscellaneous-field name="source-sheet-13">1 2</miscellaneous-field>
    </miscellaneous>
  </identification>
  <defaults>
    <scaling>
      <millimeters>6.0960</millimeters>
      <tenths>40</tenths>
    </scaling>
    <page-layout>
      <page-height>1666</page-height>
      <page-width>1249</page-width>
      <page-margins type="both">
        <left-margin>80</left-margin>
        <right-margin>80</right-margin>
        <top-margin>80</top-margin>
        <bottom-margin>80</bottom-margin>
      </page-margins>
    </page-layout>
    <lyric-font font-family="Serif" font-size="10"></lyric-font>
  </defaults>
  <credit page="1">
    <credit-words default-x="216" default-y="1440" font-family="serif" font-size="7">1</credit-words>
  </credit>
  <credit page="1">
    <credit-words default-x="189" default-y="1109" font-family="serif" font-size="12" font-weight="bold">Allegretto 4</credit-words>
  </credit>
  <credit page="1">
    <credit-words default-x="914" default-y="1088" font-family="serif" font-size="7">4</credit-words>
  </credit>
  <credit page="1">
    <credit-words default-x="337" default-y="1082" font-family="serif" font-size="7" font-weight="bold">2</credit-words>
  </credit>
  <credit page="1">
    <credit-words default-x="231" default-y="1081" font-family="serif" font-size="7" font-weight="bold">5</credit-words>
  </credit>
  <credit page="1">
    <credit-words default-x="687" default-y="1079" font-family="serif" font-size="17">42</credit-words>
  </credit>
  <credit page="1">
    <credit-words default-x="915" default-y="1073" font-family="serif" font-size="8" font-weight="bold">2</credit-words>
  </credit>
  <credit page="1">
    <credit-words default-x="231" default-y="1063" font-family="serif" font-size="7" font-weight="bold">3</credit-words>
  </credit>
  <part-list>
    <score-part id="P1">
      <part-name>43</part-name>
      <score-instrument id="P1-I1">
        <instrument-name>Acoustic Grand Piano</instrument-name>
      </score-instrument>
      <midi-instrument id="P1-I1">
        <midi-channel>1</midi-channel>
        <midi-program>1</midi-program>
        <volume>78</volume>
      </midi-instrument>
    </score-part>
  </part-list>
  <!--= = = = = = = = = = = = = = = = = = = = = = = = = = = = =-->
  <part id="P1">
    <!--=======================================================-->
    <measure number="1" width="332">
      <print>
        <system-layout>
          <system-margins>
            <left-margin>18</left-margin>
            <right-margin>45</right-margin>
          </system-margins>
          <top-system-distance>-12</top-system-distance>
        </system-layout>
        <staff-layout number="2">
          <staff-distance>63</staff-distance>
        </staff-layout>
        <measure-numbering>system</measure-numbering>
      </print>
      <attributes>
        <divisions>2</divisions>
        <key>
          <fifths>2</fifths>
        </key>
        <time>
          <beats>3</beats>
          <beat-type>4</beat-type>
        </time>
        <staves>2</staves>
        <clef number="1">
          <sign>G</sign>
          <line>2</line>
        </clef>
        <clef number="2">
          <sign>F</sign>
          <line>4</line>
        </clef>
        <staff-details print-object="yes"></staff-details>
      </attributes>
      <direction>
        <direction-type>
          <words></words>
        </direction-type>
        <sound tempo="120"></sound>
      </direction>
      <direction placement="above">
        <direction-type>
          <words default-y="24" relative-x="-38" font-family="serif" font-size="12" font-weight="bold">Slowly</words>
        </direction-type>
        <staff>1</staff>
      </direction>
      <note default-x="116">
        <rest>
          <display-step>B</display-step>
          <display-octave>4</display-octave>
        </rest>
        <duration>2</duration>
        <voice>1</voice>
        <type>quarter</type>
        <staff>1</staff>
      </note>
      <note default-x="185">
        <pitch>
          <step>D</step>
          <octave>4</octave>
        </pitch>
        <duration>1</duration>
        <voice>1</voice>
        <type>eighth</type>
        <stem default-y="-9">up</stem>
        <staff>1</staff>
        <beam number="1">begin</beam>
        <notations>
          <slur type="start" number="1" bezier-x="26" bezier-y="-13" default-x="7" default-y="-53" placement="below"></slur>
        </notations>
      </note>
      <note default-x="226">
        <pitch>
          <step>E</step>
          <octave>4</octave>
        </pitch>
        <duration>1</duration>
        <voice>1</voice>
        <type>eighth</type>
        <stem default-y="-8">up</stem>
        <staff>1</staff>
        <beam number="1">end</beam>
      </note>
      <note default-x="266">
        <pitch>
          <step>F</step>
          <alter>1</alter>
          <octave>4</octave>
        </pitch>
        <duration>2</duration>
        <voice>1</voice>
        <type>quarter</type>
        <stem default-y="1">up</stem>
        <staff>1</staff>
        <notations>
          <slur type="stop" number="1" bezier-x="-22" bezier-y="-22" default-x="4" default-y="-43"></slur>
        </notations>
      </note>
      <backup>
        <duration>6</duration>
      </backup>
      <direction placement="above">
        <direction-type>
          <dynamics default-y="32" relative-x="-6">
            <p/>
          </dynamics>
        </direction-type>
        <staff>2</staff>
        <sound dynamics="56"></sound>
      </direction>
      <note default-x="116">
        <pitch>
          <step>B</step>
          <octave>3</octave>
        </pitch>
        <duration>6</duration>
        <voice>2</voice>
        <type>half</type>
        <dot/>
        <stem default-y="-31">down</stem>
        <staff>2</staff>
      </note>
    </measure>
    <!--=======================================================-->
    <measure number="2" width="236">
      <note default-x="19">
        <rest>
          <display-step>B</display-step>
          <display-octave>4</display-octave>
        </rest>
        <duration>2</duration>
        <voice>1</voice>
        <type>quarter</type>
        <staff>1</staff>
      </note>
      <note default-x="88">
        <pitch>
          <step>C</step>
          <alter>1</alter>
          <octave>4</octave>
        </pitch>
        <duration>1</duration>
        <voice>1</voice>
        <type>eighth</type>
        <stem default-y="-15">up</stem>
        <staff>1</staff>
        <beam number="1">begin</beam>
        <notations>
          <slur type="start" number="1" bezier-x="26" bezier-y="-14" default-x="7" default-y="-58" placement="below"></slur>
        </notations>
      </note>
      <note default-x="128">
        <pitch>
          <step>D</step>
          <octave>4</octave>
        </pitch>
        <duration>1</duration>
        <voice>1</voice>
        <type>eighth</type>
        <stem default-y="-10">up</stem>
        <staff>1</staff>
        <beam number="1">end</beam>
      </note>
      <note default-x="168">
        <pitch>
          <step>E</step>
          <octave>4</octave>
        </pitch>
        <duration>2</duration>
        <voice>1</voice>
        <type>quarter</type>
        <stem default-y="-5">up</stem>
        <staff>1</staff>
        <notations>
          <slur type="stop" number="1" bezier-x="-22" bezier-y="-20" default-x="4" default-y="-49"></slur>
        </notations>
      </note>
      <backup>
        <duration>6</duration>
      </backup>
      <note default-x="18">
        <pitch>
          <step>A</step>
          <alter>1</alter>
          <octave>3</octave>
        </pitch>
        <duration>6</duration>
        <voice>2</voice>
        <type>half</type>
        <dot/>
        <accidental>sharp</accidental>
        <stem default-y="-34">down</stem>
        <staff>2</staff>
      </note>
    </measure>
    <!--=======================================================-->
    <measure number="3" width="236">
      <note default-x="15">
        <rest>
          <display-step>B</display-step>
          <display-octave>4</display-octave>
        </rest>
        <duration>2</duration>
        <voice>1</voice>
        <type>quarter</type>
        <staff>1</staff>
      </note>
      <direction placement="below">
        <direction-type>
          <wedge type="crescendo" spread="0" default-x="6" default-y="-74"></wedge>
        </direction-type>
        <staff>1</staff>
      </direction>
      <note default-x="84">
        <pitch>
          <step>D</step>
          <octave>4</octave>
        </pitch>
        <duration>1</duration>
        <voice>1</voice>
        <type>eighth</type>
        <stem default-y="-5">up</stem>
        <staff>1</staff>
        <beam number="1">begin</beam>
        <notations>
          <slur type="start" number="1" bezier-x="24" bezier-y="14" default-x="18" default-y="5" placement="above"></slur>
        </notations>
      </note>
      <note default-x="124">
        <pitch>
          <step>F</step>
          <alter>1</alter>
          <octave>4</octave>
        </pitch>
        <duration>1</duration>
        <voice>1</voice>
        <type>eighth</type>
        <stem default-y="0">up</stem>
        <staff>1</staff>
        <beam number="1">end</beam>
      </note>
      <direction>
        <direction-type>
          <wedge type="stop" spread="11" default-x="14"></wedge>
        </direction-type>
        <staff>1</staff>
      </direction>
      <note default-x="167">
        <pitch>
          <step>B</step>
          <octave>4</octave>
        </pitch>
        <duration>2</duration>
        <voice>1</voice>
        <type>quarter</type>
        <stem default-y="-54">down</stem>
        <staff>1</staff>
        <notations>
          <slur type="stop" number="1" bezier-x="-19" bezier-y="19" default-x="5" default-y="-6"></slur>
        </notations>
      </note>
      <backup>
        <duration>6</duration>
      </backup>
      <note default-x="15">
        <pitch>
          <step>B</step>
          <octave>3</octave>
        </pitch>
        <duration>4</duration>
        <voice>2</voice>
        <type>half</type>
        <stem default-y="-29">down</stem>
        <staff>2</staff>
      </note>
      <note default-x="168">
        <pitch>
          <step>G</step>
          <octave>3</octave>
        </pitch>
        <duration>2</duration>
        <voice>2</voice>
        <type>quarter</type>
        <stem default-y="-39">down</stem>
        <staff>2</staff>
      </note>
    </measure>
    <!--=======================================================-->
    <measure number="4" width="222">
      <direction placement="below">
        <direction-type>
          <wedge type="diminuendo" spread="12" default-x="71" default-y="-62"></wedge>
        </direction-type>
        <staff>1</staff>
      </direction>
      <direction>
        <direction-type>
          <wedge type="stop" spread="0" default-x="151"></wedge>
        </direction-type>
        <staff>1</staff>
      </direction>
      <note default-x="18">
        <pitch>
          <step>A</step>
          <alter>1</alter>
          <octave>4</octave>
        </pitch>
        <duration>6</duration>
        <voice>1</voice>
        <type>half</type>
        <dot/>
        <accidental>sharp</accidental>
        <stem default-y="9">up</stem>
        <staff>1</staff>
      </note>
      <backup>
        <duration>6</duration>
      </backup>
      <note default-x="18">
        <rest>
          <display-step>D</display-step>
          <display-octave>3</display-octave>
        </rest>
        <duration>2</duration>
        <voice>2</voice>
        <type>quarter</type>
        <staff>2</staff>
      </note>
      <note default-x="87">
        <pitch>
          <step>F</step>
          <alter>1</alter>
          <octave>3</octave>
        </pitch>
        <duration>2</duration>
        <voice>2</voice>
        <type>quarter</type>
        <stem default-y="-44">down</stem>
        <staff>2</staff>
        <notations>
          <slur type="start" number="1" bezier-x="17" bezier-y="22" default-x="7" default-y="5" placement="above"></slur>
        </notations>
      </note>
      <note default-x="155">
        <pitch>
          <step>C</step>
          <alter>1</alter>
          <octave>4</octave>
        </pitch>
        <duration>2</duration>
        <voice>2</voice>
        <type>quarter</type>
        <stem default-y="-25">down</stem>
        <staff>2</staff>
        <notations>
          <slur type="stop" number="1" bezier-x="-24" bezier-y="12" default-x="5" default-y="19"></slur>
        </notations>
      </note>
    </measure>
    <!--=======================================================-->
    <measure number="5" width="374">
      <print new-system="yes">
        <system-layout>
          <system-margins>
            <left-margin>-51</left-margin>
            <right-margin>46</right-margin>
          </system-margins>
          <system-distance>102</system-distance>
        </system-layout>
        <staff-layout number="2">
          <staff-distance>63</staff-distance>
        </staff-layout>
      </print>
      <attributes>
        <staff-details print-object="yes"></staff-details>
      </attributes>
      <direction placement="below">
        <direction-type>
          <words default-y="-81" relative-x="-128" font-family="serif" font-size="14" font-weight="bold">mf</words>
        </direction-type>
        <staff>1</staff>
      </direction>
      <note default-x="217">
        <rest measure="yes"></rest>
        <duration>6</duration>
        <voice>1</voice>
        <staff>1</staff>
      </note>
      <backup>
        <duration>6</duration>
      </backup>
      <note default-x="96">
        <pitch>
          <step>B</step>
          <octave>3</octave>
        </pitch>
        <duration>2</duration>
        <voice>2</voice>
        <type>quarter</type>
        <stem default-y="-30">down</stem>
        <staff>2</staff>
      </note>
      <note default-x="183">
        <pitch>
          <step>B</step>
          <octave>3</octave>
        </pitch>
        <duration>1</duration>
        <voice>2</voice>
        <type>eighth</type>
        <stem default-y="-34">down</stem>
        <staff>2</staff>
        <beam number="1">begin</beam>
        <notations>
          <slur type="start" number="1" bezier-x="32" bezier-y="13" default-x="9" default-y="14" placement="above"></slur>
        </notations>
      </note>
      <note default-x="235">
        <pitch>
          <step>G</step>
          <octave>3</octave>
        </pitch>
        <duration>1</duration>
        <voice>2</voice>
        <type>eighth</type>
        <stem default-y="-40">down</stem>
        <staff>2</staff>
        <beam number="1">end</beam>
      </note>
      <note default-x="287">
        <pitch>
          <step>E</step>
          <octave>3</octave>
        </pitch>
        <duration>2</duration>
        <voice>2</voice>
        <type>quarter</type>
        <stem default-y="-49">down</stem>
        <staff>2</staff>
        <notations>
          <slur type="stop" number="1" bezier-x="-26" bezier-y="26" default-x="4" default-y="-6"></slur>
        </notations>
      </note>
    </measure>
    <!--=======================================================-->
    <measure number="6" width="285">
      <note default-x="15">
        <rest>
          <display-step>B</display-step>
          <display-octave>4</display-octave>
        </rest>
        <duration>2</duration>
        <voice>1</voice>
        <type>quarter</type>
        <staff>1</staff>
      </note>
      <note default-x="103">
        <pitch>
          <step>E</step>
          <octave>4</octave>
        </pitch>
        <duration>4</duration>
        <voice>1</voice>
        <type>half</type>
        <stem default-y="0">up</stem>
        <staff>1</staff>
      </note>
      <note default-x="116">
        <chord/>
        <pitch>
          <step>F</step>
          <alter>1</alter>
          <octave>4</octave>
        </pitch>
        <duration>4</duration>
        <voice>1</voice>
        <type>half</type>
        <stem default-y="0">up</stem>
        <staff>1</staff>
      </note>
      <backup>
        <duration>6</duration>
      </backup>
      <note default-x="16">
        <pitch>
          <step>F</step>
          <alter>1</alter>
          <octave>3</octave>
        </pitch>
        <duration>3</duration>
        <voice>2</voice>
        <type>quarter</type>
        <dot/>
        <stem default-y="-44">down</stem>
        <staff>2</staff>
        <notations>
          <slur type="start" number="1" bezier-x="32" bezier-y="29" default-x="9" default-y="5" placement="above"></slur>
        </notations>
      </note>
      <note default-x="147">
        <pitch>
          <step>D</step>
          <octave>4</octave>
        </pitch>
        <duration>1</duration>
        <voice>2</voice>
        <type>eighth</type>
        <stem default-y="-20">down</stem>
        <staff>2</staff>
        <notations>
          <slur type="stop" number="1" bezier-x="-36" bezier-y="18" default-x="4" default-y="24"></slur>
        </notations>
      </note>
      <note default-x="198">
        <pitch>
          <step>C</step>
          <alter>1</alter>
          <octave>4</octave>
        </pitch>
        <duration>2</duration>
        <voice>2</voice>
        <type>quarter</type>
        <stem default-y="-25">down</stem>
        <staff>2</staff>
      </note>
    </measure>
    <!--=======================================================-->
    <measure number="7" width="254">
      <direction placement="below">
        <direction-type>
          <wedge type="diminuendo" spread="12" default-x="13" default-y="-74"></wedge>
        </direction-type>
        <staff>1</staff>
      </direction>
      <note default-x="16">
        <rest>
          <display-step>B</display-step>
          <display-octave>4</display-octave>
        </rest>
        <duration>2</duration>
        <voice>1</voice>
        <type>quarter</type>
        <staff>1</staff>
      </note>
      <note default-x="103">
        <pitch>
          <step>D</step>
          <octave>4</octave>
        </pitch>
        <duration>4</duration>
        <tie type="start"></tie>
        <voice>1</voice>
        <type>half</type>
        <stem default-y="1">up</stem>
        <staff>1</staff>
        <notations>
          <tied type="start" orientation="under"></tied>
        </notations>
      </note>
      <note default-x="103">
        <chord/>
        <pitch>
          <step>F</step>
          <alter>1</alter>
          <octave>4</octave>
        </pitch>
        <duration>4</duration>
        <tie type="start"></tie>
        <voice>1</voice>
        <type>half</type>
        <stem default-y="1">up</stem>
        <staff>1</staff>
        <notations>
          <tied type="start" orientation="over"></tied>
        </notations>
      </note>
      <backup>
        <duration>6</duration>
      </backup>
      <note default-x="15">
        <pitch>
          <step>B</step>
          <octave>3</octave>
        </pitch>
        <duration>4</duration>
        <voice>2</voice>
        <type>half</type>
        <stem default-y="-30">down</stem>
        <staff>2</staff>
      </note>
      <note default-x="167">
        <pitch>
          <step>F</step>
          <alter>1</alter>
          <octave>3</octave>
        </pitch>
        <duration>2</duration>
        <voice>2</voice>
        <type>quarter</type>
        <stem default-y="-44">down</stem>
        <staff>2</staff>
      </note>
    </measure>
    <!--=======================================================-->
    <measure number="8" width="183">
      <direction>
        <direction-type>
          <wedge type="stop" spread="0" default-x="10"></wedge>
        </direction-type>
        <staff>1</staff>
      </direction>
      <note default-x="16">
        <pitch>
          <step>D</step>
          <octave>4</octave>
        </pitch>
        <duration>6</duration>
        <tie type="stop"></tie>
        <voice>1</voice>
        <type>half</type>
        <dot/>
        <stem default-y="1">up</stem>
        <staff>1</staff>
        <notations>
          <tied type="stop"></tied>
        </notations>
      </note>
      <note default-x="16">
        <chord/>
        <pitch>
          <step>F</step>
          <alter>1</alter>
          <octave>4</octave>
        </pitch>
        <duration>6</duration>
        <tie type="stop"></tie>
        <voice>1</voice>
        <type>half</type>
        <dot/>
        <stem default-y="1">up</stem>
        <staff>1</staff>
        <notations>
          <tied type="stop"></tied>
        </notations>
      </note>
      <backup>
        <duration>6</duration>
      </backup>
      <note default-x="16">
        <pitch>
          <step>B</step>
          <octave>2</octave>
        </pitch>
        <duration>3</duration>
        <voice>2</voice>
        <type>quarter</type>
        <dot/>
        <stem default-y="5">up</stem>
        <staff>2</staff>
      </note>
      <barline location="right">
        <bar-style>light-heavy</bar-style>
      </barline>
    </measure>
  </part>
</score-partwise>